<?xml version="1.0" standalone="no"?>
<!DOCTYPE svg PUBLIC "-//W3C//DTD SVG 20010904//EN"
 "http://www.w3.org/TR/2001/REC-SVG-20010904/DTD/svg10.dtd">
<svg version="1.0" xmlns="http://www.w3.org/2000/svg"
 width="700.000000pt" height="700.000000pt" viewBox="0 0 700.000000 700.000000"
 preserveAspectRatio="xMidYMid meet">
<metadata>
Created by potrace 1.14, written by Peter Selinger 2001-2017
</metadata>
<g transform="translate(0.000000,700.000000) scale(0.100000,-0.100000)"
fill="#000000" stroke="none">
<path d="M3480 6843 c-43 -29 -232 -195 -293 -258 -257 -261 -421 -533 -491
-816 -38 -153 -45 -218 -41 -384 4 -172 6 -189 46 -345 48 -192 142 -356 359
-629 126 -158 171 -228 252 -388 l61 -122 -3 -298 c-1 -164 -3 -330 -3 -370
-1 -76 -2 -76 -47 -37 -14 12 -52 44 -86 72 -57 47 -61 53 -59 90 5 105 -38
349 -87 497 -37 113 -119 285 -186 392 -164 265 -459 581 -597 639 -16 7 -48
30 -71 51 -153 143 -322 247 -535 328 -91 35 -280 91 -339 100 -19 3 -42 8
-50 10 -8 2 -31 7 -50 10 -19 3 -42 8 -50 10 -8 2 -37 7 -65 10 -27 3 -68 8
-90 10 -202 26 -426 26 -595 0 -14 -2 -45 -7 -68 -10 -24 -3 -73 -15 -108 -26
-97 -30 -98 -32 -91 -252 3 -100 8 -198 12 -217 3 -19 13 -78 21 -130 46 -295
125 -554 244 -795 114 -232 229 -399 377 -550 263 -266 462 -377 799 -446 87
-18 144 -23 284 -23 155 -1 338 8 380 19 8 2 52 6 96 10 45 3 93 8 105 10 13
2 56 6 94 10 39 3 84 7 100 9 17 3 64 8 105 11 41 4 83 9 93 11 9 1 52 6 95 9
l78 7 136 -142 137 -142 -3 -377 c-1 -207 -5 -376 -9 -376 -3 0 -35 26 -70 58
-36 32 -103 87 -149 123 -45 35 -87 68 -93 72 -81 63 -441 260 -542 296 -21 7
-58 23 -83 34 -146 66 -571 189 -785 227 -70 12 -91 16 -105 20 -8 3 -46 9
-85 15 -38 5 -81 12 -95 14 -14 3 -52 8 -85 11 -33 4 -71 9 -85 11 -106 15
-294 23 -538 23 l-192 1 -10 26 c-6 15 -12 41 -15 58 -3 30 -10 67 -19 113 -3
11 -8 43 -12 70 -3 26 -8 56 -10 65 -1 9 -5 48 -9 85 -3 37 -8 82 -10 98 -3
17 -7 77 -11 135 -5 87 -10 114 -33 160 -51 100 -133 134 -215 87 -72 -40 -81
-68 -82 -256 -1 -296 49 -604 153 -951 31 -104 112 -321 124 -335 5 -5 9 -15
9 -23 0 -20 139 -294 210 -413 471 -793 1268 -1382 2171 -1604 75 -18 151 -36
170 -39 19 -3 61 -10 94 -16 95 -16 203 -30 300 -38 111 -9 459 -8 575 1 87 7
310 36 320 42 3 2 21 6 40 9 130 20 307 67 485 128 375 128 740 329 1060 585
119 95 360 329 446 433 30 36 57 67 60 70 14 13 132 174 186 255 125 187 255
435 338 645 73 186 158 464 180 589 3 19 8 38 10 42 8 12 45 267 52 354 13
156 9 447 -6 483 -25 60 -125 85 -180 45 -74 -55 -103 -146 -126 -403 -6 -68
-13 -127 -20 -170 -2 -14 -13 -82 -25 -152 -23 -148 -33 -174 -68 -181 -14 -3
-84 -3 -156 0 -228 9 -449 5 -531 -11 -11 -2 -49 -7 -85 -11 -36 -4 -74 -9
-84 -11 -11 -2 -41 -6 -68 -9 -109 -12 -442 -83 -543 -115 -310 -98 -444 -151
-665 -260 -223 -110 -460 -260 -652 -411 -59 -47 -89 -65 -94 -57 -4 7 -8 185
-9 395 l-2 383 46 37 c25 21 48 40 51 43 3 3 46 41 95 84 50 44 96 87 103 95
11 14 19 13 75 -2 34 -10 85 -24 112 -32 54 -15 192 -41 265 -50 25 -3 56 -8
70 -10 24 -4 45 -6 235 -22 165 -14 534 -6 565 12 3 1 28 6 55 10 204 27 525
171 735 331 84 63 240 222 240 244 0 5 4 10 8 12 9 3 72 95 118 172 16 28 41
70 57 95 51 85 107 210 141 313 40 121 101 332 112 387 1 8 9 46 18 85 16 77
25 143 32 251 27 410 27 430 1 460 -30 35 -135 61 -317 80 -194 20 -525 26
-640 12 -136 -17 -344 -73 -506 -137 -93 -37 -313 -149 -359 -182 -5 -4 -48
-36 -94 -70 -46 -35 -108 -80 -138 -100 -164 -111 -428 -379 -575 -583 -118
-165 -242 -421 -281 -585 -16 -66 -56 -344 -62 -435 -2 -27 -4 -53 -4 -56 -1
-6 -146 -129 -167 -141 -10 -7 -12 73 -18 668 l-1 120 49 85 c91 157 155 244
257 349 56 58 119 128 140 155 48 64 120 201 152 290 22 62 42 161 36 175 -1
3 3 16 10 29 20 36 59 180 67 246 10 75 10 282 1 355 -35 268 -158 532 -372
798 -123 152 -435 452 -471 452 -5 0 -21 -8 -34 -17z"/>
</g>
</svg>
