<?xml version="1.0" encoding="UTF-8" standalone="no"?>
<!DOCTYPE svg PUBLIC "-//W3C//DTD SVG 1.1//EN" "http://www.w3.org/Graphics/SVG/1.1/DTD/svg11.dtd">
<!-- Created with Vectornator (http://vectornator.io/) -->
<svg height="100%" stroke-miterlimit="10" style="fill-rule:nonzero;clip-rule:evenodd;stroke-linecap:round;stroke-linejoin:round;" version="1.1" viewBox="0 0 32 32" width="100%" xml:space="preserve" xmlns="http://www.w3.org/2000/svg" xmlns:vectornator="http://vectornator.io" xmlns:xlink="http://www.w3.org/1999/xlink">
<defs/>
<clipPath id="ArtboardFrame">
<rect height="32" width="32" x="0" y="0"/>
</clipPath>
<g clip-path="url(#ArtboardFrame)" id="Layer-1" vectornator:layerName="Layer-1">
<g opacity="1">
<path d="M16.8665 22.7257C16.7299 22.5892 16.8102 22.3424 16.8088 22.1494C16.8005 20.9774 16.7987 19.8053 16.78 18.6335C16.7728 18.1786 16.2394 18.0283 15.8866 18.0283C15.806 18.0283 15.7367 18.0442 15.6771 18.0726C15.2879 18.2582 15.3127 18.9762 15.3102 19.2675C15.3008 20.4011 15.2814 21.5346 15.2814 22.6681C15.2814 22.6896 15.3006 22.7065 15.3102 22.7257C15.2814 22.7546 15.2814 22.7546 15.2526 22.7834C12.7023 20.2331 8.81258 19.1286 5.33889 18.7199C4.24561 18.5913 3.15903 18.6046 2.05353 18.6046C2.03204 18.6046 2.01509 18.6238 1.99589 18.6335C1.86523 18.5028 1.83353 18.0522 1.79416 17.8553C1.62517 17.0105 1.56332 16.1798 1.50597 15.3193C1.47277 14.8216 1.04372 14.2246 0.468491 14.4547C-0.104775 14.6841 0.00738871 15.3515 0.00738871 15.8669C0.00738871 16.4243 0.0726921 16.9868 0.151483 17.5383C0.568032 20.4541 1.81295 23.2901 3.69621 25.55C8.9482 31.8523 18.1099 33.2322 24.9646 28.6624C28.6065 26.2345 30.8924 22.5682 31.737 18.3453C31.9645 17.2079 31.9985 16.2308 31.9985 15.0572C31.9985 14.9746 31.9856 14.777 31.8911 14.6201C31.7898 14.4521 31.642 14.4163 31.5511 14.3981C30.6636 14.2212 30.5765 15.5638 30.5266 16.2127C30.4886 16.7067 30.4134 17.1954 30.3249 17.6824C30.2974 17.8336 30.2452 18.5687 30.0655 18.6046C29.5191 18.7139 28.9512 18.5758 28.394 18.5758C27.6143 18.5758 26.7888 18.6726 26.002 18.7775C22.6207 19.2284 19.4779 20.5494 16.8665 22.7257Z" fill="#294043" fill-rule="nonzero" opacity="1" stroke="none"/>
<path d="M13.9514 17.7934C13.8404 17.5713 13.5352 17.4004 13.3462 17.2458C12.7245 16.7371 12.0742 16.2751 11.3865 15.8625C9.07016 14.4727 6.23895 13.4637 4.95991 10.9057C4.98873 10.8768 4.76825 10.6862 5.03733 10.7657C5.46633 11.1948 5.98198 11.7262 6.48379 12.0607C7.06411 12.4476 7.51705 12.847 8.12102 13.1809C8.84362 13.5803 9.60884 13.9576 10.3214 14.3851C11.3151 14.9813 12.4667 15.2151 13.3462 16.0066C13.5707 15.8569 13.2318 15.2162 13.1445 14.9979C12.9175 14.4305 12.7506 13.5866 12.6603 13.4028C12.5282 13.1338 12.1479 12.5984 11.9634 12.1183C10.5886 8.53887 7.54033 7.42509 3.95125 7.15919C3.64468 7.13648 3.33608 7.14424 3.02905 7.15919C2.68627 7.17595 1.1674 7.28886 0.925268 7.59148C0.815464 7.72878 0.907228 8.70384 0.925268 8.97482C0.995351 10.0262 1.18418 11.048 1.47283 12.0584C2.24477 14.7603 4.15333 17.3982 6.9484 18.1968C8.3019 18.5835 9.75517 18.4656 11.1272 18.2545C11.8076 18.1498 12.4901 18.0517 13.1733 17.9663C13.3995 17.938 13.7778 17.967 13.9514 17.7934Z" fill="#bccac7" fill-rule="nonzero" opacity="1" stroke="none"/>
<path d="M18.6777 16.0066C18.9685 15.8612 19.2501 15.6519 19.5307 15.4359C19.8114 15.22 20.091 14.9973 20.378 14.825C21.4774 14.1654 22.7119 13.7229 23.8267 13.1103C24.9415 12.4977 25.9366 11.7152 26.9776 10.9345L27.0208 10.9633L27.064 10.9921C26.9431 11.1131 26.8437 11.2672 26.7486 11.4257C26.7276 11.4606 26.7069 11.4957 26.6862 11.5308C26.6128 11.6548 26.5398 11.7776 26.4588 11.8855C26.2429 12.1733 26.0077 12.4505 25.7531 12.708C25.4985 12.9655 25.2246 13.2035 24.9314 13.4129C24.4464 13.7593 23.937 14.0609 23.418 14.3412C22.8991 14.6215 22.3706 14.8806 21.8478 15.1421C21.1879 15.472 20.5501 15.8784 19.9422 16.327C19.3344 16.7756 18.7565 17.2662 18.2166 17.7646C18.2818 17.8624 18.4744 17.9048 18.6804 17.9269C18.8865 17.9489 19.1061 17.9504 19.2253 17.9663C19.6878 18.028 20.1473 18.103 20.6073 18.1756C21.0673 18.2481 21.5277 18.3182 21.9919 18.3697C24.3566 18.6325 26.3339 17.9392 27.8301 16.6298C29.3263 15.3205 30.3414 13.3951 30.7817 11.1938C30.8896 10.6542 30.9632 10.1237 31.0162 9.58992C31.0693 9.05614 31.1018 8.51903 31.1275 7.96611C31.1303 7.90571 31.1506 7.83917 31.1601 7.77417C31.1696 7.70917 31.1682 7.64571 31.1275 7.59148C31.0238 7.45327 30.5579 7.35643 30.0807 7.29212C29.6034 7.22782 29.1149 7.19606 28.9661 7.18802C28.8557 7.18205 28.7452 7.17704 28.6347 7.17243C28.5242 7.16782 28.4137 7.1636 28.3033 7.15919C28.2937 7.15881 28.284 7.15934 28.2744 7.1597C28.2647 7.16006 28.2551 7.16025 28.2456 7.15919C27.1808 7.0409 25.9069 7.2629 24.7076 7.70607C23.5084 8.14924 22.3837 8.81359 21.6173 9.58001C21.2458 9.95144 20.8343 10.4863 20.6383 11.0073C20.4422 11.5283 20.1356 11.9601 19.908 12.4154C19.6858 12.8598 19.5047 13.2105 19.2611 13.651C19.0175 14.0916 18.9354 14.7042 18.7775 15.1778C18.7457 15.2733 18.7338 15.4094 18.6754 15.5785C18.6169 15.7476 18.6138 15.9427 18.6777 16.0066Z" fill="#bccac7" fill-rule="nonzero" opacity="1" stroke="none"/>
<path d="M15.5076 14.3063C15.623 14.1909 15.5378 14.0857 15.5365 13.9316C15.5178 11.7895 15.5076 9.64725 15.5076 7.50504C15.5076 6.9933 15.617 5.83942 16.0264 5.43007C16.2331 5.63681 16.3762 6.27956 16.459 6.85268C16.515 7.24095 16.5434 7.59726 16.5451 7.76438C16.5628 9.46466 16.574 11.165 16.574 12.8654C16.574 13.4015 16.3533 13.7398 16.6604 14.0469C16.8056 13.9017 16.8274 13.6032 16.9486 13.4417C17.2196 13.0804 17.4225 12.6561 17.6979 12.2889C18.2121 11.6033 19.153 10.7626 19.3694 9.89702C19.5318 9.24723 19.8357 8.65718 19.9169 7.96611C20.1105 6.32063 19.7164 4.87006 18.8218 3.52802C18.2585 2.68305 17.5747 1.91145 16.8045 1.25133C16.6875 1.15104 16.1941 0.604171 16.0264 0.646131C15.8605 0.687572 15.6651 0.917893 15.5365 1.02078C14.8742 1.55053 14.2787 2.14627 13.7497 2.80755C12.2094 4.733 11.6131 7.25007 12.5681 9.63762C12.9853 10.6807 13.826 11.5314 14.4701 12.4331C14.7653 12.8462 15.0215 13.2764 15.2483 13.7299C15.3436 13.9206 15.3504 14.1491 15.5076 14.3063Z" fill="#bccac7" fill-rule="nonzero" opacity="1" stroke="none"/>
<path d="M16.0264 27.3901C16.6704 26.8749 17.1709 25.9574 17.7555 25.3727C19.3947 23.7336 21.6114 22.7148 23.8075 22.0874C25.0688 21.727 26.4444 21.4361 27.7557 21.3958C28.2358 21.381 28.717 21.3946 29.1966 21.3669C29.2238 21.3654 29.238 21.331 29.2542 21.3093C29.3661 21.1602 29.7127 20.4257 29.6865 20.243C29.6387 19.9081 29.2138 20.0212 28.882 20.0127C27.933 19.9883 26.7902 20.1592 25.8536 20.3294C22.0474 21.0215 18.5316 22.5655 16.0552 25.6609C15.3549 25.0243 14.782 24.2678 14.0378 23.6725C12.0408 22.0748 9.68455 21.0323 7.17897 20.5312C6.09532 20.3145 5.03086 20.1704 3.92243 20.1277C3.46513 20.1101 2.88956 20.0718 2.42385 20.1277C2.24033 20.1497 2.74034 21.1933 2.82732 21.3093C2.84362 21.331 2.8578 21.3659 2.88495 21.3669C3.33608 21.3853 3.78802 21.3595 4.23944 21.3669C5.38984 21.3857 6.64527 21.5973 7.75532 21.9145C10.951 22.8275 14.1261 24.5397 16.0264 27.3901Z" fill="#fefbf5" fill-rule="nonzero" opacity="1" stroke="none"/>
<path d="M3.7207 22.8655C3.56254 22.8626 4.26688 23.8521 4.39527 24.0353C4.49018 24.1706 4.84481 24.1789 5.01755 24.1912C5.34534 24.2146 5.67312 24.2524 5.9974 24.3065C7.21819 24.5099 8.37158 24.8873 9.51328 25.3439C10.9585 25.9221 12.5202 27.0905 13.4903 28.2546C13.5874 28.3712 14.5225 29.6716 14.5638 29.6853C14.5977 29.6966 14.7463 29.8214 14.9205 29.8846C15.0676 29.938 15.2436 29.9328 15.2771 29.9261C15.457 29.8902 15.3841 29.6464 15.3918 29.463C15.407 29.0958 15.1457 28.7658 14.9601 28.4564C14.4538 27.6126 13.794 26.8627 13.058 26.2085C10.5095 23.9431 7.05574 22.927 3.7207 22.8655Z" fill="#fefbf5" fill-rule="nonzero" opacity="1" stroke="none"/>
<path d="M17.5877 29.7514C17.8536 29.4854 18.125 28.8956 18.3895 28.5428C19.061 27.6476 19.6334 26.9224 20.7609 26.0679C21.0026 25.8848 22.0066 25.2011 22.6707 25.0244C23.3869 24.8339 23.6429 24.7731 23.8416 24.7281C24.6486 24.5454 25.0218 24.5114 25.8391 24.4003C26.3891 24.3255 26.9751 24.2462 27.5251 24.1912C27.5465 24.1891 27.566 24.1758 27.5828 24.1624C27.8212 23.9716 27.9421 23.8059 28.0999 23.5129C28.183 23.3588 28.4644 22.9736 28.4892 22.8128C28.3916 22.7152 28.1045 22.7663 27.9206 22.7751C27.6302 22.789 27.4443 22.8281 27.2673 22.8427C26.8776 22.8748 26.0109 23.0387 25.3637 23.1825C22.5731 23.8026 20.1973 24.9771 18.159 27.0154C17.6953 27.4791 16.9466 28.3203 16.7757 29.0039C16.7418 29.1394 16.6327 29.4838 16.6609 29.6625C16.6849 29.8144 16.7702 29.8842 17.0132 29.9352C17.2008 29.9747 17.3271 29.8942 17.5877 29.7514Z" fill="#fefbf5" fill-rule="nonzero" opacity="1" stroke="none"/>
<path d="M18.7354 16.0066C18.6032 15.8744 18.7701 15.4238 18.9182 14.9936C19.0508 14.6089 19.2677 14.0841 19.4317 13.6984C19.6185 13.2591 19.6424 13.1352 19.9074 12.603C20.1617 12.0923 20.3122 11.9341 20.5656 11.4826C20.7582 11.1394 20.8928 10.9604 21.2082 10.3756C21.3837 10.0502 21.5571 9.81238 21.8192 9.41922C21.4998 9.40086 20.0055 10.9767 19.8593 11.1362C18.8133 12.2772 17.7693 14.1003 17.669 15.6031C17.6533 15.8391 17.4477 16.991 17.5538 17.0441C17.6177 17.076 17.671 16.9899 17.6979 16.9576C18.0205 16.5705 18.4154 16.3265 18.7354 16.0066Z" fill="#294049" fill-rule="nonzero" opacity="1" stroke="none"/>
<path d="M10.3817 9.62438C11.0103 10.253 11.7289 11.8184 11.9493 12.2847C12.1704 12.7526 12.4077 13.2965 12.5978 13.6753C12.6071 13.6937 12.9176 14.4376 13.0135 14.7367C13.1498 15.1616 13.1733 15.6078 13.375 15.9778C13.5965 16.3839 14.1434 16.6116 14.4125 17.0152C14.6499 16.8571 14.4217 15.6535 14.3549 15.2861C14.054 13.6314 13.113 12.1295 11.9341 10.848C11.7823 10.683 11.6315 10.5167 11.473 10.3581C11.3532 10.2383 10.6249 9.61545 10.3817 9.62438Z" fill="#294049" fill-rule="nonzero" opacity="1" stroke="none"/>
<path d="M19.5711 29.3786C19.7145 29.5936 20.8846 29.1125 21.1561 29.0039C22.9767 28.2757 24.5655 27.2486 26.0266 25.9203C25.8677 25.7615 24.6976 26.1271 24.4126 26.2085C22.558 26.7384 20.7763 27.8721 19.5711 29.3786Z" fill="#bccac7" fill-rule="nonzero" opacity="1" stroke="none"/>
<path d="M6.08385 25.9203C7.09984 27.2749 9.40744 28.3737 10.9831 29.0039C11.2231 29.1 12.5449 29.5747 12.6546 29.465C11.029 27.8394 9.7511 26.8281 7.58243 26.2085C7.35161 26.1426 6.18281 25.8214 6.08385 25.9203Z" fill="#bccac7" fill-rule="nonzero" opacity="1" stroke="none"/>
<path d="M16.574 13.9028C16.4888 13.988 16.4574 14.1898 16.5451 14.2775C16.6341 14.1885 16.6347 14.1272 16.6892 14.0181C16.6316 13.9605 16.6316 13.9605 16.574 13.9028Z" fill="#b2b3ad" fill-rule="nonzero" opacity="1" stroke="none"/>
<path d="M15.3407 19.3371C14.1294 18.084 12.9626 16.7451 11.4141 15.9103C9.84636 15.065 7.71667 14.1298 6.396 12.8268C5.66268 12.1032 5.34642 11.6784 4.79349 11.0688C4.59589 10.8509 4.31641 10.6224 4.35641 10.4686C4.36565 10.4331 4.62671 10.4707 4.89705 10.6087C5.16739 10.7467 5.45111 10.9883 5.45111 10.9883C5.62531 11.125 6.55616 12.0849 7.90464 12.8973C8.27777 13.1221 8.74558 13.4825 10.4183 14.3198C11.3503 14.7863 12.2975 15.2405 12.869 15.6071C13.4982 16.0106 14.1035 16.4988 14.6994 16.9916C15.1207 17.3402 15.5373 17.691 15.9542 18.0159C15.856 18.0701 15.7085 18.0705 15.6448 18.1217C15.2886 18.4083 15.4022 18.6386 15.3407 19.3371Z" fill="#294049" fill-rule="nonzero" opacity="1" stroke="none"/>
<path d="M27.0729 10.8658C27.4631 10.6739 27.0911 11.1278 26.9758 11.2842C26.8557 11.4471 26.644 11.7695 26.4699 11.9691C26.2958 12.1687 26.1709 12.3365 25.9675 12.534C25.738 12.7569 25.6748 12.8366 25.359 13.0772C25.0966 13.277 25.0844 13.3062 24.7535 13.539C24.375 13.8051 24.3612 13.7973 24.0141 14.0077C23.7683 14.1567 23.6553 14.2137 23.5043 14.3023C23.1536 14.5081 22.8324 14.6345 22.4359 14.8382C22.1492 14.9856 21.8402 15.1206 21.6396 15.2431C21.4416 15.3639 20.9966 15.5995 20.7239 15.7866C19.3037 16.761 17.9606 18.1772 16.6207 19.2593C16.6196 19.2221 16.7758 18.9136 16.7748 18.8814C16.7704 18.7265 16.765 18.6231 16.7261 18.5092C16.6481 18.2809 16.5872 18.2459 16.5495 18.2119C16.4945 18.1622 16.4004 18.1249 16.2423 18.0696C17.539 17.0738 18.7964 15.8307 20.1103 14.9871C20.1664 14.9511 20.2975 14.8651 20.2975 14.8651C20.2975 14.8651 20.5936 14.6768 20.7458 14.5863C21.5125 14.1306 22.8404 13.6224 23.6127 13.19C24.7239 12.5677 25.3167 12.0414 26.2351 11.4533C26.2351 11.4533 26.7196 11.1073 26.7729 11.0708C26.8262 11.0343 27.0729 10.8658 27.0729 10.8658Z" fill="#294049" fill-rule="nonzero" opacity="1" stroke="none"/>
<path d="M16.083 4.76898C16.2626 4.81075 16.4199 5.31414 16.4861 5.87296C16.5797 6.66381 16.5738 8.20961 16.5878 9.50374C16.5946 10.1256 16.602 10.7548 16.6099 11.3887L16.6639 14.5352L16.7157 18.4607C16.6677 18.3254 16.3289 18.2333 16.0635 18.229C15.798 18.2247 15.4658 18.3164 15.3821 18.4534C15.3784 16.5041 15.4383 14.4196 15.4376 12.4704C15.4372 11.0822 15.4237 9.69382 15.4453 8.30579C15.4521 7.87181 15.476 7.1763 15.5273 6.52678C15.5517 6.21826 15.5969 5.80405 15.6611 5.55252C15.7394 5.2458 15.8238 4.78117 16.083 4.76898Z" fill="#294049" fill-rule="nonzero" opacity="1" stroke="none"/>
<path d="M15.0118 17.8917C15.0118 17.8917 11.9223 18.2334 10.3233 18.3781C8.97723 18.4998 8.24198 18.5693 6.66301 18.1229C5.08404 17.6764 4.08405 16.4637 4.08405 16.4637C4.08405 16.4637 3.25609 15.7125 2.66217 14.7111C2.06825 13.7097 1.78608 13.0816 1.46565 12.088C1.27304 11.4907 1.11324 10.6629 1.03424 10.1665C0.872648 9.1514 0.88869 9.12261 0.868226 8.46249C0.847762 7.80236 0.930673 7.32829 1.03893 7.81922C1.21758 8.62933 1.33086 9.34798 1.61068 10.2531C2.00239 11.5202 2.13557 11.9603 2.62542 13.0921C2.8286 13.5615 3.44628 14.7183 4.9878 15.9186C5.70398 16.4763 5.97527 16.7908 7.32318 17.2071C8.6711 17.6234 8.85901 17.5428 10.2219 17.6903C11.1003 17.7854 11.8988 17.7534 12.4541 17.7885C13.3264 17.8436 15.0118 17.8917 15.0118 17.8917Z" fill="#294043" fill-rule="nonzero" opacity="1" stroke="none"/>
<path d="M22.1676 25.982" fill="#bccac7" fill-rule="nonzero" opacity="1" stroke="none"/>
<path d="M8.16531 17.428" fill="#bccac7" fill-rule="nonzero" opacity="1" stroke="none"/>
<path d="M5.46145 16.1075" fill="#bccac7" fill-rule="nonzero" opacity="1" stroke="none"/>
<path d="M17.7556 17.6619C18.7428 18.0674 19.6499 18.3356 22.0012 18.4832C24.0591 18.6125 25.7103 18.2787 27.585 16.9983C28.8509 16.1336 29.4745 14.8387 29.4745 14.8387C29.4745 14.8387 30.0659 14.0193 30.3613 13.071C31.1249 10.6193 31.0481 10.5533 31.1497 9.12642C31.256 7.63442 31.208 7.80409 31.1489 7.6528C31.0898 7.50151 30.9092 8.2599 30.6975 9.22263C30.4041 10.5562 30.2487 11.2184 30.0133 11.9694C29.7735 12.7347 29.6028 13.2054 28.8341 14.3729C28.4338 14.9808 27.9681 15.5773 26.7442 16.4015C26.033 16.8805 25.4714 17.2018 24.459 17.4342C23.0849 17.7498 22.307 17.8668 20.6882 17.8483" fill="#294043" fill-rule="nonzero" opacity="1" stroke="none"/>
<path d="M16.5994 14.1275C16.7089 13.947 17.4226 12.7554 17.5438 12.6206C18.4104 11.6566 18.6547 11.6199 19.1945 10.5192C19.3645 10.1725 19.5547 9.70399 19.5551 9.29034C19.5553 9.10952 19.3187 9.59775 18.9329 10.2454C18.6221 10.7672 17.9452 11.2492 17.1499 12.5853C16.8622 13.0687 16.6865 13.5272 16.6564 13.5921C16.4797 13.9739 16.3582 14.5255 16.5994 14.1275Z" fill="#294043" fill-rule="nonzero" opacity="1" stroke="none"/>
<path d="M15.4768 14.2118C15.3992 14.2387 15.2175 13.629 14.8311 13.0174C14.4447 12.4059 14.5099 12.4613 13.7645 11.5551C13.1969 10.8652 12.6203 9.88152 12.4315 9.3229C12.2841 8.88654 12.7467 9.55848 13.1432 10.0085C13.3455 10.2382 14.1014 11.1183 14.3684 11.5163C14.9437 12.3741 14.9693 12.4941 15.1416 12.9098C15.4783 13.722 15.5545 14.1848 15.4768 14.2118Z" fill="#294043" fill-rule="nonzero" opacity="1" stroke="none"/>
<path d="M17.4264 14.665" fill="#294043" fill-rule="nonzero" opacity="1" stroke="none"/>
</g>
</g>
</svg>
