<?xml version="1.0" encoding="UTF-8" standalone="no"?>
<!DOCTYPE svg PUBLIC "-//W3C//DTD SVG 1.1//EN" "http://www.w3.org/Graphics/SVG/1.1/DTD/svg11.dtd">
<!-- Created with Vectornator (http://vectornator.io/) -->
<svg height="100%" stroke-miterlimit="10" style="fill-rule:nonzero;clip-rule:evenodd;stroke-linecap:round;stroke-linejoin:round;" version="1.1" viewBox="0 0 192 192" width="100%" xml:space="preserve" xmlns="http://www.w3.org/2000/svg" xmlns:vectornator="http://vectornator.io" xmlns:xlink="http://www.w3.org/1999/xlink">
<defs/>
<g id="Layer-1" vectornator:layerName="Layer-1">
<g opacity="1">
<path d="M101.147 136.378C100.328 135.559 100.81 134.08 100.801 132.923C100.751 125.897 100.741 118.87 100.629 111.845C100.585 109.118 97.3876 108.217 95.2726 108.217C94.7896 108.217 94.3742 108.313 94.017 108.483C91.6837 109.595 91.8321 113.9 91.8175 115.646C91.7608 122.442 91.6446 129.237 91.6446 136.032C91.6446 136.161 91.7597 136.263 91.8175 136.378C91.6446 136.551 91.6446 136.551 91.4721 136.723C76.183 121.435 52.865 114.813 32.0407 112.363C25.4867 111.592 18.9728 111.672 12.3454 111.672C12.2166 111.672 12.115 111.788 11.9999 111.845C11.2166 111.062 11.0266 108.36 10.7906 107.18C9.77748 102.116 9.40673 97.1359 9.06294 91.9772C8.86389 88.9934 6.29176 85.4149 2.84338 86.7941C-0.593269 88.1692 0.0791338 92.1703 0.0791338 95.2598C0.0791338 98.6018 0.470618 101.974 0.942959 105.28C3.44011 122.76 10.9032 139.761 22.1931 153.309C53.678 191.09 108.601 199.363 149.694 171.967C171.527 157.413 185.23 135.434 190.294 110.118C191.657 103.299 191.861 97.4417 191.861 90.4061C191.861 89.9106 191.784 88.7261 191.217 87.7854C190.61 86.7785 189.724 86.5638 189.179 86.4551C183.859 85.3946 183.337 93.443 183.037 97.3328C182.81 100.294 182.359 103.224 181.828 106.144C181.664 107.05 181.35 111.457 180.273 111.672C176.998 112.328 173.593 111.5 170.253 111.5C165.578 111.5 160.63 112.08 155.913 112.709C135.643 115.412 116.802 123.331 101.147 136.378Z" fill="#294043" fill-rule="nonzero" opacity="1" stroke="none"/>
<path d="M83.6715 106.809C83.0059 105.477 81.1763 104.453 80.0435 103.526C76.3164 100.477 72.418 97.707 68.2954 95.2339C54.4091 86.902 37.4365 80.8534 29.7688 65.5182C29.9416 65.3453 28.6198 64.2024 30.2329 64.6791C32.8047 67.2512 35.8959 70.4369 38.9042 72.4423C42.3831 74.7617 45.0984 77.1565 48.7192 79.1578C53.051 81.5523 57.6385 83.8139 61.9104 86.3771C67.8671 89.9508 74.7711 91.3524 80.0435 96.0975C81.3893 95.2001 79.3576 91.3595 78.8341 90.0508C77.4732 86.6488 76.4726 81.5897 75.9314 80.488C75.1394 78.8758 72.8595 75.6661 71.7538 72.7874C63.5119 51.3296 45.238 44.6526 23.722 43.0586C21.8841 42.9224 20.0342 42.9689 18.1935 43.0586C16.1387 43.1591 7.03323 43.8359 5.58169 45.6501C4.92343 46.4732 5.47354 52.3186 5.58169 53.943C6.00182 60.2458 7.13381 66.3717 8.86423 72.4289C13.4919 88.6262 24.9334 104.44 41.6895 109.228C49.8035 111.546 58.5157 110.839 66.7407 109.573C70.8194 108.946 74.9113 108.358 79.007 107.846C80.3629 107.676 82.6309 107.85 83.6715 106.809Z" fill="#bccac7" fill-rule="nonzero" opacity="1" stroke="none"/>
<path d="M112.005 96.0975C113.748 95.226 115.436 93.9714 117.119 92.6766C118.801 91.3817 120.478 90.0467 122.198 89.0143C128.789 85.06 136.189 82.4068 142.872 78.7347C149.555 75.0625 155.521 70.3713 161.762 65.6911L162.021 65.8638L162.28 66.0364C161.555 66.7615 160.959 67.6856 160.389 68.6358C160.263 68.845 160.139 69.0556 160.015 69.2655C159.575 70.0089 159.137 70.7451 158.652 71.392C157.358 73.1177 155.947 74.7791 154.421 76.323C152.895 77.8668 151.253 79.2931 149.495 80.5485C146.588 82.6252 143.533 84.4331 140.422 86.1136C137.311 87.7941 134.144 89.3473 131.009 90.9148C127.053 92.8925 123.23 95.3291 119.586 98.0182C115.942 100.707 112.477 103.649 109.241 106.636C109.632 107.223 110.786 107.477 112.021 107.609C113.257 107.741 114.573 107.75 115.288 107.846C118.06 108.215 120.815 108.665 123.573 109.1C126.33 109.535 129.09 109.955 131.873 110.264C146.049 111.839 157.903 107.683 166.873 99.8337C175.842 91.9844 181.927 80.4422 184.567 67.2458C185.213 64.0106 185.655 60.8305 185.973 57.6305C186.291 54.4305 186.485 51.2107 186.64 47.8959C186.656 47.5339 186.778 47.135 186.835 46.7453C186.892 46.3557 186.883 45.9752 186.64 45.6501C186.018 44.8216 183.225 44.241 180.364 43.8555C177.503 43.47 174.574 43.2796 173.682 43.2314C173.02 43.1956 172.358 43.1656 171.696 43.138C171.033 43.1103 170.371 43.085 169.709 43.0586C169.651 43.0563 169.593 43.0595 169.536 43.0617C169.478 43.0638 169.42 43.0649 169.363 43.0586C162.98 42.3495 155.343 43.6803 148.154 46.3371C140.964 48.9938 134.222 52.9765 129.627 57.571C127.4 59.7977 124.934 63.0044 123.758 66.1277C122.583 69.251 120.745 71.8396 119.38 74.5688C118.048 77.2331 116.963 79.3354 115.502 81.9763C114.042 84.6172 113.55 88.2897 112.604 91.1289C112.413 91.7013 112.341 92.5175 111.991 93.5312C111.64 94.5449 111.622 95.7144 112.005 96.0975Z" fill="#bccac7" fill-rule="nonzero" opacity="1" stroke="none"/>
<path d="M93.0009 85.9045C93.6927 85.2127 93.1816 84.5823 93.1737 83.6583C93.062 70.8164 93.0009 57.9742 93.0009 45.1319C93.0009 42.0641 93.6567 35.1467 96.1106 32.6928C97.35 33.9321 98.2078 37.7854 98.7039 41.2211C99.04 43.5487 99.2101 45.6848 99.2204 46.6866C99.3262 56.8796 99.3933 67.0729 99.3933 77.2663C99.3933 80.4803 98.0703 82.5086 99.9115 84.3494C100.782 83.4791 100.913 81.6896 101.639 80.7214C103.264 78.5555 104.48 76.0119 106.131 73.8107C109.214 69.7005 114.854 64.6602 116.152 59.4715C117.125 55.5761 118.947 52.0388 119.434 47.8959C120.594 38.0316 118.232 29.3356 112.869 21.2903C109.492 16.2248 105.392 11.5992 100.775 7.64181C100.074 7.04059 97.1164 3.76219 96.1106 4.01374C95.1165 4.26217 93.9447 5.64291 93.1737 6.25968C89.2037 9.43548 85.6334 13.0069 82.4621 16.9711C73.2284 28.5139 69.6536 43.6034 75.379 57.9164C77.8801 64.1694 82.92 69.2692 86.7813 74.6747C88.5505 77.1515 90.0868 79.7303 91.4461 82.449C92.0176 83.5923 92.0581 84.9618 93.0009 85.9045Z" fill="#bccac7" fill-rule="nonzero" opacity="1" stroke="none"/>
<path d="M96.1106 164.34C99.9715 161.251 102.972 155.751 106.476 152.246C116.303 142.42 129.592 136.313 142.757 132.551C150.318 130.391 158.565 128.647 166.426 128.405C169.305 128.316 172.189 128.398 175.064 128.232C175.227 128.223 175.312 128.017 175.41 127.887C176.08 126.993 178.158 122.589 178.001 121.494C177.714 119.486 175.167 120.165 173.178 120.113C167.489 119.967 160.638 120.992 155.023 122.012C132.206 126.161 111.129 135.417 96.2835 153.974C92.0851 150.157 88.651 145.622 84.1897 142.053C72.2174 132.475 58.0923 126.226 43.0717 123.222C36.5754 121.923 30.1941 121.059 23.5492 120.803C20.8078 120.698 17.3573 120.468 14.5655 120.803C13.4653 120.935 16.4628 127.191 16.9842 127.887C17.0819 128.017 17.167 128.226 17.3297 128.232C20.0342 128.342 22.7435 128.188 25.4497 128.232C32.3461 128.345 39.8723 129.613 46.5269 131.515C65.6847 136.988 84.7188 147.252 96.1106 164.34Z" fill="#fefbf5" fill-rule="nonzero" opacity="1" stroke="none"/>
<path d="M22.3399 137.216C21.3918 137.198 25.6142 143.13 26.3839 144.228C26.9528 145.04 29.0788 145.089 30.1143 145.163C32.0794 145.303 34.0444 145.53 35.9884 145.854C43.3068 147.074 50.2213 149.336 57.0656 152.073C65.7297 155.539 75.0917 162.544 80.9074 169.523C81.4894 170.221 87.0951 178.017 87.343 178.1C87.5462 178.167 88.4366 178.915 89.4813 179.294C90.363 179.614 91.4182 179.583 91.6186 179.543C92.6975 179.328 92.2601 177.866 92.3062 176.767C92.3977 174.565 90.8312 172.587 89.7182 170.732C86.683 165.674 82.728 161.178 78.3159 157.256C63.0377 143.676 42.333 137.584 22.3399 137.216Z" fill="#fefbf5" fill-rule="nonzero" opacity="1" stroke="none"/>
<path d="M105.47 178.495C107.065 176.901 108.692 173.365 110.277 171.25C114.303 165.884 117.734 161.536 124.494 156.414C125.942 155.316 131.961 151.217 135.942 150.158C140.236 149.016 141.771 148.651 142.962 148.382C147.8 147.287 150.037 147.083 154.937 146.417C158.234 145.968 161.747 145.493 165.044 145.163C165.172 145.15 165.289 145.071 165.39 144.99C166.819 143.847 167.544 142.853 168.49 141.097C168.988 140.173 170.675 137.863 170.824 136.9C170.239 136.315 168.517 136.621 167.415 136.674C165.674 136.757 164.56 136.992 163.498 137.079C161.162 137.272 155.967 138.254 152.086 139.116C135.357 142.834 121.115 149.874 108.895 162.094C106.116 164.873 101.627 169.916 100.603 174.015C100.399 174.827 99.7455 176.892 99.9146 177.963C100.058 178.873 100.57 179.292 102.026 179.598C103.151 179.834 103.908 179.352 105.47 178.495Z" fill="#fefbf5" fill-rule="nonzero" opacity="1" stroke="none"/>
<path d="M112.351 96.0975C111.558 95.3051 112.559 92.6036 113.447 90.025C114.241 87.7186 115.542 84.5726 116.525 82.26C117.645 79.6265 117.788 78.8841 119.377 75.6936C120.901 72.6318 121.804 71.6833 123.323 68.9766C124.477 66.9195 125.284 65.846 127.175 62.3406C128.227 60.39 129.266 58.9641 130.838 56.6071C128.923 56.4971 119.965 65.9442 119.089 66.9004C112.818 73.7406 106.559 84.6697 105.958 93.6788C105.864 95.0937 104.631 101.999 105.267 102.317C105.65 102.509 105.97 101.992 106.131 101.799C108.065 99.478 110.433 98.0156 112.351 96.0975Z" fill="#294049" fill-rule="nonzero" opacity="1" stroke="none"/>
<path d="M62.2715 57.8371C66.0401 61.6057 70.348 70.9899 71.6689 73.7852C72.9946 76.5906 74.4173 79.8511 75.5569 82.1216C75.6123 82.2321 77.4741 86.6919 78.049 88.4845C78.8661 91.0321 79.0066 93.7069 80.2163 95.925C81.5442 98.3594 84.8223 99.7244 86.4359 102.144C87.8586 101.196 86.4906 93.9807 86.0902 91.7784C84.2865 81.8588 78.6455 72.8549 71.5781 65.1725C70.668 64.1832 69.7642 63.1861 68.8136 62.2355C68.0955 61.5174 63.7293 57.7835 62.2715 57.8371Z" fill="#294049" fill-rule="nonzero" opacity="1" stroke="none"/>
<path d="M117.361 176.261C118.22 177.55 125.235 174.666 126.863 174.015C137.777 169.649 147.301 163.491 156.06 155.529C155.108 154.577 148.093 156.769 146.385 157.256C135.267 160.433 124.586 167.229 117.361 176.261Z" fill="#bccac7" fill-rule="nonzero" opacity="1" stroke="none"/>
<path d="M36.5066 155.529C42.5973 163.65 56.4311 170.236 65.8767 174.015C67.3159 174.59 75.2395 177.437 75.8972 176.779C66.152 167.034 58.4913 160.971 45.4904 157.256C44.1067 156.861 37.0999 154.936 36.5066 155.529Z" fill="#bccac7" fill-rule="nonzero" opacity="1" stroke="none"/>
<path d="M99.3933 83.4858C98.8826 83.9966 98.6947 85.2063 99.2204 85.7317C99.7537 85.1984 99.7574 84.8306 100.084 84.1769C99.7387 83.8312 99.7387 83.8312 99.3933 83.4858Z" fill="#b2b3ad" fill-rule="nonzero" opacity="1" stroke="none"/>
<path d="M92.0001 116.064C84.7385 108.551 77.7437 100.525 68.4609 95.5201C59.0623 90.4531 46.2952 84.8465 38.3779 77.0348C33.9818 72.6973 32.0859 70.1506 28.7712 66.4961C27.5865 65.19 25.9111 63.8203 26.1509 62.8981C26.2063 62.6853 27.7713 62.9104 29.3919 63.7378C31.0126 64.5651 32.7135 66.0137 32.7135 66.0137C33.7578 66.8331 39.3381 72.5876 47.422 77.4576C49.6589 78.8052 52.4633 80.966 62.491 85.9852C68.0784 88.7819 73.7568 91.5049 77.1828 93.7024C80.9547 96.1216 84.5835 99.0481 88.1555 102.003C90.6814 104.092 93.1788 106.195 95.6782 108.143C95.0892 108.468 94.2048 108.47 93.8232 108.777C91.6877 110.496 92.3687 111.876 92.0001 116.064Z" fill="#294049" fill-rule="nonzero" opacity="1" stroke="none"/>
<path d="M162.333 65.2795C164.672 64.1287 162.442 66.8501 161.751 67.7875C161.031 68.7637 159.762 70.6968 158.718 71.8934C157.675 73.09 156.925 74.0956 155.706 75.2799C154.331 76.6162 153.951 77.0939 152.058 78.536C150.486 79.734 150.412 79.9092 148.428 81.3043C146.16 82.8996 146.077 82.8531 143.996 84.1145C142.522 85.0075 141.845 85.3493 140.94 85.8804C138.837 87.1143 136.912 87.8722 134.535 89.0933C132.816 89.9766 130.964 90.786 129.761 91.5202C128.574 92.2445 125.906 93.6572 124.271 94.7788C115.758 100.62 107.706 109.11 99.6734 115.597C99.6667 115.374 100.603 113.525 100.598 113.331C100.571 112.403 100.539 111.783 100.305 111.1C99.8381 109.732 99.4728 109.522 99.2469 109.318C98.9168 109.02 98.3531 108.796 97.405 108.465C105.179 102.495 112.716 95.0433 120.593 89.986C120.93 89.7698 121.716 89.2543 121.716 89.2543C121.716 89.2543 123.491 88.1255 124.403 87.5833C128.999 84.8514 136.96 81.8046 141.589 79.2123C148.251 75.4819 151.805 72.3268 157.31 68.801C157.31 68.801 160.215 66.7268 160.535 66.5079C160.854 66.2891 162.333 65.2795 162.333 65.2795Z" fill="#294049" fill-rule="nonzero" opacity="1" stroke="none"/>
<path d="M96.45 28.7296C97.5267 28.98 98.4699 31.9978 98.8666 35.3478C99.428 40.0889 99.3925 49.3557 99.4765 57.1138C99.5169 60.842 99.5616 64.6136 99.609 68.4138L99.9323 87.2765L100.243 110.81C99.9551 109.998 97.9243 109.447 96.333 109.421C94.7417 109.395 92.7499 109.944 92.2483 110.766C92.2259 99.0801 92.5854 86.5839 92.5813 74.8985C92.5783 66.5764 92.4975 58.2533 92.6273 49.9323C92.6678 47.3306 92.8111 43.1612 93.1187 39.2674C93.2649 37.4179 93.5357 34.9347 93.9208 33.4269C94.3904 31.5881 94.8964 28.8027 96.45 28.7296Z" fill="#294049" fill-rule="nonzero" opacity="1" stroke="none"/>
<path d="M90.0287 107.398C90.0287 107.398 71.5071 109.447 61.9213 110.314C53.852 111.044 49.4443 111.461 39.9786 108.784C30.5129 106.108 24.5181 98.8379 24.5181 98.8379C24.5181 98.8379 19.5547 94.3347 15.9942 88.3314C12.4337 82.3281 10.7421 78.5628 8.82121 72.6059C7.66652 69.0252 6.70858 64.0628 6.23493 61.0872C5.26624 55.0016 5.36241 54.829 5.23973 50.8717C5.11705 46.9143 5.61409 44.0723 6.2631 47.0154C7.33404 51.8719 8.01316 56.18 9.69061 61.6061C12.0389 69.2021 12.8372 71.8406 15.7739 78.6253C16.9919 81.4395 20.6948 88.3746 29.936 95.5702C34.2294 98.9133 35.8557 100.799 43.9363 103.295C52.0168 105.79 53.1433 105.307 61.3135 106.191C66.5796 106.761 71.3662 106.569 74.6956 106.78C79.9246 107.11 90.0287 107.398 90.0287 107.398Z" fill="#294043" fill-rule="nonzero" opacity="1" stroke="none"/>
<path d="M132.926 155.898" fill="#bccac7" fill-rule="nonzero" opacity="1" stroke="none"/>
<path d="M48.9847 104.618" fill="#bccac7" fill-rule="nonzero" opacity="1" stroke="none"/>
<path d="M32.7755 96.7024" fill="#bccac7" fill-rule="nonzero" opacity="1" stroke="none"/>
<path d="M106.477 106.021C112.395 108.452 117.833 110.06 131.929 110.945C144.266 111.719 154.165 109.718 165.403 102.042C172.992 96.8591 176.73 89.0963 176.73 89.0963C176.73 89.0963 180.275 84.1841 182.046 78.4989C186.624 63.8014 186.164 63.4056 186.773 54.8519C187.41 45.9075 187.122 46.9246 186.768 46.0177C186.414 45.1107 185.331 49.6572 184.062 55.4286C182.303 63.4231 181.371 67.3932 179.96 71.8954C178.522 76.483 177.5 79.305 172.891 86.3039C170.491 89.9481 167.7 93.5238 160.363 98.4648C156.099 101.336 152.732 103.262 146.663 104.656C138.425 106.548 133.762 107.249 124.057 107.138" fill="#294043" fill-rule="nonzero" opacity="1" stroke="none"/>
<path d="M99.546 84.8328C100.202 83.7503 104.481 76.6069 105.207 75.799C110.402 70.0198 111.867 69.7997 115.103 63.2016C116.122 61.1228 117.262 58.3143 117.265 55.8345C117.266 54.7505 115.848 57.6774 113.535 61.56C111.672 64.6882 107.614 67.5775 102.846 75.5871C101.121 78.4855 100.068 81.2339 99.8877 81.6229C98.8284 83.9115 98.0996 87.2186 99.546 84.8328Z" fill="#294043" fill-rule="nonzero" opacity="1" stroke="none"/>
<path d="M92.8161 85.3377C92.3507 85.499 91.2615 81.8439 88.9451 78.1779C86.6287 74.5118 87.0198 74.8438 82.5508 69.4114C79.1483 65.2755 75.6918 59.3785 74.5601 56.0297C73.676 53.4138 76.4495 57.442 78.8262 60.1401C80.0391 61.517 84.571 66.793 86.1714 69.1791C89.6204 74.3214 89.7739 75.0408 90.8067 77.5325C92.825 82.4018 93.2815 85.1763 92.8161 85.3377Z" fill="#294043" fill-rule="nonzero" opacity="1" stroke="none"/>
<path d="M104.504 88.0549" fill="#294043" fill-rule="nonzero" opacity="1" stroke="none"/>
</g>
</g>
</svg>
