<?xml version="1.0" encoding="UTF-8" standalone="no"?>
<!DOCTYPE svg PUBLIC "-//W3C//DTD SVG 1.1//EN" "http://www.w3.org/Graphics/SVG/1.1/DTD/svg11.dtd">
<!-- Created with Vectornator (http://vectornator.io/) -->
<svg height="100%" stroke-miterlimit="10" style="fill-rule:nonzero;clip-rule:evenodd;stroke-linecap:round;stroke-linejoin:round;" version="1.1" viewBox="0 0 8 8" width="100%" xml:space="preserve" xmlns="http://www.w3.org/2000/svg" xmlns:vectornator="http://vectornator.io" xmlns:xlink="http://www.w3.org/1999/xlink">
<defs/>
<clipPath id="ArtboardFrame">
<rect height="8" width="8" x="0" y="0"/>
</clipPath>
<g clip-path="url(#ArtboardFrame)" id="Layer-1" vectornator:layerName="Layer-1">
<g opacity="1">
<path d="M4.2155 5.68144C4.18136 5.6473 4.20144 5.58561 4.20108 5.53735C4.199 5.24435 4.19857 4.95133 4.19389 4.65837C4.19208 4.54465 4.05873 4.50707 3.97053 4.50707C3.95039 4.50707 3.93307 4.51105 3.91817 4.51815C3.82087 4.56454 3.82705 4.74406 3.82644 4.81687C3.82408 5.10027 3.81924 5.38364 3.81924 5.66703C3.81924 5.6724 3.82404 5.67664 3.82644 5.68144C3.81924 5.68865 3.81924 5.68865 3.81204 5.69584C3.17445 5.05826 2.20203 4.78214 1.33361 4.67998C1.06029 4.64781 0.788644 4.65116 0.512269 4.65116C0.506896 4.65116 0.50266 4.65596 0.49786 4.65837C0.465194 4.6257 0.457269 4.51304 0.447428 4.46383C0.405179 4.25263 0.389717 4.04495 0.375381 3.82982C0.36708 3.70539 0.259816 3.55616 0.11601 3.61367C-0.0273066 3.67102 0.00073427 3.83787 0.00073427 3.96672C0.00073427 4.10608 0.0170601 4.2467 0.0367579 4.38458C0.140895 5.11353 0.452124 5.82252 0.92294 6.38751C2.23594 7.96308 4.52637 8.30805 6.24003 7.16561C7.15052 6.55863 7.72199 5.64206 7.93314 4.58632C7.99001 4.30196 7.99852 4.0577 7.99852 3.7643C7.99852 3.74364 7.99529 3.69424 7.97165 3.65501C7.94635 3.61303 7.9094 3.60407 7.88666 3.59954C7.66479 3.55531 7.64302 3.89095 7.63054 4.05316C7.62105 4.17667 7.60224 4.29885 7.58011 4.42061C7.57324 4.45839 7.56018 4.64218 7.51527 4.65116C7.37866 4.67848 7.2367 4.64395 7.09739 4.64395C6.90245 4.64395 6.69609 4.66816 6.4994 4.69438C5.65406 4.8071 4.86837 5.13736 4.2155 5.68144Z" fill="#294043" fill-rule="nonzero" opacity="1" stroke="none"/>
<path d="M3.48674 4.44835C3.45898 4.39282 3.38268 4.35011 3.33544 4.31145C3.18001 4.18428 3.01744 4.06877 2.84552 3.96563C2.26643 3.61817 1.55863 3.36593 1.23886 2.72642C1.24607 2.71921 1.19095 2.67155 1.25822 2.69143C1.36547 2.79869 1.49438 2.93154 1.61983 3.01517C1.76491 3.11189 1.87815 3.21176 2.02914 3.29522C2.20979 3.39508 2.4011 3.48939 2.57925 3.59629C2.82766 3.74532 3.11557 3.80377 3.33544 4.00165C3.39156 3.96423 3.30684 3.80406 3.28501 3.74949C3.22826 3.60762 3.18653 3.39664 3.16396 3.35069C3.13093 3.28346 3.03585 3.14961 2.98974 3.02956C2.64603 2.13472 1.88397 1.85627 0.986701 1.7898C0.910056 1.78412 0.832907 1.78606 0.756148 1.7898C0.670455 1.79399 0.290737 1.82221 0.230204 1.89787C0.202753 1.9322 0.225694 2.17596 0.230204 2.2437C0.247725 2.50655 0.294931 2.76201 0.367094 3.01461C0.560079 3.69008 1.03722 4.34956 1.73599 4.54921C2.07436 4.64589 2.43768 4.61639 2.78068 4.56362C2.95078 4.53745 3.12142 4.51293 3.29222 4.49157C3.34876 4.4845 3.44334 4.49174 3.48674 4.44835Z" fill="#bccac7" fill-rule="nonzero" opacity="1" stroke="none"/>
<path d="M4.66831 4.00165C4.74102 3.96531 4.81142 3.91298 4.88157 3.85899C4.95173 3.80499 5.02164 3.74931 5.0934 3.70626C5.36823 3.54136 5.67686 3.43071 5.95556 3.27758C6.23426 3.12444 6.48303 2.9288 6.74328 2.73363L6.75409 2.74083L6.7649 2.74803C6.73465 2.77827 6.7098 2.8168 6.68603 2.85643C6.68079 2.86515 6.67561 2.87393 6.67043 2.88269C6.6521 2.91369 6.63384 2.94439 6.6136 2.97137C6.55962 3.04334 6.50081 3.11262 6.43716 3.177C6.37351 3.24138 6.30503 3.30086 6.23174 3.35322C6.11049 3.43982 5.98313 3.51521 5.85339 3.58529C5.72365 3.65538 5.59155 3.72015 5.46083 3.78552C5.29586 3.86799 5.1364 3.96961 4.98444 4.08175C4.83248 4.19389 4.68802 4.31656 4.55304 4.44114C4.56934 4.46559 4.61748 4.47621 4.669 4.48171C4.72052 4.48722 4.77541 4.4876 4.80521 4.49157C4.92083 4.50699 5.03572 4.52576 5.15072 4.5439C5.26571 4.56204 5.38081 4.57954 5.49686 4.59244C6.08805 4.65812 6.58237 4.48479 6.95642 4.15746C7.33047 3.83012 7.58424 3.34879 7.69431 2.79846C7.72128 2.66355 7.73968 2.53093 7.75294 2.39748C7.7662 2.26403 7.77433 2.12976 7.78076 1.99153C7.78146 1.97643 7.78655 1.95979 7.78891 1.94354C7.79128 1.92729 7.79093 1.91143 7.78076 1.89787C7.75484 1.86332 7.63836 1.83911 7.51905 1.82303C7.39974 1.80696 7.27761 1.79902 7.2404 1.79701C7.2128 1.79551 7.18518 1.79426 7.15756 1.79311C7.12994 1.79195 7.10232 1.7909 7.0747 1.7898C7.0723 1.7897 7.06989 1.78984 7.06748 1.78993C7.06507 1.79002 7.06267 1.79006 7.06028 1.7898C6.79409 1.76022 6.47562 1.81572 6.1758 1.92652C5.87597 2.03731 5.5948 2.2034 5.4032 2.395C5.31034 2.48786 5.20747 2.62159 5.15846 2.75183C5.10944 2.88208 5.0328 2.99004 4.97588 3.10385C4.92033 3.21496 4.87507 3.30263 4.81417 3.41276C4.75326 3.52289 4.73274 3.67604 4.69327 3.79445C4.68532 3.81832 4.68234 3.85236 4.66773 3.89463C4.65311 3.9369 4.65234 3.98567 4.66831 4.00165Z" fill="#bccac7" fill-rule="nonzero" opacity="1" stroke="none"/>
<path d="M3.87579 3.57658C3.90465 3.54772 3.88333 3.52144 3.883 3.48291C3.87834 2.94737 3.87579 2.41181 3.87579 1.87626C3.87579 1.74832 3.90315 1.45985 4.00548 1.35752C4.05716 1.4092 4.09294 1.56989 4.11363 1.71317C4.12764 1.81024 4.13474 1.89932 4.13517 1.94109C4.13958 2.36617 4.14238 2.79125 4.14238 3.21634C4.14238 3.35037 4.0872 3.43496 4.16399 3.51173C4.20028 3.47543 4.20574 3.40081 4.23603 3.36043C4.30379 3.2701 4.35452 3.16403 4.42336 3.07224C4.55192 2.90083 4.78713 2.69064 4.84124 2.47426C4.88183 2.31181 4.9578 2.16429 4.97812 1.99153C5.02652 1.58016 4.928 1.21752 4.70434 0.882005C4.56352 0.670763 4.39255 0.477863 4.2 0.312832C4.17076 0.28776 4.04742 0.151043 4.00548 0.161533C3.96402 0.171893 3.91516 0.229473 3.883 0.255194C3.71744 0.387632 3.56856 0.536568 3.4363 0.701887C3.05124 1.18325 2.90216 1.81252 3.14092 2.4094C3.24522 2.67017 3.4554 2.88284 3.61642 3.10827C3.6902 3.21155 3.75427 3.3191 3.81096 3.43247C3.83479 3.48015 3.83648 3.53726 3.87579 3.57658Z" fill="#bccac7" fill-rule="nonzero" opacity="1" stroke="none"/>
<path d="M4.00548 6.84753C4.16649 6.71872 4.29161 6.48934 4.43776 6.34319C4.84755 5.93339 5.40173 5.67871 5.95075 5.52185C6.26608 5.43176 6.60999 5.35903 6.93781 5.34894C7.05784 5.34525 7.17815 5.34864 7.29804 5.34173C7.30483 5.34134 7.30838 5.33275 7.31244 5.32733C7.34041 5.29005 7.42706 5.10643 7.42052 5.06075C7.40856 4.97702 7.30234 5.0053 7.21938 5.00316C6.98215 4.99708 6.69643 5.03979 6.46229 5.08236C5.51075 5.25538 4.63178 5.64137 4.01269 6.41523C3.83761 6.25607 3.69439 6.06694 3.50835 5.91811C3.00908 5.51869 2.42002 5.25807 1.79363 5.13279C1.52272 5.07862 1.2566 5.04259 0.979495 5.03193C0.86517 5.02753 0.721277 5.01795 0.604849 5.03193C0.558969 5.03743 0.683971 5.29833 0.705716 5.32733C0.709793 5.33275 0.713338 5.34146 0.720125 5.34173C0.832907 5.34633 0.945892 5.33988 1.05875 5.34173C1.34635 5.34644 1.66021 5.39932 1.93772 5.47862C2.73665 5.70688 3.53041 6.13494 4.00548 6.84753Z" fill="#fefbf5" fill-rule="nonzero" opacity="1" stroke="none"/>
<path d="M0.929062 5.71638C0.889523 5.71565 1.06561 5.96304 1.09771 6.00882C1.12143 6.04266 1.21009 6.04472 1.25328 6.0478C1.33522 6.05365 1.41717 6.06309 1.49824 6.07662C1.80343 6.12748 2.09178 6.22182 2.37721 6.33598C2.73852 6.48052 3.12894 6.77264 3.37147 7.06366C3.39574 7.09279 3.62951 7.4179 3.63985 7.42134C3.64832 7.42416 3.68545 7.45536 3.72902 7.47116C3.76579 7.48449 3.80979 7.48321 3.81815 7.48154C3.86314 7.47255 3.8449 7.41159 3.84683 7.36575C3.85064 7.27394 3.78531 7.19145 3.7389 7.11409C3.61233 6.90315 3.44739 6.71567 3.2634 6.55213C2.62626 5.98578 1.76282 5.73174 0.929062 5.71638Z" fill="#fefbf5" fill-rule="nonzero" opacity="1" stroke="none"/>
<path d="M4.3958 7.43784C4.46229 7.37135 4.53013 7.2239 4.59627 7.1357C4.76413 6.91191 4.90723 6.7306 5.18912 6.51698C5.24953 6.4712 5.50054 6.30027 5.66656 6.25611C5.84561 6.20847 5.90961 6.19327 5.95929 6.18203C6.16103 6.13636 6.25433 6.12786 6.45867 6.10008C6.59617 6.08139 6.74266 6.06155 6.88016 6.0478C6.88551 6.04727 6.89039 6.04395 6.89458 6.04059C6.95419 5.99291 6.98441 5.95146 7.02387 5.87823C7.04463 5.83971 7.115 5.74339 7.1212 5.70321C7.0968 5.67881 7.02501 5.69157 6.97903 5.69377C6.90644 5.69725 6.85997 5.70703 6.81571 5.71068C6.71829 5.71871 6.50162 5.75969 6.33981 5.79562C5.64215 5.95066 5.04822 6.24428 4.53863 6.75386C4.42272 6.86976 4.23555 7.08006 4.19281 7.25099C4.18433 7.28484 4.15706 7.37096 4.16411 7.41562C4.1701 7.45359 4.19144 7.47105 4.25218 7.48381C4.29909 7.49366 4.33066 7.47355 4.3958 7.43784Z" fill="#fefbf5" fill-rule="nonzero" opacity="1" stroke="none"/>
<path d="M4.68273 4.00165C4.64969 3.9686 4.69141 3.85594 4.72845 3.74841C4.76158 3.65223 4.81582 3.52103 4.85682 3.42459C4.9035 3.31477 4.90948 3.28381 4.97573 3.15076C5.03932 3.02307 5.07695 2.98352 5.14029 2.87064C5.18843 2.78486 5.22209 2.74009 5.30095 2.5939C5.34482 2.51256 5.38815 2.4531 5.45368 2.3548C5.37384 2.35022 5.00026 2.74418 4.96371 2.78406C4.70221 3.06931 4.4412 3.52508 4.41615 3.90078C4.41221 3.95979 4.36081 4.24776 4.38733 4.26102C4.40331 4.26901 4.41663 4.24748 4.42336 4.23941C4.50402 4.14262 4.60274 4.08164 4.68273 4.00165Z" fill="#294049" fill-rule="nonzero" opacity="1" stroke="none"/>
<path d="M2.59431 2.4061C2.75147 2.56326 2.93112 2.9546 2.9862 3.07117C3.04149 3.18816 3.10082 3.32414 3.14834 3.41882C3.15065 3.42343 3.22829 3.60941 3.25227 3.68417C3.28634 3.79041 3.2922 3.90196 3.34265 3.99445C3.39802 4.09598 3.53473 4.1529 3.60202 4.25381C3.66135 4.21426 3.6043 3.91337 3.5876 3.82153C3.51238 3.40786 3.27714 3.03237 2.98241 2.712C2.94446 2.67075 2.90677 2.62917 2.86713 2.58952C2.83718 2.55958 2.6551 2.40386 2.59431 2.4061Z" fill="#294049" fill-rule="nonzero" opacity="1" stroke="none"/>
<path d="M4.89167 7.34464C4.92751 7.39841 5.22004 7.27813 5.28792 7.25099C5.74306 7.06893 6.14025 6.81214 6.50552 6.48008C6.46582 6.44038 6.17328 6.53178 6.10205 6.55213C5.63838 6.68461 5.19297 6.96802 4.89167 7.34464Z" fill="#bccac7" fill-rule="nonzero" opacity="1" stroke="none"/>
<path d="M1.51985 6.48008C1.77385 6.81874 2.35075 7.09342 2.74465 7.25099C2.80467 7.27499 3.1351 7.39368 3.16253 7.36625C2.75613 6.95985 2.43666 6.70704 1.89449 6.55213C1.83679 6.53564 1.54459 6.45534 1.51985 6.48008Z" fill="#bccac7" fill-rule="nonzero" opacity="1" stroke="none"/>
<path d="M4.14238 3.47571C4.12108 3.49701 4.11324 3.54746 4.13517 3.56937C4.1574 3.54713 4.15756 3.53179 4.1712 3.50453C4.15678 3.49011 4.15678 3.49011 4.14238 3.47571Z" fill="#b2b3ad" fill-rule="nonzero" opacity="1" stroke="none"/>
<path d="M3.83406 4.83428C3.53123 4.521 3.23954 4.18627 2.85242 3.97757C2.46048 3.76626 1.92805 3.53245 1.59789 3.20669C1.41456 3.0258 1.33549 2.9196 1.19726 2.7672C1.14786 2.71273 1.07799 2.65561 1.08799 2.61715C1.0903 2.60828 1.15556 2.61767 1.22315 2.65217C1.29073 2.68667 1.36166 2.74708 1.36166 2.74708C1.40522 2.78125 1.63793 3.02123 1.97505 3.22432C2.06833 3.28052 2.18528 3.37063 2.60346 3.57994C2.83647 3.69657 3.07327 3.81013 3.21615 3.90176C3.37344 4.00265 3.52477 4.1247 3.67373 4.24791C3.77907 4.33504 3.88322 4.42275 3.98745 4.50398C3.96288 4.51753 3.926 4.51761 3.91009 4.53042C3.82104 4.60208 3.84943 4.65966 3.83406 4.83428Z" fill="#294049" fill-rule="nonzero" opacity="1" stroke="none"/>
<path d="M6.76711 2.71646C6.86467 2.66847 6.77165 2.78196 6.74283 2.82105C6.71281 2.86176 6.6599 2.94238 6.61637 2.99228C6.57285 3.04218 6.54161 3.08412 6.49076 3.1335C6.43339 3.18923 6.41758 3.20915 6.33863 3.26929C6.27305 3.31925 6.26999 3.32656 6.18726 3.38474C6.09265 3.45127 6.08919 3.44932 6.00241 3.50193C5.94096 3.53917 5.91272 3.55342 5.87497 3.57557C5.78728 3.62703 5.70698 3.65863 5.60787 3.70956C5.53618 3.74639 5.45894 3.78015 5.40878 3.81077C5.35929 3.84097 5.24803 3.89988 5.17985 3.94666C4.82481 4.19026 4.48905 4.54431 4.15406 4.81483C4.15378 4.80551 4.19283 4.7284 4.1926 4.72035C4.1915 4.68163 4.19014 4.65578 4.18041 4.62729C4.16092 4.57023 4.14569 4.56147 4.13627 4.55297C4.12251 4.54055 4.099 4.53123 4.05946 4.5174C4.38364 4.26845 4.69798 3.95768 5.02645 3.74679C5.0405 3.73777 5.07327 3.71627 5.07327 3.71627C5.07327 3.71627 5.1473 3.6692 5.18534 3.64659C5.37702 3.53266 5.709 3.4056 5.90206 3.29749C6.17987 3.14193 6.32806 3.01035 6.55765 2.86332C6.55765 2.86332 6.67879 2.77682 6.69212 2.76769C6.70544 2.75856 6.76711 2.71646 6.76711 2.71646Z" fill="#294049" fill-rule="nonzero" opacity="1" stroke="none"/>
<path d="M4.01963 1.19224C4.06453 1.20269 4.10387 1.32853 4.12041 1.46824C4.14382 1.66595 4.14234 2.0524 4.14585 2.37594C4.14753 2.53141 4.14939 2.68869 4.15137 2.84717L4.16485 3.63379L4.17781 4.61518C4.16581 4.58135 4.08112 4.55833 4.01475 4.55726C3.94839 4.55619 3.86533 4.57909 3.84441 4.61334C3.84348 4.12603 3.85847 3.60491 3.8583 3.1176C3.85817 2.77055 3.8548 2.42346 3.86021 2.07645C3.86191 1.96795 3.86788 1.79407 3.88071 1.63169C3.8868 1.55457 3.8981 1.45101 3.91416 1.38813C3.93374 1.31145 3.95484 1.19529 4.01963 1.19224Z" fill="#294049" fill-rule="nonzero" opacity="1" stroke="none"/>
<path d="M3.75185 4.47293C3.75185 4.47293 2.97945 4.55836 2.5797 4.59452C2.24319 4.62495 2.05938 4.64234 1.66464 4.53072C1.2699 4.41911 1.0199 4.11593 1.0199 4.11593C1.0199 4.11593 0.812911 3.92813 0.664431 3.67778C0.515951 3.42743 0.445408 3.27041 0.3653 3.02199C0.317147 2.87267 0.277198 2.66572 0.257446 2.54163C0.217049 2.28785 0.22106 2.28065 0.215944 2.11562C0.210827 1.95059 0.231555 1.83207 0.258621 1.95481C0.303281 2.15733 0.331602 2.33699 0.401556 2.56327C0.499485 2.88004 0.532779 2.99008 0.655243 3.27302C0.706038 3.39037 0.860458 3.67958 1.24584 3.97966C1.42488 4.11907 1.4927 4.19771 1.82968 4.30178C2.16666 4.40586 2.21364 4.3857 2.55436 4.42258C2.77397 4.44636 2.97358 4.43834 3.11242 4.44712C3.33049 4.4609 3.75185 4.47293 3.75185 4.47293Z" fill="#294043" fill-rule="nonzero" opacity="1" stroke="none"/>
<path d="M5.54078 6.49549" fill="#bccac7" fill-rule="nonzero" opacity="1" stroke="none"/>
<path d="M2.04021 4.35699" fill="#bccac7" fill-rule="nonzero" opacity="1" stroke="none"/>
<path d="M1.36425 4.02688" fill="#bccac7" fill-rule="nonzero" opacity="1" stroke="none"/>
<path d="M4.43779 4.41549C4.68459 4.51686 4.91137 4.5839 5.49918 4.62081C6.01367 4.65312 6.42647 4.56968 6.89513 4.24957C7.2116 4.03341 7.36751 3.70968 7.36751 3.70968C7.36751 3.70968 7.51535 3.50483 7.5892 3.26774C7.78012 2.65482 7.76092 2.63832 7.78632 2.28161C7.81288 1.9086 7.80089 1.95102 7.78612 1.9132C7.77134 1.87538 7.7262 2.06497 7.67326 2.30566C7.59992 2.63905 7.56106 2.80461 7.50222 2.99236C7.44225 3.18367 7.3996 3.30136 7.20741 3.59323C7.10734 3.7452 6.99091 3.89432 6.68495 4.10037C6.50713 4.22011 6.36673 4.30044 6.11363 4.35856C5.77011 4.43745 5.57564 4.46669 5.17093 4.46207" fill="#294043" fill-rule="nonzero" opacity="1" stroke="none"/>
<path d="M4.14874 3.53188C4.17611 3.48674 4.35454 3.18884 4.38483 3.15515C4.60148 2.91415 4.66255 2.90497 4.7975 2.62981C4.84002 2.54312 4.88755 2.426 4.88766 2.32259C4.8877 2.27738 4.82857 2.39944 4.73212 2.56135C4.65441 2.69181 4.48518 2.8123 4.28637 3.14632C4.21444 3.26718 4.1705 3.3818 4.16299 3.39802C4.11882 3.49346 4.08843 3.63138 4.14874 3.53188Z" fill="#294043" fill-rule="nonzero" opacity="1" stroke="none"/>
<path d="M3.86809 3.55294C3.84868 3.55967 3.80326 3.40724 3.70666 3.25436C3.61006 3.10147 3.62637 3.11532 3.44 2.88877C3.29811 2.7163 3.15397 2.47038 3.10677 2.33073C3.0699 2.22163 3.18556 2.38962 3.28468 2.50214C3.33526 2.55956 3.52425 2.77958 3.59099 2.87909C3.73482 3.09353 3.74122 3.12353 3.78429 3.22744C3.86846 3.4305 3.8875 3.54621 3.86809 3.55294Z" fill="#294043" fill-rule="nonzero" opacity="1" stroke="none"/>
<path d="M4.35549 3.66625" fill="#294043" fill-rule="nonzero" opacity="1" stroke="none"/>
</g>
</g>
</svg>
