<?xml version="1.0" encoding="UTF-8" standalone="no"?>
<!DOCTYPE svg PUBLIC "-//W3C//DTD SVG 1.1//EN" "http://www.w3.org/Graphics/SVG/1.1/DTD/svg11.dtd">
<!-- Created with Vectornator (http://vectornator.io/) -->
<svg height="100%" stroke-miterlimit="10" style="fill-rule:nonzero;clip-rule:evenodd;stroke-linecap:round;stroke-linejoin:round;" version="1.1" viewBox="0 0 512 512" width="100%" xml:space="preserve" xmlns="http://www.w3.org/2000/svg" xmlns:vectornator="http://vectornator.io" xmlns:xlink="http://www.w3.org/1999/xlink">
<defs/>
<g id="Layer-1" vectornator:layerName="Layer-1">
<path d="M0 256C0 114.615 114.615 5.68434e-14 256 5.68434e-14C397.385 5.68434e-14 512 114.615 512 256C512 397.385 397.385 512 256 512C114.615 512 0 397.385 0 256Z" fill="#3c8374" fill-rule="nonzero" opacity="1" stroke="none"/>
<g opacity="1">
<path d="M268.488 361.428C266.523 359.464 267.679 355.912 267.658 353.135C267.539 336.272 267.514 319.408 267.245 302.547C267.14 296.002 259.466 293.839 254.39 293.839C253.23 293.839 252.233 294.069 251.376 294.477C245.776 297.147 246.132 307.479 246.097 311.669C245.961 327.979 245.682 344.289 245.682 360.599C245.682 360.908 245.958 361.151 246.097 361.428C245.682 361.843 245.682 361.843 245.268 362.257C208.572 325.562 152.606 309.67 102.626 303.791C86.8952 301.939 71.261 302.132 55.3547 302.132C55.0454 302.132 54.8017 302.409 54.5254 302.547C52.6454 300.667 52.1893 294.183 51.6228 291.35C49.1913 279.195 48.3014 267.243 47.4763 254.861C46.9985 247.7 40.8252 239.111 32.5486 242.421C24.3003 245.721 25.9141 255.325 25.9141 262.74C25.9141 270.761 26.8537 278.854 27.9874 286.789C33.9808 328.743 51.8932 369.548 78.9902 402.065C154.557 492.745 286.38 512.599 385.006 446.847C437.409 411.913 470.299 359.161 482.451 298.401C485.724 282.035 486.214 267.977 486.214 251.09C486.214 249.901 486.028 247.058 484.668 244.801C483.212 242.383 481.085 241.868 479.777 241.607C467.007 239.062 465.754 258.38 465.036 267.715C464.489 274.824 463.406 281.856 462.133 288.863C461.738 291.037 460.986 301.615 458.402 302.132C450.539 303.704 442.369 301.717 434.351 301.717C423.132 301.717 411.255 303.11 399.934 304.62C351.282 311.107 306.063 330.114 268.488 361.428Z" fill="#294043" fill-rule="nonzero" opacity="1" stroke="none"/>
<path d="M226.546 290.459C224.948 287.263 220.557 284.805 217.838 282.581C208.893 275.262 199.536 268.613 189.641 262.678C156.313 242.68 115.576 228.162 97.1728 191.356C97.5875 190.942 94.4151 188.199 98.2867 189.343C104.459 195.516 111.879 203.162 119.098 207.976C127.449 213.542 133.966 219.289 142.656 224.093C153.053 229.84 164.064 235.268 174.316 241.42C188.614 249.998 205.184 253.362 217.838 264.751C221.068 262.596 216.191 253.379 214.935 250.238C211.669 242.072 209.267 229.93 207.969 227.286C206.068 223.416 200.595 215.713 197.942 208.804C178.161 157.302 134.301 141.277 82.6599 137.451C78.2487 137.124 73.8086 137.236 69.3908 137.451C64.4589 137.692 42.6048 139.317 39.1209 143.671C37.541 145.647 38.8613 159.676 39.1209 163.574C40.1293 178.702 42.8462 193.405 46.9993 207.943C58.1064 246.819 85.5674 284.774 125.784 296.265C145.258 301.829 166.169 300.131 185.91 297.094C195.699 295.588 205.52 294.177 215.351 292.947C218.605 292.54 224.048 292.957 226.546 290.459Z" fill="#bccac7" fill-rule="nonzero" opacity="1" stroke="none"/>
<path d="M294.549 264.751C298.734 262.659 302.786 259.648 306.823 256.54C310.861 253.432 314.885 250.228 319.015 247.75C334.832 238.259 352.594 231.892 368.634 223.078C384.675 214.264 398.993 203.004 413.971 191.772L414.593 192.186L415.215 192.6C413.475 194.341 412.044 196.559 410.676 198.839C410.375 199.341 410.076 199.846 409.779 200.351C408.723 202.135 407.672 203.902 406.507 205.454C403.401 209.596 400.015 213.583 396.352 217.289C392.689 220.994 388.748 224.418 384.53 227.431C377.551 232.415 370.222 236.754 362.755 240.788C355.287 244.821 347.685 248.549 340.162 252.311C330.667 257.058 321.489 262.906 312.744 269.361C303.998 275.815 295.683 282.875 287.915 290.045C288.853 291.452 291.624 292.063 294.589 292.38C297.554 292.697 300.713 292.718 302.428 292.947C309.083 293.835 315.695 294.915 322.313 295.959C328.932 297.002 335.556 298.01 342.235 298.752C376.26 302.533 404.71 292.557 426.238 273.717C447.765 254.879 462.371 227.176 468.706 195.503C470.259 187.738 471.317 180.106 472.081 172.425C472.843 164.745 473.311 157.017 473.681 149.061C473.722 148.192 474.014 147.235 474.151 146.299C474.287 145.364 474.267 144.451 473.681 143.671C472.19 141.683 465.485 140.289 458.62 139.363C451.753 138.438 444.723 137.981 442.582 137.866C440.993 137.78 439.404 137.708 437.814 137.641C436.224 137.575 434.634 137.514 433.045 137.451C432.907 137.445 432.768 137.453 432.63 137.458C432.491 137.463 432.353 137.466 432.215 137.451C416.895 135.749 398.566 138.943 381.31 145.319C364.054 151.696 347.872 161.255 336.845 172.283C331.5 177.626 325.58 185.323 322.759 192.819C319.938 200.316 315.526 206.529 312.251 213.079C309.054 219.474 306.449 224.519 302.944 230.858C299.438 237.196 298.258 246.011 295.986 252.825C295.528 254.199 295.357 256.158 294.516 258.591C293.674 261.024 293.63 263.831 294.549 264.751Z" fill="#bccac7" fill-rule="nonzero" opacity="1" stroke="none"/>
<path d="M248.937 240.286C250.597 238.625 249.371 237.113 249.352 234.895C249.084 204.073 248.937 173.25 248.937 142.427C248.937 135.064 250.511 118.461 256.401 112.572C259.375 115.546 261.435 124.794 262.625 133.041C263.432 138.627 263.84 143.754 263.865 146.158C264.119 170.623 264.28 195.088 264.28 219.553C264.28 227.268 261.104 232.135 265.523 236.553C267.612 234.464 267.926 230.17 269.67 227.846C273.57 222.647 276.489 216.543 280.451 211.26C287.85 201.395 301.388 189.297 304.501 176.844C306.839 167.494 311.211 159.004 312.38 149.061C315.165 125.385 309.495 104.514 296.623 85.2042C288.519 73.0465 278.678 61.9445 267.596 52.4464C265.914 51.0033 258.815 43.1348 256.401 43.7386C254.016 44.3348 251.203 47.6488 249.352 49.1291C239.823 56.7513 231.254 65.3232 223.643 74.8378C201.481 102.542 192.901 138.758 206.642 173.111C212.646 188.119 224.742 200.36 234.01 213.333C238.256 219.278 241.943 225.467 245.205 231.992C246.578 234.737 246.675 238.024 248.937 240.286Z" fill="#bccac7" fill-rule="nonzero" opacity="1" stroke="none"/>
<path d="M256.401 428.541C265.667 421.127 272.869 407.926 281.28 399.514C304.866 375.929 336.76 361.271 368.358 352.243C386.506 347.058 406.299 342.872 425.167 342.292C432.075 342.079 438.998 342.275 445.899 341.877C446.29 341.854 446.494 341.36 446.729 341.047C448.337 338.902 453.325 328.334 452.948 325.705C452.26 320.887 446.147 322.514 441.372 322.391C427.719 322.041 411.275 324.499 397.799 326.949C343.034 336.907 292.447 359.122 256.816 403.661C246.74 394.5 238.497 383.615 227.789 375.05C199.054 352.062 165.153 337.062 129.101 329.852C113.51 326.734 98.1936 324.66 82.2451 324.047C75.6654 323.793 67.3838 323.242 60.683 324.047C58.0424 324.363 65.2368 339.379 66.4883 341.047C66.7229 341.36 66.9269 341.861 67.3175 341.877C73.8086 342.141 80.3112 341.77 86.8064 341.877C103.359 342.147 121.422 345.191 137.394 349.756C183.375 362.892 229.059 387.529 256.401 428.541Z" fill="#fefbf5" fill-rule="nonzero" opacity="1" stroke="none"/>
<path d="M79.3426 363.439C77.067 363.397 87.2013 377.635 89.0485 380.27C90.4142 382.218 95.5167 382.336 98.0022 382.514C102.718 382.85 107.435 383.394 112.101 384.173C129.666 387.099 146.261 392.529 162.689 399.099C183.483 407.418 205.953 424.231 219.912 440.979C221.308 442.657 234.763 461.368 235.358 461.565C235.845 461.727 237.983 463.523 240.49 464.432C242.606 465.2 245.139 465.127 245.62 465.03C248.209 464.512 247.16 461.004 247.27 458.366C247.49 453.083 243.73 448.335 241.058 443.882C233.774 431.742 224.281 420.952 213.691 411.539C177.022 378.944 127.329 364.323 79.3426 363.439Z" fill="#fefbf5" fill-rule="nonzero" opacity="1" stroke="none"/>
<path d="M278.865 462.515C282.692 458.689 286.597 450.202 290.403 445.126C300.063 432.246 308.3 421.812 324.524 409.517C328 406.882 342.447 397.044 352.002 394.503C362.307 391.761 365.991 390.886 368.849 390.239C380.461 387.611 385.83 387.121 397.591 385.523C405.504 384.447 413.935 383.305 421.849 382.514C422.157 382.483 422.438 382.292 422.679 382.099C426.109 379.354 427.848 376.969 430.12 372.754C431.314 370.537 435.364 364.994 435.722 362.681C434.317 361.276 430.186 362.011 427.539 362.138C423.361 362.338 420.687 362.901 418.14 363.111C412.532 363.573 400.062 365.932 390.75 367.999C350.597 376.923 316.415 393.821 287.085 423.15C280.414 429.82 269.642 441.924 267.183 451.761C266.694 453.709 265.125 458.666 265.531 461.236C265.876 463.422 267.103 464.427 270.6 465.161C273.299 465.728 275.116 464.57 278.865 462.515Z" fill="#fefbf5" fill-rule="nonzero" opacity="1" stroke="none"/>
<path d="M295.379 264.751C293.477 262.849 295.878 256.364 298.01 250.176C299.917 244.641 303.039 237.089 305.399 231.539C308.086 225.218 308.429 223.436 312.242 215.779C315.902 208.43 318.068 206.154 321.713 199.657C324.484 194.72 326.421 192.143 330.96 183.73C333.485 179.048 335.978 175.626 339.75 169.969C335.155 169.705 313.654 192.379 311.551 194.674C296.501 211.092 281.478 237.322 280.037 258.945C279.809 262.341 276.852 278.915 278.378 279.678C279.298 280.138 280.065 278.899 280.451 278.434C285.093 272.864 290.776 269.354 295.379 264.751Z" fill="#294049" fill-rule="nonzero" opacity="1" stroke="none"/>
<path d="M175.183 172.921C184.228 181.966 194.568 204.489 197.738 211.199C200.92 217.931 204.335 225.757 207.069 231.206C207.202 231.472 211.671 242.176 213.051 246.479C215.013 252.593 215.35 259.013 218.253 264.336C221.44 270.18 229.308 273.456 233.18 279.263C236.595 276.987 233.312 259.67 232.35 254.384C228.021 230.576 214.483 208.966 197.52 190.526C195.336 188.152 193.167 185.759 190.885 183.478C189.161 181.754 178.682 172.793 175.183 172.921Z" fill="#294049" fill-rule="nonzero" opacity="1" stroke="none"/>
<path d="M307.404 457.151C309.467 460.245 326.303 453.324 330.21 451.761C356.405 441.283 379.265 426.504 400.287 407.393C398.002 405.108 381.166 410.368 377.066 411.539C350.38 419.164 324.745 435.475 307.404 457.151Z" fill="#bccac7" fill-rule="nonzero" opacity="1" stroke="none"/>
<path d="M113.344 407.393C127.963 426.883 161.165 442.693 183.836 451.761C187.29 453.143 206.308 459.974 207.887 458.396C184.497 435.006 166.11 420.455 134.907 411.539C131.586 410.59 114.768 405.969 113.344 407.393Z" fill="#bccac7" fill-rule="nonzero" opacity="1" stroke="none"/>
<path d="M264.28 234.481C263.054 235.706 262.603 238.61 263.865 239.871C265.145 238.591 265.154 237.708 265.939 236.14C265.109 235.31 265.109 235.31 264.28 234.481Z" fill="#b2b3ad" fill-rule="nonzero" opacity="1" stroke="none"/>
<path d="M246.535 312.671C229.107 294.641 212.318 275.376 190.038 263.364C167.481 251.203 136.838 237.747 117.836 218.998C107.285 208.587 102.734 202.475 94.7783 193.703C91.9351 190.569 87.9138 187.282 88.4895 185.068C88.6223 184.557 92.3785 185.097 96.2683 187.083C100.158 189.069 104.24 192.546 104.24 192.546C106.747 194.513 120.141 208.324 139.542 220.012C144.911 223.247 151.642 228.433 175.71 240.48C189.121 247.192 202.749 253.728 210.972 259.002C220.025 264.808 228.734 271.833 237.308 278.923C243.37 283.939 249.365 288.986 255.364 293.661C253.95 294.441 251.827 294.446 250.911 295.183C245.785 299.307 247.42 302.622 246.535 312.671Z" fill="#294049" fill-rule="nonzero" opacity="1" stroke="none"/>
<path d="M415.342 190.783C420.957 188.022 415.604 194.553 413.945 196.803C412.217 199.146 409.172 203.786 406.667 206.657C404.162 209.53 402.364 211.943 399.438 214.786C396.136 217.993 395.226 219.139 390.682 222.6C386.907 225.476 386.731 225.896 381.97 229.245C376.525 233.074 376.326 232.963 371.331 235.99C367.794 238.133 366.169 238.954 363.997 240.228C358.95 243.19 354.328 245.009 348.624 247.939C344.498 250.06 340.052 252.002 337.165 253.765C334.317 255.503 327.914 258.893 323.99 261.585C303.556 275.606 284.232 295.982 264.952 311.551C264.936 311.016 267.184 306.578 267.17 306.114C267.107 303.886 267.029 302.398 266.469 300.758C265.347 297.474 264.47 296.97 263.928 296.481C263.136 295.767 261.783 295.23 259.507 294.434C278.165 280.106 296.257 262.22 315.161 250.082C315.97 249.563 317.856 248.326 317.856 248.326C317.856 248.326 322.117 245.617 324.306 244.315C335.338 237.758 354.445 230.446 365.555 224.224C381.544 215.27 390.074 207.698 403.287 199.236C403.287 199.236 410.26 194.257 411.027 193.732C411.793 193.207 415.342 190.783 415.342 190.783Z" fill="#294049" fill-rule="nonzero" opacity="1" stroke="none"/>
<path d="M257.216 103.06C259.8 103.661 262.064 110.904 263.015 118.944C264.363 130.323 264.278 152.565 264.479 171.185C264.577 180.133 264.684 189.185 264.798 198.306L265.574 243.579L266.319 300.062C265.629 298.115 260.754 296.79 256.935 296.728C253.115 296.666 248.335 297.984 247.131 299.955C247.078 271.909 247.94 241.917 247.93 213.87C247.923 193.897 247.729 173.92 248.041 153.949C248.138 147.704 248.481 137.697 249.22 128.352C249.57 123.912 250.221 117.953 251.145 114.333C252.272 109.92 253.487 103.235 257.216 103.06Z" fill="#294049" fill-rule="nonzero" opacity="1" stroke="none"/>
<path d="M241.803 291.874C241.803 291.874 197.35 296.791 174.342 298.872C154.976 300.624 144.397 301.624 121.678 295.2C98.9588 288.777 84.5706 271.327 84.5706 271.327C84.5706 271.327 72.6577 260.52 64.1121 246.111C55.5666 231.702 51.5066 222.665 46.8961 208.368C44.1247 199.773 41.8256 187.864 40.6887 180.722C38.3638 166.116 38.5946 165.701 38.3001 156.203C38.0057 146.705 39.1986 139.884 40.7564 146.948C43.3267 158.604 44.9567 168.944 48.9828 181.967C54.6189 200.198 56.5351 206.531 63.5834 222.815C66.5068 229.57 75.3942 246.214 97.574 263.485C107.879 271.509 111.782 276.034 131.177 282.024C150.571 288.014 153.274 286.854 172.884 288.976C185.523 290.345 197.012 289.884 205.003 290.389C217.553 291.182 241.803 291.874 241.803 291.874Z" fill="#294043" fill-rule="nonzero" opacity="1" stroke="none"/>
<path d="" fill="#bccac7" fill-rule="nonzero" opacity="1" stroke="none"/>
<path d="" fill="#bccac7" fill-rule="nonzero" opacity="1" stroke="none"/>
<path d="" fill="#bccac7" fill-rule="nonzero" opacity="1" stroke="none"/>
<path d="M281.282 288.568C295.486 294.402 308.538 298.261 342.369 300.385C371.979 302.245 395.737 297.443 422.711 279.019C440.925 266.578 449.898 247.946 449.898 247.946C449.898 247.946 458.406 236.157 462.656 222.511C473.645 187.236 472.539 186.286 474.002 165.756C475.529 144.289 474.84 146.73 473.99 144.553C473.139 142.376 470.541 153.288 467.494 167.14C463.273 186.328 461.037 195.856 457.65 206.663C454.199 217.673 451.744 224.447 440.683 241.245C434.924 249.991 428.223 258.573 410.613 270.432C400.379 277.324 392.299 281.947 377.732 285.292C357.961 289.832 346.769 291.515 323.477 291.25" fill="#294043" fill-rule="nonzero" opacity="1" stroke="none"/>
<path d="M264.647 237.714C266.221 235.116 276.491 217.971 278.234 216.032C290.703 202.161 294.218 201.632 301.985 185.796C304.432 180.807 307.168 174.066 307.173 168.115C307.176 165.513 303.773 172.537 298.222 181.856C293.749 189.364 284.01 196.299 272.567 215.523C268.427 222.479 265.898 229.076 265.467 230.009C262.924 235.502 261.175 243.44 264.647 237.714Z" fill="#294043" fill-rule="nonzero" opacity="1" stroke="none"/>
<path d="M248.494 238.926C247.377 239.312 244.762 230.54 239.203 221.741C233.644 212.942 234.582 213.739 223.856 200.701C215.69 190.774 207.393 176.621 204.677 168.583C202.555 162.305 209.212 171.973 214.916 178.448C217.827 181.753 228.705 194.416 232.546 200.143C240.824 212.485 241.192 214.212 243.671 220.192C248.515 231.879 249.611 238.538 248.494 238.926Z" fill="#294043" fill-rule="nonzero" opacity="1" stroke="none"/>
<path d="" fill="#294043" fill-rule="nonzero" opacity="1" stroke="none"/>
</g>
<path d="M261.353 350.444C261.353 348.95 261.353 347.739 261.353 347.739C261.353 347.739 261.353 348.95 261.353 350.444C261.353 351.938 261.353 353.149 261.353 353.149C261.353 353.149 261.353 351.938 261.353 350.444Z" fill="#294043" fill-rule="nonzero" opacity="1" stroke="none"/>
</g>
</svg>
