<?xml version="1.0" encoding="UTF-8" standalone="no"?>
<!DOCTYPE svg PUBLIC "-//W3C//DTD SVG 1.1//EN" "http://www.w3.org/Graphics/SVG/1.1/DTD/svg11.dtd">
<!-- Created with Vectornator (http://vectornator.io/) -->
<svg height="100%" stroke-miterlimit="10" style="fill-rule:nonzero;clip-rule:evenodd;stroke-linecap:round;stroke-linejoin:round;" version="1.1" viewBox="0 0 128 128" width="100%" xml:space="preserve" xmlns="http://www.w3.org/2000/svg" xmlns:vectornator="http://vectornator.io" xmlns:xlink="http://www.w3.org/1999/xlink">
<defs/>
<clipPath id="ArtboardFrame">
<rect height="128" width="128" x="0" y="0"/>
</clipPath>
<g clip-path="url(#ArtboardFrame)" id="Layer-1" vectornator:layerName="Layer-1">
<g opacity="1">
<path d="M67.4707 90.9031C66.9245 90.3569 67.2457 89.3699 67.24 88.5977C67.2067 83.9098 67.1997 79.2214 67.1249 74.534C67.0959 72.7144 64.9623 72.1132 63.5511 72.1132C63.2288 72.1132 62.9517 72.1769 62.7133 72.2905C61.1565 73.0327 61.2555 75.9051 61.2457 77.0701C61.2079 81.6044 61.1304 86.1384 61.1304 90.6727C61.1304 90.7585 61.2072 90.8263 61.2457 90.9031C61.1304 91.0185 61.1304 91.0185 61.0153 91.1336C50.8137 80.9323 35.255 76.5144 21.3601 74.8797C16.987 74.3651 12.6406 74.4186 8.21861 74.4186C8.13264 74.4186 8.06486 74.4954 7.98807 74.534C7.46541 74.0113 7.3386 72.2088 7.18115 71.4214C6.50516 68.042 6.25777 64.7193 6.02838 61.2771C5.89557 59.2862 4.17934 56.8985 1.87843 57.8187C-0.414649 58.7362 0.0340067 61.406 0.0340067 63.4675C0.0340067 65.6973 0.295222 67.9472 0.610388 70.1533C2.27659 81.8165 7.25628 93.1605 14.7894 102.2C35.7974 127.41 72.4446 132.929 99.8633 114.65C114.431 104.938 123.575 90.2731 126.953 73.3812C127.863 68.8314 127.999 64.9233 127.999 60.2288C127.999 59.8982 127.948 59.1079 127.569 58.4802C127.165 57.8084 126.573 57.6651 126.21 57.5926C122.66 56.8849 122.311 62.2552 122.112 64.8506C121.96 66.8268 121.659 68.7816 121.305 70.7298C121.195 71.3343 120.986 74.275 120.267 74.4186C118.081 74.8557 115.81 74.3033 113.581 74.3033C110.462 74.3033 107.16 74.6906 104.013 75.1102C90.4877 76.9137 77.9167 82.1979 67.4707 90.9031Z" fill="#294043" fill-rule="nonzero" opacity="1" stroke="none"/>
<path d="M55.8104 71.1736C55.3663 70.2851 54.1455 69.6018 53.3896 68.9833C50.9028 66.9486 48.3016 65.1003 45.5508 63.4501C36.2853 57.8907 24.9604 53.8549 19.8442 43.6226C19.9595 43.5072 19.0776 42.7446 20.1539 43.0627C21.8699 44.7789 23.9325 46.9045 25.9397 48.2426C28.261 49.7902 30.0728 51.3881 32.4887 52.7235C35.3791 54.3212 38.44 55.8302 41.2905 57.5405C45.265 59.925 49.8717 60.8602 53.3896 64.0264C54.2876 63.4276 52.932 60.865 52.5827 59.9918C51.6746 57.7218 51.007 54.3462 50.6459 53.611C50.1174 52.5353 48.5961 50.3937 47.8584 48.4729C42.359 34.1553 30.1659 29.7002 15.8096 28.6365C14.5832 28.5457 13.3489 28.5767 12.1207 28.6365C10.7496 28.7036 4.67408 29.1552 3.70554 30.3657C3.26633 30.9149 3.63338 34.8152 3.70554 35.8991C3.98588 40.1046 4.74118 44.192 5.8958 48.2337C8.98358 59.0412 16.6179 69.593 27.7982 72.7874C33.2122 74.3342 39.0253 73.8623 44.5134 73.0179C47.235 72.5993 49.9652 72.207 52.698 71.8652C53.6028 71.7521 55.116 71.8679 55.8104 71.1736Z" fill="#bccac7" fill-rule="nonzero" opacity="1" stroke="none"/>
<path d="M74.7157 64.0264C75.879 63.4449 77.0053 62.6077 78.1278 61.7438C79.2503 60.8798 80.369 59.989 81.5171 59.3002C85.9144 56.6617 90.8525 54.8914 95.3117 52.4411C99.7709 49.9909 103.751 46.8608 107.915 43.7379L108.088 43.8531L108.261 43.9684C107.777 44.4521 107.38 45.0687 106.999 45.7027C106.916 45.8424 106.833 45.9828 106.75 46.1229C106.456 46.619 106.164 47.1102 105.84 47.5418C104.977 48.6933 104.036 49.8019 103.017 50.832C101.999 51.8621 100.903 52.8137 99.7306 53.6514C97.7907 55.0371 95.7528 56.2434 93.677 57.3647C91.6012 58.486 89.4875 59.5224 87.396 60.5682C84.7566 61.8878 82.2052 63.5137 79.7738 65.308C77.3424 67.1023 75.0309 69.065 72.8714 71.0583C73.1321 71.4495 73.9024 71.6194 74.7267 71.7074C75.5509 71.7955 76.4292 71.8016 76.906 71.8652C78.7561 72.1119 80.5943 72.4122 82.4342 72.7024C84.2741 72.9926 86.1157 73.2727 87.9725 73.479C97.4315 74.53 105.341 71.7567 111.326 66.5193C117.31 61.282 121.371 53.5805 123.132 44.7753C123.564 42.6166 123.858 40.4947 124.07 38.3595C124.282 36.2244 124.412 34.076 124.515 31.8642C124.526 31.6227 124.608 31.3565 124.646 31.0965C124.683 30.8365 124.678 30.5827 124.515 30.3657C124.1 29.8129 122.237 29.4255 120.328 29.1683C118.419 28.9111 116.465 28.784 115.869 28.7519C115.428 28.728 114.986 28.708 114.544 28.6895C114.102 28.6711 113.66 28.6542 113.218 28.6365C113.18 28.635 113.141 28.6372 113.103 28.6386C113.064 28.64 113.026 28.6408 112.987 28.6365C108.728 28.1634 103.633 29.0514 98.8356 30.8241C94.0384 32.5968 89.5396 35.2542 86.474 38.3199C84.9881 39.8056 83.3423 41.9453 82.5581 44.0292C81.7738 46.1132 80.5475 47.8405 79.6368 49.6615C78.7481 51.4392 78.0238 52.842 77.0494 54.6041C76.0749 56.3662 75.7466 58.8167 75.1151 60.7111C74.9878 61.0931 74.9401 61.6377 74.7063 62.314C74.4725 62.9904 74.4601 63.7708 74.7157 64.0264Z" fill="#bccac7" fill-rule="nonzero" opacity="1" stroke="none"/>
<path d="M62.0353 57.2252C62.497 56.7636 62.1559 56.343 62.1507 55.7264C62.0761 47.1578 62.0353 38.5889 62.0353 30.0199C62.0353 27.973 62.4729 23.3574 64.1103 21.72C64.9372 22.547 65.5096 25.118 65.8406 27.4105C66.0649 28.9636 66.1784 30.3889 66.1853 31.0573C66.2559 37.8585 66.3006 44.6599 66.3006 51.4614C66.3006 53.6059 65.4179 54.9593 66.6464 56.1876C67.2272 55.6068 67.3145 54.4128 67.7992 53.7668C68.8833 52.3216 69.695 50.6244 70.7964 49.1557C72.8534 46.4131 76.6168 43.0501 77.4825 39.5879C78.132 36.9888 79.3476 34.6285 79.6726 31.8642C80.447 25.2823 78.8707 19.48 75.2922 14.1118C73.039 10.7319 70.3035 7.64549 67.2227 5.00497C66.7548 4.60381 64.7814 2.41633 64.1103 2.58417C63.447 2.74993 62.6651 3.67122 62.1507 4.08276C59.5017 6.20178 57.1195 8.58477 55.0035 11.2299C48.8423 18.9317 46.4571 29.0001 50.2773 38.5503C51.9461 42.7226 55.309 46.1254 57.8854 49.7322C59.0659 51.3848 60.091 53.1055 60.998 54.9195C61.3793 55.6824 61.4063 56.5962 62.0353 57.2252Z" fill="#bccac7" fill-rule="nonzero" opacity="1" stroke="none"/>
<path d="M64.1103 109.561C66.6865 107.5 68.6884 103.83 71.0269 101.491C77.5836 94.9345 86.4505 90.8596 95.2348 88.3497C100.28 86.9083 105.783 85.7445 111.028 85.5831C112.948 85.5241 114.873 85.5784 116.792 85.4678C116.9 85.4615 116.957 85.3242 117.022 85.2374C117.469 84.6409 118.856 81.7029 118.751 80.972C118.56 79.6324 116.86 80.085 115.533 80.0507C111.737 79.9534 107.166 80.6368 103.419 81.3178C88.1947 84.0861 74.1312 90.2621 64.2257 102.644C61.4243 100.097 59.1329 97.0713 56.1562 94.69C48.1677 88.2992 38.7429 84.1292 28.7205 82.1248C24.3859 81.258 20.128 80.6815 15.6943 80.5109C13.8651 80.4406 11.5628 80.2872 9.69991 80.5109C8.96582 80.599 10.9659 84.7735 11.3138 85.2374C11.379 85.3242 11.4357 85.4635 11.5443 85.4678C13.3489 85.5414 15.1566 85.4383 16.9623 85.4678C21.5639 85.5431 26.5857 86.3893 31.0259 87.6581C43.8088 91.3102 56.5092 98.1592 64.1103 109.561Z" fill="#fefbf5" fill-rule="nonzero" opacity="1" stroke="none"/>
<path d="M14.8873 91.4623C14.2547 91.4505 17.0721 95.4088 17.5856 96.1413C17.9653 96.6828 19.3838 96.7157 20.0748 96.765C21.3859 96.8586 22.6971 97.0097 23.9942 97.2261C28.8774 98.0398 33.491 99.5493 38.0578 101.376C43.8389 103.689 50.0856 108.362 53.9661 113.019C54.3544 113.485 58.0948 118.687 58.2602 118.742C58.3957 118.787 58.9899 119.286 59.6869 119.539C60.2752 119.752 60.9793 119.732 61.1131 119.705C61.8329 119.561 61.5411 118.586 61.5719 117.852C61.6329 116.383 60.5876 115.064 59.845 113.826C57.8198 110.451 55.1809 107.451 52.2369 104.834C42.0426 95.7727 28.2276 91.708 14.8873 91.4623Z" fill="#fefbf5" fill-rule="nonzero" opacity="1" stroke="none"/>
<path d="M70.3555 119.006C71.4194 117.942 72.5048 115.583 73.563 114.172C76.2487 110.591 78.5385 107.69 83.0486 104.272C84.0152 103.539 88.0314 100.805 90.6877 100.098C93.5525 99.3358 94.5766 99.0926 95.3714 98.9127C98.5994 98.182 100.092 98.0459 103.362 97.6015C105.562 97.3024 107.905 96.9849 110.106 96.765C110.191 96.7565 110.269 96.7034 110.336 96.6496C111.29 95.8867 111.773 95.2236 112.405 94.0519C112.737 93.4355 113.863 91.8944 113.962 91.2515C113.572 90.8611 112.423 91.0653 111.687 91.1005C110.526 91.1561 109.782 91.3127 109.074 91.371C107.515 91.4995 104.049 92.1551 101.46 92.7301C90.2972 95.2107 80.7943 99.9086 72.6407 108.062C70.7861 109.916 67.7914 113.281 67.1076 116.016C66.972 116.558 66.5356 117.936 66.6485 118.65C66.7443 119.258 67.0857 119.537 68.0575 119.741C68.8082 119.899 69.3132 119.577 70.3555 119.006Z" fill="#fefbf5" fill-rule="nonzero" opacity="1" stroke="none"/>
<path d="M74.9464 64.0264C74.4177 63.4977 75.0852 61.6951 75.6779 59.9745C76.208 58.4356 77.0759 56.3365 77.7318 54.7934C78.4788 53.0362 78.5743 52.5408 79.6344 50.412C80.6518 48.3691 81.2539 47.7362 82.2674 45.9301C83.0377 44.5576 83.5762 43.8413 84.8379 41.5023C85.5399 40.2008 86.2332 39.2494 87.2816 37.6767C86.0041 37.6033 80.0269 43.9068 79.4421 44.5448C75.2581 49.1089 71.0819 56.4012 70.6811 62.4125C70.618 63.3566 69.7956 67.9642 70.2199 68.1763C70.4756 68.3042 70.6888 67.9597 70.7964 67.8306C72.087 66.282 73.6666 65.3062 74.9464 64.0264Z" fill="#294049" fill-rule="nonzero" opacity="1" stroke="none"/>
<path d="M41.5314 38.4974C44.046 41.012 46.9204 47.2735 47.8018 49.1387C48.6863 51.0105 49.6356 53.1861 50.396 54.7011C50.433 54.7748 51.6752 57.7506 52.0588 58.9466C52.604 60.6465 52.6978 62.4313 53.505 63.9113C54.3909 65.5356 56.5783 66.4464 57.6549 68.061C58.6042 67.4282 57.6915 62.6139 57.4242 61.1445C56.2207 54.5257 52.4568 48.5179 47.7411 43.3919C47.1339 42.7318 46.5309 42.0665 45.8966 41.4322C45.4174 40.9531 42.5041 38.4616 41.5314 38.4974Z" fill="#294049" fill-rule="nonzero" opacity="1" stroke="none"/>
<path d="M78.2894 117.515C78.8629 118.375 83.5433 116.45 84.6295 116.016C91.9118 113.103 98.2669 108.994 104.111 103.682C103.476 103.046 98.7953 104.509 97.6556 104.834C90.2369 106.954 83.1102 111.489 78.2894 117.515Z" fill="#bccac7" fill-rule="nonzero" opacity="1" stroke="none"/>
<path d="M24.34 103.682C28.404 109.1 37.6344 113.495 43.937 116.016C44.8973 116.4 50.1842 118.299 50.623 117.86C44.1206 111.358 39.0091 107.313 30.3343 104.834C29.4111 104.571 24.7358 103.286 24.34 103.682Z" fill="#bccac7" fill-rule="nonzero" opacity="1" stroke="none"/>
<path d="M66.3006 55.6113C65.9599 55.9521 65.8345 56.7593 66.1853 57.1098C66.5411 56.754 66.5436 56.5086 66.7618 56.0725C66.5311 55.8418 66.5311 55.8418 66.3006 55.6113Z" fill="#b2b3ad" fill-rule="nonzero" opacity="1" stroke="none"/>
<path d="M61.3676 77.3486C56.5223 72.336 51.8551 66.9804 45.6612 63.6411C39.3901 60.2602 30.8713 56.5192 25.5886 51.3069C22.6553 48.4128 21.3903 46.7135 19.1785 44.275C18.3881 43.4036 17.2702 42.4896 17.4302 41.8743C17.4671 41.7323 18.5114 41.8825 19.5928 42.4346C20.6741 42.9866 21.809 43.9532 21.809 43.9532C22.5058 44.4999 26.2293 48.3395 31.6232 51.5891C33.1157 52.4882 34.987 53.93 41.6779 57.279C45.406 59.1451 49.1949 60.962 51.4809 62.4282C53.9976 64.0424 56.4189 65.9951 58.8023 67.9665C60.4877 69.3606 62.1541 70.7641 63.8218 72.0638C63.4288 72.2805 62.8387 72.2819 62.584 72.4868C61.1592 73.6334 61.6136 74.5546 61.3676 77.3486Z" fill="#294049" fill-rule="nonzero" opacity="1" stroke="none"/>
<path d="M108.297 43.4633C109.858 42.6954 108.369 44.5113 107.908 45.1367C107.428 45.7881 106.581 47.0779 105.885 47.8764C105.188 48.6748 104.689 49.3458 103.875 50.136C102.957 51.0276 102.704 51.3464 101.441 52.3086C100.392 53.108 100.343 53.2249 99.0189 54.1558C97.5052 55.2202 97.4499 55.1891 96.0613 56.0308C95.0782 56.6266 94.6263 56.8547 94.0224 57.2091C92.6193 58.0324 91.3344 58.5381 89.7487 59.3529C88.6016 59.9423 87.3657 60.4823 86.5632 60.9722C85.7714 61.4555 83.9912 62.3981 82.9004 63.1465C77.2197 67.0442 71.8475 72.709 66.4875 77.0373C66.4831 76.8883 67.1079 75.6545 67.1042 75.5256C67.0866 74.9061 67.0649 74.4925 66.9092 74.0367C66.5974 73.1238 66.3537 72.9835 66.2029 72.8475C65.9827 72.6489 65.6066 72.4997 64.974 72.2785C70.1609 68.2953 75.1903 63.323 80.446 59.9486C80.6707 59.8043 81.195 59.4603 81.195 59.4603C81.195 59.4603 82.3795 58.7071 82.9882 58.3454C86.0551 56.5225 91.3668 54.4895 94.4557 52.7598C98.9008 50.2708 101.272 48.1655 104.945 45.813C104.945 45.813 106.884 44.429 107.097 44.2829C107.31 44.1369 108.297 43.4633 108.297 43.4633Z" fill="#294049" fill-rule="nonzero" opacity="1" stroke="none"/>
<path d="M64.3368 19.0757C65.0552 19.2427 65.6845 21.2563 65.9492 23.4916C66.3238 26.655 66.3001 32.8383 66.3562 38.0148C66.3831 40.5024 66.4129 43.019 66.4446 45.5546L66.6603 58.1406L66.8676 73.843C66.6755 73.3017 65.3205 72.9334 64.2587 72.9162C63.1969 72.899 61.8679 73.2655 61.5332 73.8135C61.5183 66.0165 61.7581 57.6785 61.7554 49.8815C61.7534 44.3286 61.6995 38.7751 61.7861 33.223C61.8131 31.487 61.9087 28.705 62.114 26.1069C62.2115 24.8728 62.3922 23.216 62.6492 22.2098C62.9625 20.983 63.3001 19.1244 64.3368 19.0757Z" fill="#294049" fill-rule="nonzero" opacity="1" stroke="none"/>
<path d="M60.0522 71.5668C60.0522 71.5668 47.6938 72.9338 41.2977 73.5123C35.9136 73.9993 32.9725 74.2775 26.6566 72.4916C20.3407 70.7058 16.3407 65.8549 16.3407 65.8549C16.3407 65.8549 13.0289 62.8501 10.6532 58.8445C8.27752 54.8389 7.14882 52.3264 5.86709 48.3518C5.09663 45.9626 4.45746 42.6515 4.14142 40.666C3.49506 36.6054 3.55923 36.4903 3.47737 33.8498C3.39552 31.2093 3.72716 29.3129 4.16021 31.2767C4.87479 34.5172 5.32792 37.3917 6.44719 41.0122C8.01406 46.0806 8.54676 47.8412 10.5062 52.3682C11.3189 54.2459 13.7897 58.8733 19.9558 63.6746C22.8205 65.9052 23.9057 67.1633 29.2974 68.8285C34.689 70.4937 35.4407 70.1712 40.8922 70.7614C44.406 71.1417 47.5998 71.0135 49.8213 71.1539C53.3103 71.3744 60.0522 71.5668 60.0522 71.5668Z" fill="#294043" fill-rule="nonzero" opacity="1" stroke="none"/>
<path d="M88.6752 103.928" fill="#bccac7" fill-rule="nonzero" opacity="1" stroke="none"/>
<path d="M32.6659 69.7118" fill="#bccac7" fill-rule="nonzero" opacity="1" stroke="none"/>
<path d="M21.8504 64.43" fill="#bccac7" fill-rule="nonzero" opacity="1" stroke="none"/>
<path d="M71.0274 70.6478C74.9762 72.2698 78.6046 73.3424 88.0097 73.9331C96.2415 74.45 102.846 73.1149 110.345 67.9931C115.409 64.5346 117.903 59.3549 117.903 59.3549C117.903 59.3549 120.269 56.0772 121.45 52.2838C124.505 42.4771 124.198 42.2129 124.604 36.5055C125.029 30.5375 124.837 31.2162 124.601 30.611C124.364 30.0058 123.642 33.0394 122.795 36.8904C121.622 42.2247 121 44.8736 120.058 47.8777C119.099 50.9387 118.416 52.8217 115.341 57.4917C113.74 59.9232 111.878 62.3091 106.982 65.6059C104.137 67.5218 101.891 68.8071 97.841 69.737C92.3445 70.9992 89.233 71.4671 82.7576 71.3932" fill="#294043" fill-rule="nonzero" opacity="1" stroke="none"/>
<path d="M66.4025 56.5101C66.8404 55.7878 69.6953 51.0214 70.1799 50.4824C73.6464 46.6262 74.6235 46.4794 76.7828 42.0768C77.463 40.6898 78.2236 38.8158 78.2253 37.1612C78.226 36.4379 77.2798 38.3909 75.7366 40.9815C74.4932 43.0688 71.7855 44.9966 68.6046 50.341C67.4536 52.2749 66.7507 54.1087 66.6305 54.3683C65.9237 55.8954 65.4374 58.102 66.4025 56.5101Z" fill="#294043" fill-rule="nonzero" opacity="1" stroke="none"/>
<path d="M61.9121 56.847C61.6015 56.9546 60.8747 54.5158 59.3292 52.0696C57.7836 49.6235 58.0445 49.845 55.0626 46.2203C52.7923 43.4606 50.486 39.5259 49.7309 37.2915C49.141 35.546 50.9915 38.2338 52.5774 40.0341C53.3867 40.9528 56.4106 44.4732 57.4784 46.0653C59.7798 49.4964 59.8822 49.9765 60.5713 51.639C61.918 54.888 62.2226 56.7393 61.9121 56.847Z" fill="#294043" fill-rule="nonzero" opacity="1" stroke="none"/>
<path d="M69.7105 58.66" fill="#294043" fill-rule="nonzero" opacity="1" stroke="none"/>
</g>
</g>
</svg>
