<?xml version="1.0" encoding="UTF-8" standalone="no"?>
<!DOCTYPE svg PUBLIC "-//W3C//DTD SVG 1.1//EN" "http://www.w3.org/Graphics/SVG/1.1/DTD/svg11.dtd">
<!-- Created with Vectornator (http://vectornator.io/) -->
<svg height="100%" stroke-miterlimit="10" style="fill-rule:nonzero;clip-rule:evenodd;stroke-linecap:round;stroke-linejoin:round;" version="1.1" viewBox="0 0 512 490.88" width="100%" xml:space="preserve" xmlns="http://www.w3.org/2000/svg" xmlns:vectornator="http://vectornator.io" xmlns:xlink="http://www.w3.org/1999/xlink">
<defs/>
<clipPath id="ArtboardFrame">
<rect height="490.88" width="512" x="0" y="0"/>
</clipPath>
<g clip-path="url(#ArtboardFrame)" id="Layer-1" vectornator:layerName="Layer-1">
<g opacity="1">
<path d="M269.663 352.948C267.48 350.765 268.764 346.82 268.741 343.734C268.608 324.998 268.58 306.26 268.281 287.526C268.165 280.254 259.638 277.851 253.998 277.851C244.296 277.851 244.829 292.293 244.784 297.662C244.633 315.784 244.323 333.905 244.323 352.027C244.323 352.37 244.63 352.641 244.784 352.948C244.323 353.409 244.323 353.409 243.863 353.869C203.091 313.098 140.908 295.441 85.375 288.908C67.8971 286.851 50.5262 287.065 32.8529 287.065C32.5093 287.065 32.2384 287.372 31.9315 287.526C29.8426 285.437 29.3358 278.233 28.7065 275.086C26.0048 261.58 25.0161 248.3 24.0993 234.543C23.5685 226.586 16.7093 217.043 7.51336 220.721C-1.65128 224.388 0.141843 235.058 0.141843 243.297C0.141843 252.209 1.18583 261.201 2.44544 270.018C9.10469 316.632 29.0068 361.97 59.114 398.099C143.076 498.852 289.542 520.912 399.125 447.856C457.348 409.042 493.892 350.43 507.394 282.919C511.031 264.735 512.002 247.316 512.002 228.554C512.002 225.601 507.233 221.372 504.63 220.721C487.032 216.322 488.842 238.452 488.044 248.825C487.437 256.723 486.234 264.536 484.819 272.322C484.38 274.738 483.545 286.491 480.673 287.065C471.937 288.812 462.859 286.604 453.951 286.604C441.485 286.604 428.289 288.152 415.711 289.829C361.654 297.037 311.412 318.156 269.663 352.948Z" fill="#294043" fill-rule="nonzero" opacity="1" stroke="none"/>
<path d="M223.13 274.165C221.355 270.614 216.476 267.883 213.455 265.411C203.516 257.279 193.12 249.892 182.126 243.297C145.095 221.078 99.8333 204.948 79.3856 164.053C79.8464 163.592 79.8464 163.592 80.3071 163.131C87.1654 169.99 95.7817 174.83 103.804 180.178C124.181 193.763 146.008 204.026 166.922 216.575C182.807 226.105 199.395 232.946 213.455 245.6C217.044 243.207 211.626 232.965 210.23 229.475C204.672 215.581 192.656 202.489 189.037 188.01C173.55 126.065 120.638 108.41 63.2605 104.159C58.3593 103.796 53.4259 103.92 48.5174 104.159C43.0376 104.427 18.7558 106.232 14.8849 111.07C13.1295 113.265 14.5965 128.853 14.8849 133.185C16.0053 149.993 19.024 166.329 23.6386 182.482C35.9794 225.676 66.491 267.848 111.175 280.615C132.813 286.797 156.046 284.911 177.98 281.536C188.857 279.863 199.769 278.295 210.691 276.929C214.307 276.477 220.355 276.94 223.13 274.165Z" fill="#294043" fill-rule="nonzero" opacity="1" stroke="none"/>
<path d="M298.688 245.6C303.337 243.276 307.839 239.93 312.325 236.477C316.812 233.024 321.283 229.464 325.871 226.711C343.445 216.166 361.5 206.857 379.322 197.065C397.145 187.272 414.734 176.995 431.376 164.514L432.067 164.975L432.758 165.435C430.824 167.368 429.235 169.833 427.715 172.367C426.194 174.901 424.743 177.505 423.083 179.717C419.632 184.319 415.87 188.75 411.8 192.866C407.73 196.983 403.351 200.787 398.664 204.135C390.911 209.673 382.766 214.494 374.47 218.976C366.174 223.457 357.726 227.599 349.367 231.779C338.818 237.053 328.621 243.551 318.904 250.722C309.186 257.893 299.948 265.738 291.317 273.704C292.359 275.268 295.438 275.947 298.732 276.299C302.026 276.65 305.536 276.675 307.442 276.929C314.836 277.915 322.183 279.115 329.536 280.275C336.89 281.435 344.25 282.555 351.671 283.379C389.475 287.579 421.086 276.495 445.006 255.563C468.925 234.632 485.153 203.852 492.191 168.66C493.916 160.033 495.092 151.552 495.94 143.019C496.788 134.485 497.308 125.899 497.719 117.059C497.764 116.093 498.089 115.03 498.241 113.991C498.392 112.951 498.369 111.937 497.719 111.07C496.062 108.861 488.613 107.312 480.984 106.284C473.355 105.256 465.545 104.749 463.165 104.62C461.4 104.525 459.634 104.445 457.868 104.371C456.102 104.297 454.335 104.229 452.569 104.159C452.415 104.153 452.261 104.162 452.107 104.167C451.953 104.173 451.799 104.176 451.647 104.159C434.625 102.268 414.26 105.817 395.087 112.902C375.914 119.987 357.934 130.608 345.682 142.86C339.743 148.798 336.035 156.792 332.9 165.121C329.766 173.45 327.206 182.114 323.567 189.392C320.015 196.497 315.864 203.423 311.969 210.466C308.075 217.508 304.437 224.667 301.913 232.239C301.404 233.766 300.087 236.595 299.153 239.298C298.218 242.002 297.666 244.579 298.688 245.6Z" fill="#294043" fill-rule="nonzero" opacity="1" stroke="none"/>
<path d="M248.009 218.418C249.854 216.573 248.491 214.892 248.47 212.428C248.172 178.182 248.009 143.935 248.009 109.688C248.009 101.507 249.758 83.0602 256.302 76.5161C261.846 82.0604 264.527 107.219 264.595 113.834C264.877 141.016 265.056 168.199 265.056 195.382C265.056 203.953 261.528 209.362 266.438 214.271C268.759 211.95 269.108 207.178 271.045 204.596C275.378 198.82 278.622 192.037 283.024 186.167C291.245 175.206 306.286 161.765 309.746 147.928C312.342 137.54 317.2 128.107 318.499 117.059C321.594 90.7533 315.294 67.5634 300.992 46.1086C291.987 32.6003 281.054 20.265 268.741 9.71175C266.871 8.10846 258.984-0.634167 256.302 0.0366377C253.651 0.699147 250.526 4.38122 248.47 6.02599C237.883 14.495 228.362 24.019 219.905 34.5906C195.281 65.3722 185.748 105.612 201.016 143.781C207.686 160.456 221.126 174.056 231.423 188.471C236.141 195.076 240.238 201.953 243.863 209.203C245.387 212.252 245.495 215.904 248.009 218.418Z" fill="#294043" fill-rule="nonzero" opacity="1" stroke="none"/>
<path d="M256.302 427.585C266.598 419.348 274.599 404.68 283.945 395.334C310.15 369.129 345.588 352.843 380.696 342.812C400.86 337.051 422.852 332.4 443.815 331.755C451.491 331.519 459.184 331.736 466.851 331.294C467.285 331.269 467.512 330.72 467.772 330.373C469.56 327.989 475.101 316.247 474.683 313.326C473.918 307.972 463.863 311.62 458.558 311.483C443.388 311.094 428.38 311.986 413.407 314.708C352.559 325.772 296.352 350.455 256.763 399.941C245.567 389.763 236.409 377.669 224.512 368.152C192.585 342.61 154.917 325.944 114.861 317.933C97.5371 314.469 80.5199 312.165 62.7997 311.483C55.489 311.202 46.2875 310.589 38.8423 311.483C35.9084 311.835 43.9019 328.519 45.2924 330.373C45.5531 330.72 45.7798 331.277 46.2138 331.294C53.4259 331.588 60.6509 331.176 67.8676 331.294C86.2587 331.595 106.329 334.977 124.075 340.048C175.164 354.644 225.923 382.017 256.302 427.585Z" fill="#fefbf5" fill-rule="nonzero" opacity="1" stroke="none"/>
<path d="M59.5747 355.252C57.0463 355.205 69.2996 373.657 72.0141 375.984C74.1159 377.785 77.5455 376.248 80.3071 376.445C85.5473 376.819 90.7875 377.423 95.9716 378.288C115.488 381.54 133.927 387.573 152.179 394.873C175.284 404.116 200.25 422.796 215.759 441.406C217.311 443.269 232.605 466.986 233.266 467.206C234.265 467.539 243.155 468.362 244.323 468.128C247.2 467.553 245.122 462.305 245.245 459.374C245.489 453.503 242.223 449.578 239.255 444.631C231.161 431.142 220.614 419.153 208.848 408.695C168.105 372.479 112.891 356.234 59.5747 355.252Z" fill="#fefbf5" fill-rule="nonzero" opacity="1" stroke="none"/>
<path d="M281.181 467.206C285.433 462.954 289.852 451.653 294.081 446.013C304.815 431.702 333.766 402.805 354.435 397.638C362.256 395.682 370.35 391.457 377.932 388.423C389.328 383.865 401.895 381.604 413.868 379.209C422.569 377.468 431.336 377.324 440.129 376.445C440.471 376.411 440.783 376.199 441.051 375.984C446.868 371.331 450.331 362.754 454.412 356.634C450.388 352.61 443.054 355.593 437.365 355.712C426.745 355.933 415.922 358.021 405.575 360.319C360.962 370.233 322.982 389.009 290.395 421.595C282.983 429.007 271.014 442.455 268.281 453.385C267.739 455.55 269.212 452.832 269.663 455.688C270.046 458.116 269.28 460.633 269.663 463.06C270.141 466.088 278.851 465.808 281.181 467.206Z" fill="#fefbf5" fill-rule="nonzero" opacity="1" stroke="none"/>
<path d="M299.61 245.6C297.227 243.217 305.371 225.324 307.442 221.182C312.743 210.579 322.533 199.058 325.41 187.55C328.9 173.586 336.312 158.528 344.3 146.546C340.547 141.542 319.915 165.189 317.578 167.739C300.856 185.98 284.165 215.125 282.563 239.15C282.311 242.923 279.024 261.338 280.72 262.186C281.742 262.697 282.594 261.32 283.024 260.804C288.182 254.615 294.495 250.715 299.61 245.6Z" fill="#bccac7" fill-rule="nonzero" opacity="1" stroke="none"/>
<path d="M167.619 145.631C177.669 155.681 182.926 175.036 188.116 188.01C190.811 194.75 198.282 208.922 198.483 209.183C198.684 209.445 204.771 217.204 205.989 222.074C207.652 228.728 210.69 239.225 213.916 245.14C217.457 251.632 226.199 255.272 230.502 261.725C234.296 259.196 230.648 239.955 229.58 234.082C224.77 207.629 209.727 183.618 190.88 163.131C188.453 160.493 186.043 157.834 183.508 155.299C181.593 153.384 171.204 142.046 167.619 145.631Z" fill="#bccac7" fill-rule="nonzero" opacity="1" stroke="none"/>
<path d="M312.971 459.374C315.263 462.812 333.969 455.121 338.31 453.385C367.415 441.743 392.814 425.322 416.172 404.088C413.633 401.549 394.926 407.394 390.371 408.695C360.721 417.167 332.238 435.29 312.971 459.374Z" fill="#bccac7" fill-rule="nonzero" opacity="1" stroke="none"/>
<path d="M97.3537 404.088C113.596 425.744 150.487 443.309 175.676 453.385C179.514 454.92 200.644 462.51 202.398 460.756C176.41 434.768 155.981 418.601 121.311 408.695C117.621 407.641 98.9358 402.506 97.3537 404.088Z" fill="#bccac7" fill-rule="nonzero" opacity="1" stroke="none"/>
<path d="M268.741 453.846C265.585 457.002 267.513 462.753 267.82 467.206C267.979 469.512 280.494 466.972 281.181 466.285C280.259 465.364 280.259 465.364 279.338 464.442C269.017 469.602 271.95 457.054 268.741 453.846Z" fill="#b2b3ad" fill-rule="nonzero" opacity="1" stroke="none"/>
<path d="M265.056 211.968C263.694 213.33 263.193 216.556 264.595 217.957C266.017 216.535 266.027 215.554 266.899 213.811C265.977 212.889 265.977 212.889 265.056 211.968Z" fill="#b2b3ad" fill-rule="nonzero" opacity="1" stroke="none"/>
</g>
<path d="M248.536 216.759C247.955 180.557 246.246 144.307 247.96 108.141C248.469 97.4146 249.225 85.0077 256.364 76.283C261.784 86.4073 264.275 96.5516 264.562 108.438C265.942 165.69 266.532 225.962 267.092 283.227C265.196 280.144 261.138 278.341 257.062 278.223C253.319 278.114 249.409 279.084 247.069 282.554C246.615 246.784 248.703 243.289 248.249 207.519C248.392 212.139 248.392 212.139 248.536 216.759Z" fill="#f2f8f7" fill-rule="nonzero" opacity="1" stroke="none"/>
<path d="M432.9 163.416C439.138 160.348 433.599 164.962 432.107 166.427C430.657 167.851 428.515 170.793 427.5 172.563C425.408 176.21 425.647 175.891 424.992 177.013C421.621 182.789 418.095 186.788 414.844 189.946C411.175 193.51 410.548 194.922 405.5 198.768C401.306 201.963 401.11 202.43 395.82 206.151C389.77 210.405 389.549 210.281 383.999 213.644C380.07 216.026 378.264 216.937 375.85 218.354C370.243 221.644 365.107 223.665 358.77 226.922C354.185 229.277 349.246 231.436 346.038 233.394C342.874 235.325 335.759 239.092 331.4 242.083C308.696 257.661 289.796 276.514 268.374 293.812C268.357 293.217 268.282 292.074 268.268 291.558C268.197 289.083 268.11 287.429 267.488 285.608C266.242 281.959 265.268 281.399 264.666 280.855C263.785 280.061 262.282 279.465 259.754 278.581C280.484 262.661 300.585 242.789 321.59 229.302C322.488 228.726 324.584 227.351 324.584 227.351C324.584 227.351 329.318 224.341 331.75 222.895C344.008 215.61 356.972 209.337 369.317 202.424C387.083 192.476 404.824 182.21 419.505 172.807C419.505 172.807 427.252 167.276 428.104 166.692C428.956 166.109 432.9 163.416 432.9 163.416Z" fill="#f2f8f7" fill-rule="nonzero" opacity="1" stroke="none"/>
<path d="M244.592 298.254C225.227 278.22 206.865 258.221 182.567 244.06C147.902 223.857 94.0218 203.89 78.9119 161.759C118.871 193.362 161.85 211.007 205.826 239.213C222.998 250.226 239.058 265.183 255.149 277.723C253.578 278.589 251.22 278.594 250.202 279.413C244.507 283.996 245.575 287.087 244.592 298.254Z" fill="#f2f8f7" fill-rule="nonzero" opacity="1" stroke="none"/>
</g>
</svg>
