<?xml version="1.0" encoding="UTF-8" standalone="no"?>
<!DOCTYPE svg PUBLIC "-//W3C//DTD SVG 1.1//EN" "http://www.w3.org/Graphics/SVG/1.1/DTD/svg11.dtd">
<!-- Created with Vectornator (http://vectornator.io/) -->
<svg height="100%" stroke-miterlimit="10" style="fill-rule:nonzero;clip-rule:evenodd;stroke-linecap:round;stroke-linejoin:round;" version="1.1" viewBox="0 0 24 24" width="100%" xml:space="preserve" xmlns="http://www.w3.org/2000/svg" xmlns:vectornator="http://vectornator.io" xmlns:xlink="http://www.w3.org/1999/xlink">
<defs/>
<clipPath id="ArtboardFrame">
<rect height="24" width="24" x="0" y="0"/>
</clipPath>
<g clip-path="url(#ArtboardFrame)" id="Layer-1" vectornator:layerName="Layer-1">
<path d="M0 12C0 5.37259 5.37259 5.68434e-14 12 5.68434e-14C18.6274 5.68434e-14 24 5.37259 24 12C24 18.6274 18.6274 24 12 24C5.37259 24 0 18.6274 0 12Z" fill="#3c8374" fill-rule="nonzero" opacity="1" stroke="none"/>
<g opacity="1">
<path d="M12.5854 16.9419C12.4933 16.8499 12.5475 16.6834 12.5465 16.5532C12.5408 15.7628 12.5397 14.9722 12.5271 14.1819C12.5222 13.8751 12.1625 13.7737 11.9245 13.7737C11.8702 13.7737 11.8235 13.7844 11.7833 13.8037C11.5208 13.9288 11.5374 14.413 11.5357 14.6095C11.5294 15.3741 11.5163 16.1386 11.5163 16.9031C11.5163 16.9176 11.5293 16.929 11.5357 16.9419C11.5163 16.9613 11.5163 16.9613 11.4969 16.9808C9.77681 15.2607 7.15341 14.5158 4.81058 14.2402C4.07321 14.1534 3.34036 14.1624 2.59476 14.1624C2.58025 14.1624 2.56883 14.1754 2.55588 14.1819C2.46775 14.0937 2.44637 13.7899 2.41982 13.657C2.30585 13.0872 2.26413 12.527 2.22546 11.9466C2.20306 11.6109 1.91368 11.2083 1.52572 11.3635C1.13907 11.5182 1.21473 11.9683 1.21473 12.3159C1.21473 12.6919 1.25877 13.0713 1.31191 13.4433C1.59285 15.4098 2.43249 17.3226 3.70267 18.8467C7.24488 23.0974 13.4241 24.028 18.0472 20.946C20.5035 19.3085 22.0453 16.8357 22.6149 13.9875C22.7683 13.2203 22.7913 12.5614 22.7913 11.7698C22.7913 11.7142 22.7826 11.5808 22.7188 11.475C22.6506 11.3618 22.5509 11.3376 22.4895 11.3254C21.891 11.206 21.8322 12.1116 21.7986 12.5491C21.773 12.8824 21.7222 13.212 21.6624 13.5404C21.644 13.6424 21.6087 14.1382 21.4876 14.1624C21.119 14.2361 20.736 14.143 20.3602 14.143C19.8343 14.143 19.2776 14.2083 18.7469 14.2791C16.4663 14.5832 14.3467 15.4741 12.5854 16.9419Z" fill="#294043" fill-rule="nonzero" opacity="1" stroke="none"/>
<path d="M10.6193 13.6153C10.5444 13.4655 10.3386 13.3503 10.2112 13.2459C9.79191 12.9029 9.35326 12.5913 8.88944 12.313C7.32716 11.3756 5.41763 10.6951 4.55497 8.96982C4.57442 8.9504 4.4257 8.82183 4.60719 8.87544C4.89652 9.16482 5.24431 9.52322 5.58274 9.74887C5.97417 10.0098 6.27966 10.2792 6.68698 10.5044C7.17436 10.7737 7.69048 11.0282 8.17107 11.3166C8.84126 11.7187 9.618 11.8763 10.2112 12.4102C10.3626 12.3092 10.134 11.8771 10.0751 11.7299C9.92203 11.3471 9.80944 10.778 9.7485 10.654C9.65944 10.4726 9.40294 10.1115 9.27852 9.78769C8.35128 7.37353 6.29534 6.62236 3.87468 6.443C3.66791 6.4277 3.45978 6.43292 3.25269 6.443C3.02151 6.45429 1.9971 6.53047 1.83379 6.73457C1.75973 6.82718 1.82163 7.48481 1.83379 7.66755C1.88106 8.37665 2.00842 9.06585 2.2031 9.74738C2.72374 11.5696 4.01097 13.3488 5.89611 13.8874C6.80898 14.1482 7.78916 14.0686 8.71451 13.9263C9.17339 13.8557 9.63375 13.7895 10.0945 13.7319C10.2472 13.7128 10.5023 13.7324 10.6193 13.6153Z" fill="#bccac7" fill-rule="nonzero" opacity="1" stroke="none"/>
<path d="M13.807 12.4102C14.0032 12.3122 14.1931 12.171 14.3824 12.0253C14.5716 11.8796 14.7603 11.7294 14.9538 11.6133C15.6953 11.1684 16.5278 10.8699 17.2797 10.4568C18.0316 10.0436 18.7028 9.51581 19.4048 8.9893L19.4341 9.00874L19.4632 9.02813C19.3816 9.10973 19.3146 9.21368 19.2504 9.32058C19.2363 9.3441 19.2223 9.36779 19.2083 9.39141C19.1588 9.47503 19.1096 9.55791 19.0551 9.63066C18.9094 9.82481 18.7507 10.0117 18.579 10.1855C18.4072 10.3591 18.2226 10.5196 18.0248 10.6609C17.6978 10.8945 17.3542 11.0978 17.0041 11.2869C16.6541 11.476 16.2978 11.6507 15.9451 11.8271C15.5001 12.0496 15.0698 12.3237 14.6599 12.6262C14.2499 12.9288 13.8602 13.2597 13.4961 13.5958C13.54 13.6618 13.6699 13.6905 13.8088 13.7053C13.9478 13.7201 14.0959 13.7212 14.1763 13.7319C14.4883 13.7735 14.7983 13.8242 15.1085 13.8731C15.4187 13.922 15.7292 13.9692 16.0423 14.004C17.6372 14.1812 18.9708 13.7137 19.9799 12.8305C20.989 11.9474 21.6737 10.6489 21.9706 9.16419C22.0433 8.8002 22.093 8.44245 22.1287 8.08242C22.1646 7.72243 22.1864 7.36016 22.2038 6.98723C22.2057 6.94652 22.2194 6.90162 22.2258 6.85778C22.2322 6.81395 22.2312 6.77116 22.2038 6.73457C22.1339 6.64137 21.8197 6.57603 21.4978 6.53266C21.1759 6.48928 20.8464 6.46787 20.746 6.46247C20.6716 6.45843 20.5971 6.45505 20.5225 6.45193C20.448 6.44881 20.3735 6.44599 20.299 6.443C20.2925 6.44274 20.286 6.44312 20.2795 6.44333C20.2731 6.44359 20.2665 6.44371 20.2601 6.443C19.542 6.36324 18.6828 6.51297 17.8739 6.81184C17.065 7.11074 16.3065 7.55884 15.7897 8.07576C15.5391 8.32623 15.2616 8.68702 15.1294 9.03841C14.9971 9.38981 14.7903 9.681 14.6368 9.98803C14.4869 10.2878 14.3648 10.5244 14.2005 10.8215C14.0362 11.1186 13.9808 11.5318 13.8743 11.8511C13.8529 11.9155 13.8448 12.0074 13.8054 12.1214C13.766 12.2355 13.7639 12.367 13.807 12.4102Z" fill="#bccac7" fill-rule="nonzero" opacity="1" stroke="none"/>
<path d="M11.669 11.2634C11.7468 11.1856 11.6892 11.1146 11.6884 11.0107C11.6758 9.56588 11.669 8.12108 11.669 6.67628C11.669 6.33112 11.7427 5.55288 12.0188 5.27679C12.1583 5.41623 12.2547 5.84974 12.3106 6.23628C12.3484 6.49813 12.3675 6.73845 12.3687 6.85117C12.3805 7.99794 12.3881 9.14476 12.3881 10.2915C12.3881 10.6532 12.2393 10.8814 12.4464 11.0885C12.5443 10.9905 12.559 10.7892 12.6408 10.6803C12.8236 10.4366 12.9605 10.1504 13.1462 9.90281C13.493 9.44034 14.1276 8.8733 14.2735 8.28956C14.383 7.85129 14.588 7.45332 14.6428 6.98723C14.7733 5.87743 14.5075 4.89909 13.9042 3.99395C13.5243 3.42406 13.063 2.90365 12.5436 2.45842C12.4647 2.39078 12.1319 2.02194 12.0188 2.05025C11.907 2.07819 11.7751 2.23354 11.6884 2.30292C11.2418 2.66022 10.84 3.06202 10.4832 3.50802C9.44447 4.80665 9.04225 6.50429 9.68634 8.11458C9.96778 8.81808 10.5348 9.39188 10.9692 10C11.1682 10.2787 11.341 10.5688 11.494 10.8746C11.5583 11.0032 11.5628 11.1574 11.669 11.2634Z" fill="#bccac7" fill-rule="nonzero" opacity="1" stroke="none"/>
<path d="M12.0188 20.0878C12.4532 19.7404 12.7907 19.1215 13.185 18.7272C14.2906 17.6217 15.7856 16.9346 17.2668 16.5114C18.1175 16.2683 19.0453 16.0721 19.9297 16.0449C20.2535 16.0349 20.578 16.0441 20.9016 16.0254C20.9198 16.0244 20.9294 16.0012 20.9404 15.9866C21.0158 15.886 21.2496 15.3907 21.2319 15.2675C21.1997 15.0415 20.9131 15.1178 20.6893 15.1121C20.0493 15.0956 19.2785 15.2109 18.6468 15.3257C16.0797 15.7926 13.7084 16.8338 12.0383 18.9216C11.5659 18.4922 11.1795 17.982 10.6777 17.5805C9.33067 16.5029 7.74153 15.7998 6.05161 15.4618C5.32076 15.3157 4.60283 15.2184 3.85524 15.1897C3.54682 15.1778 3.15862 15.152 2.84452 15.1897C2.72074 15.2046 3.05798 15.9084 3.11663 15.9866C3.12763 16.0012 3.1372 16.0248 3.1555 16.0254C3.45978 16.0378 3.76459 16.0205 4.06905 16.0254C4.84493 16.0382 5.69167 16.1809 6.44034 16.3948C8.59572 17.0106 10.7372 18.1654 12.0188 20.0878Z" fill="#fefbf5" fill-rule="nonzero" opacity="1" stroke="none"/>
<path d="M3.71918 17.0363C3.61252 17.0342 4.08756 17.7017 4.17415 17.8252C4.23817 17.9165 4.47735 17.922 4.59385 17.9303C4.81492 17.9461 5.036 17.9716 5.25472 18.0081C6.07808 18.1452 6.85598 18.3998 7.62603 18.7077C8.60078 19.0977 9.65409 19.8858 10.3084 20.6709C10.3738 20.7495 11.0046 21.6266 11.0324 21.6359C11.0552 21.6435 11.1554 21.7277 11.273 21.7703C11.3722 21.8063 11.4908 21.8028 11.5134 21.7983C11.6347 21.774 11.5856 21.6096 11.5908 21.4859C11.6011 21.2382 11.4248 21.0157 11.2996 20.807C10.9582 20.2379 10.5132 19.7321 10.0168 19.2909C8.29791 17.763 5.96853 17.0777 3.71918 17.0363Z" fill="#fefbf5" fill-rule="nonzero" opacity="1" stroke="none"/>
<path d="M13.0718 21.6804C13.2512 21.501 13.4342 21.1032 13.6126 20.8653C14.0655 20.2615 14.4516 19.7724 15.2121 19.1961C15.375 19.0726 16.0522 18.6114 16.5001 18.4923C16.9832 18.3638 17.1558 18.3228 17.2898 18.2925C17.8341 18.1692 18.0858 18.1463 18.637 18.0713C19.008 18.0209 19.4032 17.9674 19.7742 17.9303C19.7886 17.9288 19.8018 17.9199 19.813 17.9108C19.9739 17.7822 20.0554 17.6704 20.1619 17.4728C20.2178 17.369 20.4077 17.1091 20.4245 17.0007C20.3586 16.9348 20.165 16.9693 20.0409 16.9752C19.8451 16.9846 19.7197 17.011 19.6003 17.0208C19.3374 17.0425 18.7529 17.1531 18.3164 17.25C16.4342 17.6682 14.8319 18.4603 13.4572 19.8352C13.1444 20.1478 12.6395 20.7152 12.5242 21.1763C12.5013 21.2677 12.4278 21.5 12.4467 21.6204C12.4629 21.7229 12.5205 21.77 12.6844 21.8044C12.8109 21.831 12.8961 21.7767 13.0718 21.6804Z" fill="#fefbf5" fill-rule="nonzero" opacity="1" stroke="none"/>
<path d="M13.8459 12.4102C13.7568 12.321 13.8693 12.0171 13.9692 11.727C14.0586 11.4675 14.205 11.1136 14.3155 10.8534C14.4415 10.5571 14.4577 10.4736 14.6363 10.1146C14.8079 9.77016 14.9094 9.66347 15.0803 9.35894C15.2102 9.12748 15.3009 9.00671 15.5137 8.61232C15.6321 8.39288 15.749 8.23248 15.9258 7.9673C15.7103 7.9549 14.7025 9.01776 14.6039 9.12532C13.8984 9.89494 13.1943 11.1245 13.1267 12.1381C13.1161 12.2972 12.9774 13.0742 13.049 13.1099C13.0921 13.1315 13.128 13.0734 13.1462 13.0516C13.3638 12.7905 13.6301 12.626 13.8459 12.4102Z" fill="#294049" fill-rule="nonzero" opacity="1" stroke="none"/>
<path d="M8.2117 8.10569C8.63569 8.52967 9.12036 9.58547 9.26895 9.89991C9.41812 10.2156 9.57816 10.5823 9.70641 10.8378C9.71259 10.8503 9.92203 11.352 9.98681 11.5537C10.0787 11.8402 10.0945 12.1412 10.2306 12.3907C10.38 12.6647 10.7488 12.8182 10.9303 13.0905C11.0903 12.9838 10.9365 12.172 10.8914 11.9243C10.6885 10.8083 10.0538 9.79528 9.25875 8.93092C9.15636 8.81963 9.05468 8.70746 8.94774 8.60052C8.86693 8.51972 8.37573 8.09966 8.2117 8.10569Z" fill="#294049" fill-rule="nonzero" opacity="1" stroke="none"/>
<path d="M14.4096 21.4289C14.5063 21.574 15.2955 21.2496 15.4786 21.1763C16.7065 20.6852 17.778 19.9924 18.7634 19.0965C18.6563 18.9894 17.8672 19.236 17.675 19.2909C16.4241 19.6483 15.2224 20.4129 14.4096 21.4289Z" fill="#bccac7" fill-rule="nonzero" opacity="1" stroke="none"/>
<path d="M5.31302 19.0965C5.99825 20.0102 7.55462 20.7512 8.6173 21.1763C8.77922 21.241 9.67069 21.5613 9.74466 21.4873C8.64829 20.3909 7.78642 19.7088 6.32375 19.2909C6.16808 19.2464 5.37977 19.0298 5.31302 19.0965Z" fill="#bccac7" fill-rule="nonzero" opacity="1" stroke="none"/>
<path d="M12.3881 10.9912C12.3307 11.0487 12.3095 11.1848 12.3687 11.2439C12.4286 11.184 12.4291 11.1426 12.4658 11.0691C12.4269 11.0302 12.4269 11.0302 12.3881 10.9912Z" fill="#b2b3ad" fill-rule="nonzero" opacity="1" stroke="none"/>
<path d="M11.5564 14.6565C10.7393 13.8113 9.95241 12.9083 8.90803 12.3452C7.85066 11.7752 6.4143 11.1443 5.52355 10.2655C5.02897 9.77756 4.81566 9.49097 4.44274 9.07985C4.30946 8.9329 4.12096 8.77883 4.14794 8.67504C4.15417 8.65111 4.33025 8.67644 4.51258 8.76952C4.69491 8.86259 4.88627 9.02559 4.88627 9.02559C5.00376 9.11779 5.6316 9.76519 6.54105 10.3131C6.7927 10.4648 7.10822 10.7078 8.23641 11.2725C8.86504 11.5871 9.50391 11.8935 9.88931 12.1407C10.3137 12.4129 10.7219 12.7421 11.1238 13.0746C11.408 13.3096 11.6889 13.5462 11.9702 13.7654C11.9039 13.802 11.8043 13.8022 11.7615 13.8367C11.5212 14.0301 11.5978 14.1854 11.5564 14.6565Z" fill="#294049" fill-rule="nonzero" opacity="1" stroke="none"/>
<path d="M19.4692 8.94297C19.7324 8.81352 19.4814 9.11968 19.4036 9.22515C19.3227 9.33496 19.1799 9.55247 19.0626 9.68709C18.9451 9.82172 18.8608 9.93488 18.7237 10.0681C18.5689 10.2184 18.5262 10.2722 18.3132 10.4344C18.1363 10.5692 18.1281 10.5889 17.9048 10.7459C17.6496 10.9253 17.6403 10.9201 17.4062 11.062C17.2403 11.1625 17.1642 11.201 17.0623 11.2607C16.8258 11.3995 16.6091 11.4848 16.3417 11.6222C16.1483 11.7216 15.9399 11.8126 15.8047 11.8952C15.6712 11.9767 15.371 12.1357 15.187 12.2618C14.2292 12.919 13.3234 13.8742 12.4196 14.604C12.4189 14.5789 12.5242 14.3708 12.5236 14.3491C12.5207 14.2447 12.5169 14.1749 12.4907 14.098C12.4382 13.9441 12.397 13.9205 12.3716 13.8975C12.3345 13.864 12.2711 13.8389 12.1644 13.8016C13.039 13.13 13.887 12.2916 14.7732 11.7226C14.8111 11.6983 14.8995 11.6403 14.8995 11.6403C14.8995 11.6403 15.0993 11.5133 15.2018 11.4523C15.719 11.1449 16.6146 10.8022 17.1354 10.5105C17.8849 10.0908 18.2847 9.73584 18.904 9.33917C18.904 9.33917 19.2309 9.10582 19.2668 9.0812C19.3027 9.05658 19.4692 8.94297 19.4692 8.94297Z" fill="#294049" fill-rule="nonzero" opacity="1" stroke="none"/>
<path d="M12.057 4.83092C12.1781 4.85909 12.2842 5.19861 12.3289 5.5755C12.3921 6.10889 12.388 7.15147 12.3975 8.02429C12.402 8.44375 12.4071 8.86807 12.4124 9.29558L12.4488 11.4178L12.4838 14.0654C12.4513 13.9741 12.2228 13.912 12.0438 13.9091C11.8648 13.9062 11.6407 13.968 11.5842 14.0604C11.5818 12.7458 11.6222 11.3398 11.6217 10.0252C11.6214 9.08891 11.6122 8.15252 11.6269 7.21634C11.6315 6.92362 11.6476 6.45455 11.6822 6.01649C11.6986 5.80839 11.7291 5.52903 11.7725 5.35938C11.8253 5.15251 11.8822 4.83914 12.057 4.83092Z" fill="#294049" fill-rule="nonzero" opacity="1" stroke="none"/>
<path d="M11.3346 13.6816C11.3346 13.6816 9.25078 13.912 8.17229 14.0096C7.26448 14.0917 6.76859 14.1386 5.70364 13.8375C4.63869 13.5364 3.96425 12.7185 3.96425 12.7185C3.96425 12.7185 3.40583 12.2119 3.00526 11.5364C2.60468 10.861 2.41437 10.4375 2.19826 9.76725C2.06835 9.36438 1.96057 8.80611 1.90729 8.47133C1.7983 7.78667 1.80912 7.76723 1.79531 7.32202C1.78151 6.8768 1.83743 6.55706 1.91046 6.88818C2.03094 7.43456 2.10734 7.91924 2.29607 8.5297C2.56027 9.38428 2.65008 9.68119 2.98047 10.4445C3.11751 10.7611 3.5341 11.5413 4.57378 12.3508C5.05682 12.7269 5.23979 12.9391 6.1489 13.2199C7.05802 13.5007 7.18473 13.4463 8.10392 13.5458C8.69638 13.6099 9.23493 13.5883 9.60947 13.6119C10.1978 13.6492 11.3346 13.6816 11.3346 13.6816Z" fill="#294043" fill-rule="nonzero" opacity="1" stroke="none"/>
<path d="" fill="#bccac7" fill-rule="nonzero" opacity="1" stroke="none"/>
<path d="" fill="#bccac7" fill-rule="nonzero" opacity="1" stroke="none"/>
<path d="" fill="#bccac7" fill-rule="nonzero" opacity="1" stroke="none"/>
<path d="M13.1851 13.5266C13.8509 13.8001 14.4627 13.981 16.0485 14.0806C17.4365 14.1677 18.5502 13.9426 19.8145 13.079C20.6683 12.4958 21.089 11.6225 21.089 11.6225C21.089 11.6225 21.4878 11.0698 21.687 10.4302C22.2021 8.77668 22.1503 8.73217 22.2188 7.76981C22.2905 6.76353 22.2581 6.87798 22.2183 6.77592C22.1784 6.67387 22.0567 7.18539 21.9138 7.83469C21.716 8.73414 21.6111 9.18076 21.4523 9.68728C21.2905 10.2035 21.1755 10.5209 20.657 11.3083C20.3871 11.7184 20.073 12.1206 19.2475 12.6765C18.7678 12.9996 18.3891 13.2162 17.7062 13.3731C16.7794 13.5859 16.2548 13.6647 15.1629 13.6523" fill="#294043" fill-rule="nonzero" opacity="1" stroke="none"/>
<path d="M12.4053 11.1428C12.4792 11.0211 12.9605 10.2173 13.0422 10.1265C13.6267 9.47625 13.7915 9.4515 14.1556 8.7092C14.2703 8.47533 14.3985 8.15934 14.3988 7.88038C14.3989 7.75843 14.2393 8.08769 13.9792 8.52452C13.7694 8.87646 13.313 9.2015 12.7766 10.1027C12.5826 10.4287 12.464 10.7379 12.4437 10.7817C12.3246 11.0392 12.2425 11.4113 12.4053 11.1428Z" fill="#294043" fill-rule="nonzero" opacity="1" stroke="none"/>
<path d="M11.6482 11.1997C11.5958 11.2177 11.4732 10.8066 11.2126 10.3941C10.9521 9.98166 10.996 10.0191 10.4933 9.40781C10.1105 8.94251 9.72159 8.2791 9.59428 7.90234C9.49472 7.60803 9.80681 8.06122 10.0742 8.36476C10.2107 8.51967 10.7205 9.11327 10.9006 9.38175C11.2886 9.96028 11.3059 10.0412 11.4221 10.3215C11.6491 10.8694 11.7005 11.1815 11.6482 11.1997Z" fill="#294043" fill-rule="nonzero" opacity="1" stroke="none"/>
<path d="" fill="#294043" fill-rule="nonzero" opacity="1" stroke="none"/>
</g>
<path d="M12.2509 16.4271C12.2509 16.357 12.2509 16.3002 12.2509 16.3002C12.2509 16.3002 12.2509 16.357 12.2509 16.4271C12.2509 16.4971 12.2509 16.5539 12.2509 16.5539C12.2509 16.5539 12.2509 16.4971 12.2509 16.4271Z" fill="#294043" fill-rule="nonzero" opacity="1" stroke="none"/>
</g>
</svg>
