<?xml version="1.0" encoding="UTF-8" standalone="no"?>
<!DOCTYPE svg PUBLIC "-//W3C//DTD SVG 1.1//EN" "http://www.w3.org/Graphics/SVG/1.1/DTD/svg11.dtd">
<!-- Created with Vectornator (http://vectornator.io/) -->
<svg height="100%" stroke-miterlimit="10" style="fill-rule:nonzero;clip-rule:evenodd;stroke-linecap:round;stroke-linejoin:round;" version="1.1" viewBox="0 0 512 512" width="100%" xml:space="preserve" xmlns="http://www.w3.org/2000/svg" xmlns:vectornator="http://vectornator.io" xmlns:xlink="http://www.w3.org/1999/xlink">
<defs/>
<clipPath id="ArtboardFrame">
<rect height="512" width="512" x="0" y="0"/>
</clipPath>
<g clip-path="url(#ArtboardFrame)" id="Layer-1" vectornator:layerName="Layer-1">
<g opacity="1">
<path d="M269.887 363.613C267.702 361.428 268.987 357.479 268.964 354.391C268.831 335.639 268.803 316.886 268.504 298.136C268.388 290.858 259.854 288.453 254.209 288.453C252.92 288.453 251.811 288.708 250.858 289.162C244.63 292.131 245.026 303.62 244.987 308.28C244.836 326.417 244.526 344.554 244.526 362.691C244.526 363.034 244.833 363.305 244.987 363.613C244.526 364.074 244.526 364.074 244.066 364.534C203.259 323.729 141.024 306.057 85.445 299.519C67.9524 297.46 50.567 297.674 32.8789 297.674C32.535 297.674 32.2639 297.982 31.9567 298.136C29.8661 296.045 29.3589 288.835 28.729 285.685C26.0251 272.168 25.0355 258.877 24.118 245.108C23.5867 237.145 16.7218 227.594 7.51816 231.275C-1.65415 234.945 0.140478 245.624 0.140478 253.87C0.140478 262.789 1.18534 271.789 2.446 280.613C9.11082 327.266 29.0296 372.642 59.162 408.801C143.194 509.639 289.783 531.717 399.457 458.6C457.729 419.753 494.304 361.092 507.817 293.525C511.457 275.326 512.001 259.693 512.001 240.915C512.001 239.593 511.795 236.431 510.282 233.921C508.663 231.233 506.298 230.66 504.843 230.37C490.643 227.54 489.25 249.021 488.451 259.402C487.843 267.307 486.639 275.127 485.223 282.919C484.784 285.337 483.948 297.1 481.074 297.674C472.33 299.423 463.245 297.213 454.329 297.213C441.853 297.213 428.646 298.762 416.057 300.441C361.955 307.655 311.671 328.791 269.887 363.613Z" fill="#294043" fill-rule="nonzero" opacity="1" stroke="none"/>
<path d="M223.246 284.694C221.469 281.14 216.586 278.407 213.563 275.933C203.616 267.794 193.211 260.401 182.208 253.801C145.146 231.563 99.8461 215.419 79.3813 174.49C79.8425 174.029 76.3147 170.979 80.62 172.251C87.484 179.116 95.7344 187.618 103.763 192.971C113.049 199.161 120.296 205.552 129.959 210.894C141.521 217.285 153.765 223.321 165.166 230.162C181.065 239.7 199.491 243.441 213.563 256.106C217.155 253.71 211.732 243.46 210.335 239.967C206.703 230.887 204.032 217.385 202.588 214.444C200.474 210.141 194.389 201.575 191.438 193.892C169.441 136.621 120.668 118.801 63.2427 114.546C58.3374 114.183 53.3999 114.307 48.4873 114.546C43.0029 114.814 18.7008 116.621 14.8266 121.463C13.0698 123.66 14.538 139.261 14.8266 143.596C15.948 160.418 18.9692 176.768 23.5876 192.935C35.9388 236.165 66.4759 278.372 111.197 291.15C132.853 297.337 156.106 295.449 178.058 292.072C188.944 290.397 199.865 288.828 210.797 287.461C214.416 287.008 220.469 287.472 223.246 284.694Z" fill="#bccac7" fill-rule="nonzero" opacity="1" stroke="none"/>
<path d="M298.867 256.106C303.521 253.78 308.026 250.431 312.516 246.975C317.006 243.519 321.481 239.956 326.073 237.201C343.662 226.647 363.414 219.566 381.251 209.765C399.088 199.964 415.01 187.443 431.666 174.952L432.358 175.413L433.049 175.873C431.114 177.809 429.523 180.275 428.002 182.811C427.667 183.369 427.335 183.931 427.004 184.492C425.83 186.476 424.661 188.441 423.366 190.167C419.912 194.773 416.147 199.207 412.074 203.328C408 207.448 403.618 211.255 398.927 214.606C391.167 220.148 383.016 224.973 374.713 229.459C366.409 233.944 357.955 238.089 349.589 242.273C339.031 247.551 328.825 254.055 319.1 261.232C309.374 268.409 300.128 276.26 291.49 284.233C292.533 285.798 295.614 286.478 298.911 286.83C302.208 287.182 305.721 287.206 307.628 287.461C315.029 288.448 322.382 289.649 329.741 290.81C337.101 291.97 344.467 293.091 351.895 293.916C389.731 298.12 421.368 287.027 445.307 266.077C469.246 245.128 485.488 214.322 492.532 179.101C494.259 170.466 495.436 161.979 496.285 153.438C497.133 144.898 497.653 136.304 498.065 127.457C498.11 126.491 498.435 125.426 498.587 124.386C498.738 123.346 498.716 122.331 498.065 121.463C496.406 119.252 488.951 117.702 481.316 116.673C473.68 115.644 465.863 115.136 463.482 115.008C461.715 114.912 459.948 114.832 458.18 114.758C456.412 114.684 454.644 114.617 452.877 114.546C452.723 114.54 452.569 114.549 452.415 114.554C452.261 114.56 452.107 114.563 451.954 114.546C434.918 112.654 414.536 116.206 395.347 123.296C376.158 130.387 358.163 141.017 345.901 153.28C339.957 159.222 333.374 167.781 330.237 176.117C327.1 184.453 322.194 191.362 318.552 198.646C314.997 205.757 312.1 211.368 308.202 218.416C304.304 225.465 302.991 235.267 300.465 242.844C299.956 244.372 299.765 246.551 298.83 249.256C297.894 251.962 297.845 255.083 298.867 256.106Z" fill="#bccac7" fill-rule="nonzero" opacity="1" stroke="none"/>
<path d="M248.146 228.901C249.992 227.054 248.628 225.372 248.607 222.906C248.309 188.631 248.146 154.355 248.146 120.08C248.146 111.892 249.896 93.4297 256.446 86.8801C259.753 90.188 262.043 100.472 263.367 109.642C264.264 115.854 264.718 121.555 264.746 124.229C265.028 151.434 265.207 178.64 265.207 205.845C265.207 214.424 261.676 219.837 266.59 224.75C268.913 222.427 269.262 217.651 271.201 215.067C275.538 209.286 278.784 202.498 283.19 196.623C291.418 185.653 306.472 172.2 309.934 158.352C312.533 147.955 317.395 138.514 318.695 127.457C321.792 101.129 315.487 77.9199 301.173 56.4472C292.161 42.9276 281.218 30.582 268.895 20.0199C267.024 18.4152 259.13 9.6653 256.446 10.3367C253.793 10.9997 250.665 14.6849 248.607 16.331C238.011 24.8071 228.482 34.3391 220.018 44.9195C195.374 75.7269 185.833 116 201.113 154.201C207.789 170.89 221.24 184.502 231.546 198.929C236.268 205.539 240.368 212.422 243.996 219.678C245.522 222.73 245.63 226.385 248.146 228.901Z" fill="#bccac7" fill-rule="nonzero" opacity="1" stroke="none"/>
<path d="M256.446 438.243C266.75 429.999 274.758 415.319 284.112 405.965C310.339 379.738 345.806 363.438 380.944 353.399C401.125 347.633 423.135 342.978 444.116 342.333C451.798 342.096 459.497 342.314 467.171 341.871C467.605 341.846 467.832 341.297 468.093 340.949C469.882 338.563 475.428 326.812 475.009 323.888C474.244 318.53 467.446 320.34 462.136 320.203C446.954 319.813 428.668 322.547 413.682 325.271C352.783 336.345 296.529 361.048 256.907 410.576C245.702 400.389 236.536 388.285 224.629 378.76C192.675 353.197 154.976 336.517 114.886 328.499C97.548 325.032 80.5165 322.726 62.7815 322.044C55.4647 321.762 46.2555 321.149 38.8041 322.044C35.8677 322.396 43.8679 339.094 45.2596 340.949C45.5205 341.297 45.7474 341.854 46.1817 341.871C53.3999 342.165 60.6309 341.753 67.8537 341.871C86.2601 342.172 106.347 345.557 124.108 350.633C175.24 365.241 226.041 392.637 256.446 438.243Z" fill="#fefbf5" fill-rule="nonzero" opacity="1" stroke="none"/>
<path d="M59.5538 365.849C57.0233 365.802 68.2928 381.635 70.347 384.565C71.8656 386.731 77.5397 386.863 80.3036 387.06C85.5482 387.434 90.7927 388.039 95.9812 388.905C115.514 392.159 133.968 398.197 152.236 405.503C175.36 414.754 200.347 433.45 215.869 452.075C217.422 453.94 232.384 474.747 233.045 474.967C233.587 475.147 235.964 477.144 238.752 478.155C241.105 479.009 243.922 478.927 244.457 478.82C247.336 478.244 246.169 474.343 246.292 471.409C246.536 465.534 242.355 460.254 239.384 455.303C231.284 441.803 220.728 429.804 208.952 419.337C168.175 383.091 112.915 366.832 59.5538 365.849Z" fill="#fefbf5" fill-rule="nonzero" opacity="1" stroke="none"/>
<path d="M281.426 476.023C285.682 471.768 290.024 462.331 294.256 456.686C304.999 442.363 314.158 430.76 332.199 417.088C336.065 414.158 352.13 403.218 362.755 400.392C374.215 397.343 378.311 396.37 381.49 395.651C394.402 392.728 400.373 392.184 413.451 390.406C422.251 389.21 431.626 387.94 440.427 387.06C440.769 387.026 441.081 386.814 441.349 386.599C445.164 383.547 447.098 380.894 449.624 376.207C450.952 373.742 455.456 367.578 455.853 365.006C454.291 363.444 449.697 364.261 446.754 364.402C442.108 364.624 439.134 365.251 436.302 365.484C430.066 365.998 416.199 368.621 405.844 370.92C361.193 380.843 323.182 399.634 290.567 432.248C283.149 439.666 271.17 453.125 268.435 464.064C267.892 466.231 266.147 471.743 266.598 474.601C266.982 477.031 268.347 478.149 272.235 478.965C275.237 479.596 277.257 478.308 281.426 476.023Z" fill="#fefbf5" fill-rule="nonzero" opacity="1" stroke="none"/>
<path d="M299.79 256.106C297.675 253.991 300.345 246.78 302.716 239.898C304.836 233.743 308.308 225.346 310.932 219.174C313.92 212.145 314.302 210.163 318.542 201.648C322.612 193.476 325.02 190.945 329.074 183.721C332.155 178.23 334.309 175.365 339.356 166.009C342.164 160.803 344.937 156.998 349.131 150.707C344.021 150.413 320.112 175.627 317.773 178.179C301.037 196.436 284.332 225.605 282.729 249.65C282.476 253.426 279.187 271.857 280.884 272.705C281.907 273.217 282.76 271.839 283.19 271.322C288.352 265.128 294.671 261.225 299.79 256.106Z" fill="#294049" fill-rule="nonzero" opacity="1" stroke="none"/>
<path d="M166.13 153.99C176.188 164.048 187.686 189.094 191.211 196.555C194.75 204.042 198.547 212.744 201.588 218.804C201.736 219.099 206.705 231.002 208.24 235.787C210.421 242.586 210.796 249.725 214.024 255.645C217.568 262.143 226.318 265.786 230.624 272.244C234.421 269.713 230.77 250.456 229.701 244.578C224.887 218.103 209.832 194.072 190.969 173.567C188.54 170.927 186.128 168.266 183.591 165.729C181.674 163.812 170.021 153.847 166.13 153.99Z" fill="#294049" fill-rule="nonzero" opacity="1" stroke="none"/>
<path d="M313.162 470.058C315.456 473.499 334.178 465.802 338.522 464.064C367.652 452.413 393.072 435.978 416.449 414.726C413.908 412.185 395.186 418.035 390.627 419.337C360.952 427.816 332.445 445.954 313.162 470.058Z" fill="#bccac7" fill-rule="nonzero" opacity="1" stroke="none"/>
<path d="M97.3644 414.726C113.62 436.4 150.542 453.98 175.752 464.064C179.593 465.601 200.741 473.197 202.497 471.442C176.487 445.432 156.041 429.251 121.342 419.337C117.649 418.282 98.9479 413.143 97.3644 414.726Z" fill="#bccac7" fill-rule="nonzero" opacity="1" stroke="none"/>
<path d="M265.207 222.445C263.844 223.808 263.342 227.037 264.746 228.439C266.169 227.016 266.179 226.034 267.052 224.29C266.129 223.367 266.129 223.367 265.207 222.445Z" fill="#b2b3ad" fill-rule="nonzero" opacity="1" stroke="none"/>
<path d="M245.475 309.394C226.094 289.344 207.425 267.921 182.649 254.564C157.565 241.041 123.49 226.077 102.359 205.228C90.6257 193.651 85.5655 186.854 76.7186 177.1C73.5569 173.614 69.0852 169.959 69.7253 167.497C69.873 166.929 74.05 167.53 78.3755 169.738C82.7009 171.946 87.2405 175.813 87.2405 175.813C90.0278 178 104.922 193.358 126.497 206.356C132.467 209.953 139.952 215.72 166.716 229.116C181.629 236.58 196.784 243.848 205.928 249.713C215.995 256.17 225.68 263.981 235.214 271.866C241.955 277.443 248.621 283.056 255.292 288.255C253.72 289.122 251.359 289.127 250.341 289.947C244.641 294.533 246.459 298.219 245.475 309.394Z" fill="#294049" fill-rule="nonzero" opacity="1" stroke="none"/>
<path d="M433.191 173.853C439.435 170.782 433.482 178.045 431.637 180.547C429.716 183.152 426.329 188.312 423.544 191.505C420.758 194.699 418.759 197.383 415.505 200.544C411.833 204.11 410.821 205.385 405.768 209.234C401.571 212.432 401.375 212.899 396.08 216.623C390.025 220.881 389.804 220.757 384.25 224.123C380.317 226.507 378.51 227.419 376.094 228.836C370.482 232.13 365.342 234.153 358.999 237.411C354.411 239.769 349.467 241.929 346.257 243.889C343.09 245.822 335.969 249.592 331.606 252.586C308.883 268.177 287.394 290.836 265.955 308.149C265.937 307.553 268.436 302.618 268.421 302.102C268.351 299.625 268.264 297.97 267.641 296.147C266.394 292.495 265.419 291.934 264.816 291.39C263.935 290.596 262.431 289.999 259.9 289.114C280.648 273.181 300.766 253.292 321.788 239.794C322.687 239.217 324.785 237.841 324.785 237.841C324.785 237.841 329.523 234.829 331.957 233.381C344.225 226.09 365.472 217.958 377.827 211.039C395.607 201.083 405.092 192.662 419.785 183.252C419.785 183.252 427.539 177.716 428.392 177.132C429.244 176.548 433.191 173.853 433.191 173.853Z" fill="#294049" fill-rule="nonzero" opacity="1" stroke="none"/>
<path d="M257.352 76.3026C260.225 76.9709 262.743 85.0252 263.801 93.9664C265.3 106.62 265.205 131.353 265.429 152.059C265.537 162.01 265.656 172.076 265.783 182.218L266.646 232.563L267.475 295.372C266.707 293.207 261.286 291.734 257.039 291.665C252.792 291.596 247.476 293.062 246.137 295.254C246.078 264.066 247.037 230.714 247.026 199.526C247.018 177.315 246.802 155.101 247.149 132.892C247.257 125.948 247.639 114.82 248.46 104.428C248.85 99.4913 249.573 92.8639 250.601 88.8394C251.854 83.9318 253.205 76.4977 257.352 76.3026Z" fill="#294049" fill-rule="nonzero" opacity="1" stroke="none"/>
<path d="M240.213 286.267C240.213 286.267 190.78 291.735 165.195 294.049C143.659 295.997 131.895 297.11 106.631 289.966C81.3674 282.823 65.3674 263.419 65.3674 263.419C65.3674 263.419 52.1201 251.401 42.6173 235.378C33.1145 219.355 28.5997 209.306 23.4728 193.407C20.391 183.85 17.8343 170.606 16.5701 162.664C13.9847 146.422 14.2414 145.961 13.9139 135.399C13.5865 124.837 14.9131 117.252 16.6453 125.107C19.5036 138.069 21.3161 149.567 25.7932 164.049C32.0607 184.322 34.1915 191.365 42.0293 209.473C45.2802 216.984 55.1631 235.493 79.8275 254.698C91.2865 263.621 95.6271 268.653 117.194 275.314C138.761 281.975 141.767 280.685 163.573 283.045C177.628 284.567 190.404 284.054 199.29 284.616C213.246 285.498 240.213 286.267 240.213 286.267Z" fill="#294043" fill-rule="nonzero" opacity="1" stroke="none"/>
<path d="M354.705 415.712" fill="#bccac7" fill-rule="nonzero" opacity="1" stroke="none"/>
<path d="M130.668 278.847" fill="#bccac7" fill-rule="nonzero" opacity="1" stroke="none"/>
<path d="M87.406 257.72" fill="#bccac7" fill-rule="nonzero" opacity="1" stroke="none"/>
<path d="M284.114 282.591C299.909 289.079 314.423 293.37 352.043 295.732C384.97 297.8 411.39 292.46 441.385 271.972C461.639 258.138 471.617 237.419 471.617 237.419C471.617 237.419 481.079 224.309 485.805 209.135C498.024 169.908 496.795 168.852 498.421 146.022C500.12 122.15 499.353 124.865 498.408 122.444C497.462 120.023 494.573 132.158 491.185 147.561C486.491 168.899 484.004 179.494 480.238 191.511C476.4 203.755 473.67 211.287 461.37 229.967C454.966 239.693 447.515 249.236 427.932 262.424C416.552 270.087 407.567 275.228 391.368 278.948C369.382 283.997 356.936 285.868 331.035 285.573" fill="#294043" fill-rule="nonzero" opacity="1" stroke="none"/>
<path d="M265.615 226.04C267.366 223.151 278.786 204.086 280.724 201.93C294.59 186.505 298.499 185.917 307.136 168.307C309.857 162.759 312.899 155.263 312.905 148.645C312.908 145.752 309.124 153.563 302.951 163.926C297.977 172.275 287.147 179.986 274.423 201.364C269.819 209.099 267.007 216.435 266.527 217.473C263.699 223.581 261.754 232.408 265.615 226.04Z" fill="#294043" fill-rule="nonzero" opacity="1" stroke="none"/>
<path d="M247.653 227.388C246.411 227.818 243.503 218.063 237.321 208.278C231.139 198.494 232.183 199.38 220.255 184.881C211.174 173.842 201.948 158.104 198.928 149.166C196.568 142.184 203.971 152.935 210.314 160.136C213.551 163.811 225.647 177.893 229.918 184.261C239.124 197.986 239.533 199.906 242.29 206.556C247.676 219.552 248.895 226.957 247.653 227.388Z" fill="#294043" fill-rule="nonzero" opacity="1" stroke="none"/>
<path d="M278.846 234.64" fill="#294043" fill-rule="nonzero" opacity="1" stroke="none"/>
</g>
</g>
</svg>
