<?xml version="1.0" encoding="UTF-8" standalone="no"?>
<!DOCTYPE svg PUBLIC "-//W3C//DTD SVG 1.1//EN" "http://www.w3.org/Graphics/SVG/1.1/DTD/svg11.dtd">
<!-- Created with Vectornator (http://vectornator.io/) -->
<svg height="100%" stroke-miterlimit="10" style="fill-rule:nonzero;clip-rule:evenodd;stroke-linecap:round;stroke-linejoin:round;" version="1.1" viewBox="0 0 256 256" width="100%" xml:space="preserve" xmlns="http://www.w3.org/2000/svg" xmlns:vectornator="http://vectornator.io" xmlns:xlink="http://www.w3.org/1999/xlink">
<defs/>
<clipPath id="ArtboardFrame">
<rect height="256" width="256" x="0" y="0"/>
</clipPath>
<g clip-path="url(#ArtboardFrame)" id="Layer-1" vectornator:layerName="Layer-1">
<g opacity="1">
<path d="M134.944 181.806C133.851 180.714 134.494 178.74 134.482 177.195C134.416 167.82 134.402 158.443 134.252 149.068C134.194 145.429 129.927 144.226 127.105 144.226C126.46 144.226 125.906 144.354 125.429 144.581C122.315 146.065 122.513 151.81 122.494 154.14C122.418 163.209 122.263 172.277 122.263 181.345C122.263 181.517 122.417 181.653 122.494 181.806C122.263 182.037 122.263 182.037 122.033 182.267C101.63 161.865 70.5122 153.029 42.7225 149.759C33.9762 148.73 25.2835 148.837 16.4395 148.837C16.2675 148.837 16.1319 148.991 15.9784 149.068C14.933 148.023 14.6794 144.418 14.3645 142.843C13.0125 136.084 12.5178 129.439 12.059 122.554C11.7934 118.572 8.3609 113.797 3.75908 115.637C-0.827073 117.472 0.0702392 122.812 0.0702392 126.935C0.0702392 131.395 0.592669 135.894 1.223 140.307C4.55541 163.633 14.5148 186.321 29.581 204.401C71.5971 254.819 144.891 265.859 199.729 229.3C228.865 209.877 247.152 180.546 253.909 146.762C255.729 137.663 256.001 129.847 256.001 120.458C256.001 119.796 255.898 118.216 255.141 116.96C254.331 115.617 253.149 115.33 252.421 115.185C245.322 113.77 244.625 124.51 244.225 129.701C243.922 133.654 243.32 137.563 242.612 141.46C242.392 142.669 241.974 148.55 240.537 148.837C236.165 149.711 231.622 148.607 227.165 148.607C220.926 148.607 214.323 149.381 208.029 150.22C180.978 153.827 155.836 164.396 134.944 181.806Z" fill="#294043" fill-rule="nonzero" opacity="1" stroke="none"/>
<path d="M111.623 142.347C110.735 140.57 108.293 139.204 106.781 137.967C101.808 133.897 96.6054 130.201 91.1038 126.9C72.5728 115.781 49.9231 107.71 39.6906 87.2451C39.9212 87.0144 38.1574 85.4893 40.31 86.1254C43.742 89.5578 47.8672 93.8091 51.8817 96.4853C56.5243 99.5804 60.1478 102.776 64.9796 105.447C70.7605 108.642 76.8823 111.66 82.5831 115.081C90.5323 119.85 99.7456 121.72 106.781 128.053C108.577 126.855 105.866 121.73 105.168 119.984C103.352 115.444 102.016 108.692 101.294 107.222C100.237 105.071 97.1945 100.787 95.719 96.9458C84.7203 68.3106 60.3341 59.4004 31.6214 57.2731C29.1687 57.0914 26.6999 57.1535 24.2436 57.2731C21.5014 57.4072 9.35038 58.3104 7.41331 60.7315C6.53488 61.8299 7.26899 69.6304 7.41331 71.7982C7.97398 80.2092 9.48459 88.3841 11.7938 96.4673C17.9694 118.082 33.238 139.186 55.5986 145.575C66.4267 148.668 78.0529 147.725 89.0291 146.036C94.4721 145.199 99.9327 144.414 105.398 143.73C107.208 143.504 110.234 143.736 111.623 142.347Z" fill="#bccac7" fill-rule="nonzero" opacity="1" stroke="none"/>
<path d="M149.434 128.053C151.76 126.89 154.013 125.215 156.258 123.488C158.503 121.76 160.74 119.978 163.036 118.6C171.831 113.323 181.707 109.783 190.626 104.882C199.544 99.9818 207.505 93.7215 215.833 87.4758L216.179 87.7063L216.525 87.9367C215.557 88.9043 214.762 90.1374 214.001 91.4055C213.833 91.6847 213.667 91.9657 213.502 92.2458C212.915 93.2379 212.331 94.2203 211.683 95.0837C209.956 97.3866 208.074 99.6037 206.037 101.664C204 103.724 201.809 105.627 199.463 107.303C195.584 110.074 191.508 112.487 187.356 114.729C183.205 116.972 178.977 119.045 174.794 121.136C169.515 123.776 164.413 127.027 159.55 130.616C154.687 134.205 150.064 138.13 145.745 142.117C146.266 142.899 147.807 143.239 149.456 143.415C151.104 143.591 152.861 143.603 153.814 143.73C157.514 144.224 161.191 144.824 164.871 145.405C168.55 145.985 172.234 146.545 175.947 146.958C194.865 149.06 210.684 143.513 222.654 133.039C234.623 122.564 242.744 107.161 246.266 89.5506C247.129 85.2332 247.718 80.9894 248.142 76.7191C248.567 72.4488 248.827 68.1519 249.032 63.7285C249.055 63.2453 249.218 62.713 249.293 62.193C249.369 61.673 249.358 61.1653 249.032 60.7315C248.203 59.6258 244.476 58.851 240.658 58.3366C236.84 57.8222 232.932 57.5681 231.741 57.5038C230.858 57.456 229.974 57.4159 229.09 57.379C228.206 57.3421 227.322 57.3084 226.438 57.2731C226.362 57.2701 226.284 57.2743 226.207 57.2772C226.13 57.2801 226.053 57.2816 225.977 57.2731C217.459 56.3268 207.268 58.1028 197.673 61.6482C188.079 65.1936 179.081 70.5084 172.95 76.6398C169.979 79.6112 166.687 83.8905 165.118 88.0585C163.55 92.2265 161.097 95.681 159.276 99.323C157.498 102.878 156.05 105.684 154.101 109.208C152.152 112.732 151.495 117.633 150.232 121.422C149.978 122.186 149.882 123.275 149.415 124.628C148.947 125.981 148.922 127.542 149.434 128.053Z" fill="#bccac7" fill-rule="nonzero" opacity="1" stroke="none"/>
<path d="M124.073 114.45C124.996 113.527 124.314 112.686 124.304 111.453C124.154 94.3155 124.073 77.1777 124.073 60.0399C124.073 55.946 124.948 46.7149 128.223 43.4401C129.877 45.094 131.021 50.2361 131.684 54.821C132.132 57.9272 132.359 60.7777 132.373 62.1146C132.514 75.717 132.604 89.3199 132.604 102.923C132.604 107.212 130.838 109.919 133.295 112.375C134.457 111.214 134.631 108.826 135.601 107.534C137.769 104.643 139.392 101.249 141.595 98.3114C145.709 92.8263 153.236 86.1002 154.967 79.1759C156.266 73.9775 158.697 69.2571 159.347 63.7285C160.896 50.5646 157.744 38.96 150.587 28.2236C146.08 21.4638 140.609 15.291 134.448 10.0099C133.512 9.20762 129.565 4.83265 128.223 5.16833C126.896 5.49987 125.332 7.34244 124.304 8.16552C119.006 12.4036 114.241 17.1695 110.009 22.4598C97.6868 37.8634 92.9163 58.0002 100.557 77.1007C103.895 85.4451 110.62 92.2508 115.773 99.4643C118.134 102.77 120.184 106.211 121.998 109.839C122.761 111.365 122.815 113.192 124.073 114.45Z" fill="#bccac7" fill-rule="nonzero" opacity="1" stroke="none"/>
<path d="M128.223 219.121C133.375 214.999 137.379 207.659 142.056 202.982C155.169 189.869 172.903 181.719 190.472 176.699C200.562 173.817 211.568 171.489 222.058 171.166C225.899 171.048 229.749 171.157 233.585 170.936C233.803 170.923 233.916 170.648 234.046 170.475C234.941 169.282 237.714 163.406 237.505 161.944C237.122 159.265 233.723 160.17 231.068 160.101C223.477 159.907 214.334 161.274 206.841 162.636C176.392 168.172 148.265 180.524 128.454 205.288C122.851 200.195 118.268 194.143 112.315 189.38C96.3377 176.598 77.4879 168.258 57.4432 164.25C48.774 162.516 40.2583 161.363 31.3908 161.022C27.7323 160.881 23.1277 160.574 19.402 161.022C17.9339 161.198 21.934 169.547 22.6298 170.475C22.7602 170.648 22.8737 170.927 23.0909 170.936C26.6999 171.083 30.3155 170.877 33.9268 170.936C43.1301 171.086 53.1736 172.779 62.054 175.316C87.6199 182.62 113.021 196.318 128.223 219.121Z" fill="#fefbf5" fill-rule="nonzero" opacity="1" stroke="none"/>
<path d="M29.7769 182.925C28.5117 182.901 34.1464 190.818 35.1735 192.283C35.9328 193.366 38.7698 193.431 40.1518 193.53C42.7741 193.717 45.3964 194.019 47.9906 194.452C57.757 196.08 66.9842 199.099 76.1178 202.752C87.68 207.377 100.173 216.725 107.934 226.038C108.711 226.97 116.192 237.373 116.523 237.483C116.794 237.574 117.982 238.572 119.376 239.078C120.553 239.504 121.961 239.463 122.228 239.41C123.668 239.122 123.084 237.171 123.146 235.705C123.268 232.767 121.177 230.127 119.692 227.652C115.642 220.901 110.364 214.902 104.476 209.668C84.0875 191.545 56.4574 183.416 29.7769 182.925Z" fill="#fefbf5" fill-rule="nonzero" opacity="1" stroke="none"/>
<path d="M140.713 238.012C142.841 235.884 145.012 231.165 147.128 228.343C152.5 221.182 157.079 215.38 166.1 208.544C168.033 207.079 176.065 201.609 181.378 200.196C187.107 198.672 189.155 198.185 190.745 197.825C197.201 196.364 200.187 196.092 206.725 195.203C211.125 194.605 215.813 193.97 220.213 193.53C220.384 193.513 220.541 193.407 220.675 193.299C222.582 191.773 223.549 190.447 224.812 188.104C225.476 186.871 227.728 183.789 227.926 182.503C227.146 181.722 224.848 182.131 223.377 182.201C221.054 182.312 219.567 182.625 218.151 182.742C215.033 182.999 208.1 184.31 202.922 185.46C180.597 190.421 161.591 199.817 145.284 216.124C141.575 219.833 135.585 226.563 134.217 232.032C133.946 233.116 133.073 235.871 133.299 237.301C133.491 238.516 134.174 239.074 136.117 239.483C137.619 239.798 138.629 239.154 140.713 238.012Z" fill="#fefbf5" fill-rule="nonzero" opacity="1" stroke="none"/>
<path d="M149.895 128.053C148.838 126.995 150.173 123.39 151.358 119.949C152.418 116.871 154.154 112.673 155.466 109.587C156.96 106.072 157.151 105.082 159.271 100.824C161.306 96.7382 162.51 95.4724 164.537 91.8603C166.078 89.1152 167.155 87.6826 169.678 83.0046C171.082 80.4017 172.469 78.4988 174.565 75.3534C172.011 75.2066 160.056 87.8136 158.886 89.0897C150.518 98.2178 142.166 112.802 141.364 124.825C141.238 126.713 139.593 135.928 140.442 136.353C140.954 136.608 141.38 135.919 141.595 135.661C144.176 132.564 147.335 130.612 149.895 128.053Z" fill="#294049" fill-rule="nonzero" opacity="1" stroke="none"/>
<path d="M83.065 76.9948C88.0942 82.024 93.843 94.5471 95.6057 98.2774C97.3748 102.021 99.2735 106.372 100.794 109.402C100.868 109.55 103.353 115.501 104.12 117.893C105.21 121.293 105.398 124.863 107.012 127.823C108.784 131.071 113.159 132.893 115.312 136.122C117.211 134.856 115.385 125.228 114.851 122.289C112.444 109.051 104.916 97.0358 95.4845 86.7837C94.27 85.4636 93.064 84.133 91.7954 82.8645C90.8371 81.9062 85.0105 76.9233 83.065 76.9948Z" fill="#294049" fill-rule="nonzero" opacity="1" stroke="none"/>
<path d="M156.581 235.029C157.728 236.75 167.089 232.901 169.261 232.032C183.826 226.206 196.536 217.989 208.225 207.363C206.954 206.092 197.593 209.017 195.313 209.668C180.476 213.908 166.223 222.977 156.581 235.029Z" fill="#bccac7" fill-rule="nonzero" opacity="1" stroke="none"/>
<path d="M48.6822 207.363C56.8102 218.2 75.2711 226.99 87.8761 232.032C89.7967 232.8 100.371 236.598 101.248 235.721C88.2434 222.716 78.0204 214.626 60.6709 209.668C58.8243 209.141 49.4739 206.571 48.6822 207.363Z" fill="#bccac7" fill-rule="nonzero" opacity="1" stroke="none"/>
<path d="M132.604 111.223C131.922 111.904 131.671 113.519 132.373 114.22C133.084 113.508 133.089 113.017 133.526 112.145C133.064 111.684 133.064 111.684 132.604 111.223Z" fill="#b2b3ad" fill-rule="nonzero" opacity="1" stroke="none"/>
<path d="M122.737 154.697C113.047 144.672 103.713 133.961 91.3247 127.282C78.7825 120.52 61.7448 113.038 51.1794 102.614C45.3128 96.8255 42.7828 93.427 38.3593 88.5501C36.7784 86.8071 34.5426 84.9793 34.8626 83.7486C34.9365 83.4646 37.025 83.7651 39.1877 84.8691C41.3505 85.9732 43.6203 87.9063 43.6203 87.9063C45.0139 88.9999 52.4608 96.6791 63.2486 103.178C66.2336 104.976 69.9762 107.86 83.3579 114.558C90.8143 118.29 98.392 121.924 102.964 124.856C107.997 128.085 112.84 131.99 117.607 135.933C120.978 138.721 124.31 141.528 127.646 144.128C126.86 144.561 125.68 144.564 125.17 144.974C122.321 147.267 123.229 149.109 122.737 154.697Z" fill="#294049" fill-rule="nonzero" opacity="1" stroke="none"/>
<path d="M216.596 86.9266C219.718 85.3909 216.741 89.0226 215.818 90.2735C214.858 91.5762 213.165 94.1559 211.772 95.7527C210.379 97.3496 209.379 98.6916 207.752 100.272C205.916 102.055 205.411 102.693 202.884 104.617C200.785 106.216 200.688 106.45 198.04 108.312C195.013 110.44 194.902 110.378 192.125 112.062C190.159 113.253 189.255 113.709 188.047 114.418C185.241 116.065 182.671 117.076 179.5 118.706C177.205 119.885 174.734 120.965 173.129 121.944C171.545 122.911 167.985 124.796 165.803 126.293C154.442 134.088 143.697 145.418 132.977 154.075C132.968 153.777 134.218 151.309 134.211 151.051C134.175 149.812 134.132 148.985 133.821 148.073C133.197 146.248 132.71 145.967 132.408 145.695C131.968 145.298 131.215 144.999 129.95 144.557C140.324 136.591 150.383 126.646 160.894 119.897C161.344 119.609 162.392 118.921 162.392 118.921C162.392 118.921 164.761 117.414 165.979 116.691C172.113 113.045 182.736 108.979 188.914 105.52C197.804 100.542 202.546 96.3311 209.893 91.626C209.893 91.626 213.769 88.858 214.196 88.5659C214.622 88.2738 216.596 86.9266 216.596 86.9266Z" fill="#294049" fill-rule="nonzero" opacity="1" stroke="none"/>
<path d="M128.676 38.1513C130.113 38.4855 131.371 42.5126 131.901 46.9832C132.65 53.3101 132.602 65.6765 132.715 76.0296C132.768 81.0048 132.828 86.0379 132.891 91.1092L133.323 116.281L133.737 147.686C133.353 146.603 130.643 145.867 128.52 145.832C126.396 145.798 123.738 146.531 123.069 147.627C123.039 132.033 123.518 115.357 123.513 99.7629C123.509 88.6573 123.401 77.5503 123.574 66.4459C123.628 62.9741 123.82 57.41 124.23 52.2138C124.425 49.7457 124.787 46.4319 125.301 44.4197C125.927 41.9659 126.602 38.2488 128.676 38.1513Z" fill="#294049" fill-rule="nonzero" opacity="1" stroke="none"/>
<path d="M120.107 143.134C120.107 143.134 95.3899 145.868 82.5977 147.025C71.8294 147.999 65.9473 148.555 53.3155 144.983C40.6837 141.412 32.6837 131.71 32.6837 131.71C32.6837 131.71 26.06 125.7 21.3086 117.689C16.5573 109.678 14.2999 104.653 11.7364 96.7036C10.1955 91.9252 8.91714 85.3029 8.28506 81.332C6.99235 73.2109 7.12069 72.9806 6.95697 67.6995C6.79326 62.4185 7.45656 58.6259 8.32265 62.5534C9.7518 69.0343 10.6581 74.7835 12.8966 82.0245C16.0303 92.1612 17.0958 95.6823 21.0146 104.736C22.6401 108.492 27.5816 117.747 39.9138 127.349C45.6432 131.81 47.8136 134.327 58.5969 137.657C69.3803 140.987 70.8836 140.342 81.7867 141.523C88.8141 142.283 95.2018 142.027 99.6448 142.308C106.623 142.749 120.107 143.134 120.107 143.134Z" fill="#294043" fill-rule="nonzero" opacity="1" stroke="none"/>
<path d="M177.353 207.856" fill="#bccac7" fill-rule="nonzero" opacity="1" stroke="none"/>
<path d="M65.334 139.424" fill="#bccac7" fill-rule="nonzero" opacity="1" stroke="none"/>
<path d="M43.703 128.86" fill="#bccac7" fill-rule="nonzero" opacity="1" stroke="none"/>
<path d="M142.057 141.296C149.955 144.54 157.211 146.685 176.022 147.866C192.485 148.9 205.695 146.23 220.692 135.986C230.819 129.069 235.808 118.71 235.808 118.71C235.808 118.71 240.539 112.154 242.903 104.568C249.012 84.9541 248.398 84.4259 249.21 73.011C250.06 61.075 249.677 62.4323 249.204 61.222C248.731 60.0117 247.287 66.0788 245.592 73.7807C243.246 84.4493 242.002 89.7472 240.119 95.7553C238.2 101.877 236.835 105.643 230.685 114.983C227.483 119.846 223.757 124.618 213.966 131.212C208.276 135.044 203.783 137.614 195.684 139.474C184.691 141.998 178.468 142.934 165.517 142.786" fill="#294043" fill-rule="nonzero" opacity="1" stroke="none"/>
<path d="M132.807 113.02C133.683 111.576 139.393 102.043 140.362 100.965C147.295 93.2524 149.249 92.9587 153.568 84.1536C154.928 81.3795 156.449 77.6316 156.453 74.3224C156.454 72.8758 154.562 76.7817 151.475 81.963C148.989 86.1375 143.573 89.9932 137.212 100.682C134.909 104.55 133.504 108.217 133.263 108.737C131.85 111.791 130.877 116.204 132.807 113.02Z" fill="#294043" fill-rule="nonzero" opacity="1" stroke="none"/>
<path d="M123.826 113.694C123.205 113.909 121.752 109.032 118.661 104.139C115.569 99.247 116.091 99.69 110.127 92.4406C105.587 86.9212 100.974 79.0518 99.4639 74.5829C98.2842 71.092 101.985 76.4675 105.157 80.0681C106.776 81.9055 112.823 88.9463 114.959 92.1306C119.562 98.9929 119.767 99.9529 121.145 103.278C123.838 109.776 124.447 113.479 123.826 113.694Z" fill="#294043" fill-rule="nonzero" opacity="1" stroke="none"/>
<path d="M139.423 117.32" fill="#294043" fill-rule="nonzero" opacity="1" stroke="none"/>
</g>
</g>
</svg>
