<?xml version="1.0" encoding="UTF-8" standalone="no"?>
<!DOCTYPE svg PUBLIC "-//W3C//DTD SVG 1.1//EN" "http://www.w3.org/Graphics/SVG/1.1/DTD/svg11.dtd">
<!-- Created with Vectornator (http://vectornator.io/) -->
<svg height="100%" stroke-miterlimit="10" style="fill-rule:nonzero;clip-rule:evenodd;stroke-linecap:round;stroke-linejoin:round;" version="1.1" viewBox="0 0 215.776 466.617" width="100%" xml:space="preserve" xmlns="http://www.w3.org/2000/svg" xmlns:vectornator="http://vectornator.io" xmlns:xlink="http://www.w3.org/1999/xlink">
<defs/>
<clipPath id="ArtboardFrame">
<rect height="466.617" width="215.776" x="0" y="0"/>
</clipPath>
<g clip-path="url(#ArtboardFrame)" id="Layer-1" vectornator:layerName="Layer 1">
<g opacity="1">
<path d="M113.414 149.082C112.492 148.16 113.035 146.494 113.025 145.19C112.969 137.276 112.957 129.361 112.831 121.448C112.782 118.377 109.18 117.362 106.798 117.362C102.7 117.362 102.925 123.462 102.906 125.729C102.842 133.384 102.711 141.038 102.711 148.693C102.711 148.838 102.841 148.952 102.906 149.082C102.711 149.277 102.711 149.277 102.517 149.471C85.295 132.249 59.0297 124.791 35.573 122.032C28.1905 121.163 20.8532 121.254 13.3882 121.254C13.243 121.254 13.1286 121.383 12.999 121.448C12.1166 120.566 11.9026 117.523 11.6367 116.194C10.4956 110.489 10.0779 104.88 9.69069 99.0688C9.46651 95.708 6.56924 91.6769 2.68496 93.2307C-1.1861 94.7793-0.428704 99.2863-0.428704 102.766C-0.428704 106.531 0.0122662 110.329 0.544314 114.053C3.35712 133.742 11.7636 152.893 24.4806 168.153C59.9451 210.711 121.811 220.028 168.098 189.17C192.691 172.775 208.127 148.018 213.83 119.502C215.366 111.822 215.776 104.464 215.776 96.5389C215.776 95.2919 213.762 93.5054 212.662 93.2307C205.229 91.3726 205.994 100.72 205.657 105.101C205.4 108.437 204.892 111.737 204.294 115.026C204.109 116.047 203.756 121.011 202.543 121.254C198.853 121.992 195.019 121.059 191.256 121.059C185.99 121.059 180.417 121.713 175.104 122.421C152.271 125.466 131.049 134.386 113.414 149.082Z" fill="#294043" fill-rule="nonzero" opacity="1" stroke="none"/>
<path d="M93.7595 115.805C93.0095 114.305 90.9486 113.151 89.6728 112.107C85.4744 108.672 81.0834 105.552 76.4398 102.766C60.7983 93.3813 41.68 86.5682 33.0431 69.2944C33.2377 69.0998 33.2377 69.0998 33.4323 68.9052C36.3292 71.8021 39.9687 73.8466 43.3571 76.1055C51.9641 81.8436 61.1836 86.1786 70.0178 91.4792C76.7274 95.5048 83.7339 98.3943 89.6728 103.739C91.1888 102.728 88.9002 98.402 88.3106 96.9281C85.9629 91.0593 80.8876 85.5294 79.3588 79.4138C72.8174 53.2485 50.4679 45.7913 26.232 43.9959C24.1618 43.8426 22.078 43.8947 20.0047 43.9959C17.6901 44.1088 7.43368 44.8712 5.79861 46.915C5.05717 47.8421 5.67679 54.4263 5.79861 56.2559C6.27189 63.3555 7.54694 70.2557 9.49608 77.0785C14.7087 95.3234 27.5966 113.137 46.4708 118.529C55.6102 121.14 65.4236 120.344 74.6883 118.918C79.2829 118.212 83.8919 117.549 88.5052 116.972C90.0328 116.781 92.5872 116.977 93.7595 115.805Z" fill="#294043" fill-rule="nonzero" opacity="1" stroke="none"/>
<path d="M125.674 103.739C129.602 101.776 133.28 98.0864 137.156 95.7605C152.003 86.8523 167.661 80.033 181.72 69.489C182.012 69.6836 182.012 69.6836 182.304 69.8782C180.671 71.5117 179.619 74.0416 178.217 75.9109C175.302 79.7983 171.863 83.3965 167.904 86.2249C161.354 90.9032 154.142 94.3703 147.081 97.9011C138.169 102.357 129.852 108.88 122.561 115.61C123.441 116.931 127.762 116.758 129.372 116.972C135.618 117.805 141.785 119 148.054 119.697C179.99 123.245 201.462 100.97 207.408 71.2404C208.866 63.9521 209.396 56.9122 209.743 49.4448C209.781 48.629 210.293 47.6475 209.743 46.915C208.343 45.0483 197.158 44.2991 195.148 44.1905C193.657 44.11 192.164 44.0555 190.672 43.9959C190.543 43.9909 190.412 44.0103 190.283 43.9959C175.903 42.3982 155.875 49.992 145.524 60.3426C140.508 65.3591 139.257 73.8493 136.183 79.9976C133.182 85.9996 129.169 91.6991 127.037 98.0957C126.607 99.3852 124.812 102.876 125.674 103.739Z" fill="#294043" fill-rule="nonzero" opacity="1" stroke="none"/>
<path d="M104.268 92.2576C105.047 91.4784 104.472 90.7685 104.463 89.7278C104.337 75.2625 104.268 60.7968 104.268 46.3312C104.268 42.8758 105.007 35.0838 107.771 32.3197C110.113 34.6616 111.245 45.2885 111.274 48.0826C111.393 59.5638 111.468 71.0458 111.468 82.5274C111.468 86.1479 109.979 88.4325 112.052 90.5062C113.033 89.5258 113.18 87.5101 113.998 86.4195C115.828 83.9796 117.199 81.1146 119.058 78.6354C122.53 74.0054 128.884 68.328 130.345 62.4833C131.442 58.0957 133.494 54.111 134.042 49.4448C135.35 38.3333 132.689 28.5381 126.648 19.4758C122.844 13.7701 118.226 8.55975 113.025 4.10215C112.235 3.42494 108.904-0.267866 107.771 0.0154754C106.651 0.295313 105.331 1.85059 104.463 2.54532C99.9911 6.12253 95.9694 10.1454 92.3973 14.6108C81.9961 27.6126 77.9697 44.6097 84.4185 60.7318C87.236 67.7753 92.913 73.5196 97.2624 79.6084C99.2551 82.3982 100.986 85.3029 102.517 88.3656C103.16 89.6531 103.206 91.1959 104.268 92.2576Z" fill="#294043" fill-rule="nonzero" opacity="1" stroke="none"/>
<path d="M107.771 180.608C112.12 177.129 115.499 170.933 119.447 166.985C130.516 155.917 145.484 149.038 160.314 144.801C168.831 142.367 178.12 140.403 186.975 140.13C190.217 140.031 193.466 140.122 196.705 139.936C196.888 139.925 196.984 139.693 197.094 139.546C197.849 138.539 200.189 133.58 200.013 132.346C199.69 130.084 195.443 131.625 193.202 131.568C186.794 131.403 180.455 131.78 174.131 132.93C148.429 137.603 124.688 148.029 107.966 168.931C103.237 164.632 99.3684 159.524 94.3433 155.504C80.8577 144.715 64.9469 137.676 48.0276 134.292C40.7101 132.829 33.5222 131.856 26.0374 131.568C22.9494 131.449 19.0628 131.19 15.918 131.568C14.6788 131.716 18.0551 138.763 18.6425 139.546C18.7526 139.693 18.8483 139.928 19.0317 139.936C22.078 140.06 25.1298 139.886 28.178 139.936C35.9462 140.063 44.4236 141.491 51.9197 143.633C73.4989 149.798 94.9392 161.36 107.771 180.608Z" fill="#fefbf5" fill-rule="nonzero" opacity="1" stroke="none"/>
<path d="M24.6752 150.055C23.6072 150.035 28.7829 157.829 29.9295 158.812C30.8173 159.573 32.2659 158.923 33.4323 159.007C35.6458 159.165 37.8592 159.42 40.0489 159.785C48.2923 161.159 56.0807 163.707 63.7905 166.791C73.5495 170.695 84.0951 178.585 90.6458 186.446C91.3016 187.233 97.7617 197.251 98.0408 197.344C98.4627 197.484 102.218 197.832 102.711 197.733C103.926 197.49 103.049 195.273 103.1 194.035C103.204 191.555 101.824 189.898 100.571 187.808C97.1518 182.11 92.6966 177.046 87.7268 172.629C70.5172 157.332 47.1955 150.47 24.6752 150.055Z" fill="#fefbf5" fill-rule="nonzero" opacity="1" stroke="none"/>
<path d="M118.28 197.344C120.076 195.547 121.942 190.774 123.728 188.392C128.262 182.347 140.491 170.141 149.222 167.958C152.525 167.133 155.944 165.348 159.146 164.066C163.96 162.141 169.268 161.186 174.325 160.174C178.001 159.439 181.704 159.378 185.418 159.007C185.562 158.992 185.694 158.903 185.807 158.812C188.264 156.847 189.727 153.224 191.451 150.639C189.751 148.939 186.653 150.199 184.25 150.25C179.765 150.343 175.193 151.225 170.823 152.196C151.978 156.383 135.936 164.314 122.172 178.078C119.041 181.209 113.985 186.889 112.831 191.506C112.602 192.42 113.224 191.272 113.414 192.479C113.576 193.504 113.253 194.567 113.414 195.592C113.616 196.871 117.295 196.753 118.28 197.344Z" fill="#fefbf5" fill-rule="nonzero" opacity="1" stroke="none"/>
<path d="M126.064 103.739C125.057 102.733 128.497 95.1747 129.372 93.4253C131.611 88.9466 135.746 84.0804 136.962 79.2192C138.436 73.3211 141.566 66.9607 144.94 61.8995C143.355 59.7861 134.64 69.7743 133.653 70.8512C126.59 78.5564 119.54 90.8666 118.863 101.015C118.757 102.609 117.368 110.387 118.085 110.745C118.517 110.961 118.877 110.379 119.058 110.161C121.237 107.547 123.903 105.9 126.064 103.739Z" fill="#bccac7" fill-rule="nonzero" opacity="1" stroke="none"/>
<path d="M70.6016 61.5102C74.8467 65.7553 76.7776 73.9338 78.9696 79.4138C80.902 84.245 85.3071 88.6115 86.5592 93.6199C87.2617 96.4303 88.5048 101.046 89.8674 103.545C91.3631 106.287 95.0555 107.824 96.8731 110.55C98.4759 109.482 96.935 101.355 96.4839 98.8742C94.4523 87.7004 88.0981 77.5584 80.1372 68.9052C79.1121 67.7909 78.0943 66.6676 77.0236 65.5969C76.2144 64.7878 72.1161 59.9958 70.6016 61.5102Z" fill="#bccac7" fill-rule="nonzero" opacity="1" stroke="none"/>
<path d="M131.707 194.035C132.676 195.488 140.577 192.239 142.41 191.506C154.704 186.588 165.432 179.652 175.298 170.683C174.226 169.611 166.324 172.079 164.401 172.629C151.877 176.207 139.846 183.862 131.707 194.035Z" fill="#bccac7" fill-rule="nonzero" opacity="1" stroke="none"/>
<path d="M40.6327 170.683C47.4932 179.83 63.0755 187.25 73.7153 191.506C75.3364 192.154 84.2617 195.36 85.0023 194.619C74.0251 183.642 65.3964 176.813 50.7521 172.629C49.1933 172.184 41.301 170.015 40.6327 170.683Z" fill="#bccac7" fill-rule="nonzero" opacity="1" stroke="none"/>
<path d="M113.025 191.7C111.692 193.034 112.506 195.463 112.636 197.344C112.703 198.317 117.99 197.244 118.28 196.954C117.89 196.565 117.89 196.565 117.501 196.176C113.142 198.356 114.38 193.055 113.025 191.7Z" fill="#b2b3ad" fill-rule="nonzero" opacity="1" stroke="none"/>
<path d="M111.468 89.5332C110.893 90.1084 110.682 91.471 111.274 92.063C111.874 91.4625 111.879 91.048 112.247 90.3116C111.858 89.9224 111.858 89.9224 111.468 89.5332Z" fill="#b2b3ad" fill-rule="nonzero" opacity="1" stroke="none"/>
</g>
<g opacity="1">
<path d="M75.759 306.748C75.1458 306.133 75.5064 305.022 75.5002 304.153C75.4626 298.877 75.4549 293.601 75.3707 288.325C75.3381 286.278 72.9425 285.601 71.3583 285.601C68.6324 285.601 68.7823 289.668 68.7696 291.18C68.7271 296.283 68.6401 301.385 68.6401 306.488C68.6401 306.585 68.7263 306.662 68.7696 306.748C68.6401 306.878 68.6401 306.878 68.5107 307.007C57.0563 295.526 39.5868 290.554 23.9852 288.715C19.075 288.136 14.1948 288.196 9.2297 288.196C9.13315 288.196 9.05704 288.282 8.97083 288.325C8.38398 287.737 8.2416 285.709 8.06479 284.823C7.30578 281.019 7.02802 277.28 6.77044 273.406C6.62134 271.165 4.69431 268.478 2.1108 269.514C-0.46391 270.546 0.0398494 273.551 0.0398494 275.871C0.0398494 278.38 0.333147 280.913 0.687022 283.395C2.55787 296.522 8.14918 309.288 16.6075 319.462C40.1956 347.834 81.3439 354.045 112.13 333.474C128.487 322.544 138.754 306.039 142.547 287.028C143.569 281.908 143.842 277.003 143.842 271.719C143.842 270.888 142.502 269.697 141.771 269.514C136.827 268.275 137.335 274.507 137.111 277.428C136.94 279.652 136.603 281.852 136.205 284.044C136.081 284.725 135.847 288.034 135.04 288.196C132.586 288.688 130.036 288.066 127.533 288.066C124.031 288.066 120.323 288.502 116.79 288.974C101.603 291.004 87.4881 296.951 75.759 306.748Z" fill="#294043" fill-rule="nonzero" opacity="1" stroke="none"/>
<path d="M62.6862 284.563C62.1873 283.563 60.8166 282.794 59.968 282.098C57.1756 279.808 54.255 277.728 51.1665 275.871C40.7631 269.614 28.0472 265.072 22.3026 253.556C22.432 253.427 22.432 253.427 22.5615 253.297C24.4882 255.228 26.9089 256.591 29.1626 258.097C34.8872 261.922 41.0193 264.812 46.8951 268.346C51.3578 271.03 56.0179 272.956 59.968 276.52C60.9763 275.846 59.4542 272.961 59.062 271.979C57.5005 268.066 54.1248 264.38 53.108 260.303C48.7572 242.859 33.8921 237.888 17.7724 236.691C16.3955 236.588 15.0095 236.623 13.6305 236.691C12.091 236.766 5.26926 237.274 4.18175 238.637C3.68861 239.255 4.10073 243.644 4.18175 244.864C4.49654 249.597 5.34459 254.197 6.64101 258.746C10.108 270.909 18.68 282.784 31.2336 286.379C37.3123 288.12 43.8395 287.589 50.0016 286.639C53.0575 286.168 56.123 285.726 59.1914 285.342C60.2075 285.214 61.9064 285.345 62.6862 284.563Z" fill="#294043" fill-rule="nonzero" opacity="1" stroke="none"/>
<path d="M83.9134 276.52C86.5257 275.21 88.972 272.751 91.5501 271.2C101.425 265.262 111.84 260.715 121.191 253.686C121.385 253.816 121.385 253.816 121.579 253.945C120.492 255.034 119.793 256.721 118.861 257.967C116.922 260.559 114.634 262.958 112.001 264.843C107.644 267.962 102.848 270.274 98.1512 272.627C92.2239 275.598 86.6921 279.947 81.8425 284.433C82.428 285.314 85.302 285.199 86.3727 285.342C90.5273 285.897 94.6285 286.693 98.7984 287.158C120.04 289.523 134.321 274.673 138.276 254.854C139.245 249.995 139.598 245.301 139.829 240.323C139.854 239.779 140.195 239.125 139.829 238.637C138.898 237.392 131.458 236.893 130.122 236.82C129.13 236.767 128.137 236.73 127.145 236.691C127.058 236.687 126.971 236.7 126.886 236.691C117.321 235.625 104 240.688 97.1157 247.588C93.7792 250.933 92.9477 256.593 90.9029 260.692C88.907 264.693 86.2375 268.493 84.8195 272.757C84.5337 273.617 83.3395 275.944 83.9134 276.52Z" fill="#294043" fill-rule="nonzero" opacity="1" stroke="none"/>
<path d="M69.6756 268.865C70.1939 268.346 69.811 267.872 69.8051 267.179C69.7214 257.535 69.6756 247.891 69.6756 238.247C69.6756 235.944 70.167 230.749 72.0054 228.906C73.5631 230.468 74.3161 237.552 74.3353 239.415C74.4145 247.069 74.4647 254.724 74.4647 262.378C74.4647 264.792 73.4737 266.315 74.853 267.697C75.5051 267.044 75.6032 265.7 76.1473 264.973C77.3646 263.346 78.276 261.436 79.5126 259.784C81.8223 256.697 86.048 252.912 87.0198 249.016C87.7493 246.09 89.1141 243.434 89.4791 240.323C90.3486 232.916 88.5787 226.385 84.5606 220.344C82.0307 216.54 78.9592 213.066 75.5002 210.095C74.9747 209.643 72.759 207.181 72.0054 207.37C71.2607 207.557 70.3826 208.594 69.8051 209.057C66.8309 211.442 64.156 214.124 61.7801 217.101C54.8621 225.768 52.1841 237.1 56.4733 247.848C58.3473 252.544 62.1231 256.373 65.016 260.432C66.3414 262.292 67.4923 264.229 68.5107 266.27C68.9389 267.129 68.9694 268.157 69.6756 268.865Z" fill="#294043" fill-rule="nonzero" opacity="1" stroke="none"/>
<path d="M72.0054 327.765C74.898 325.446 77.1458 321.315 79.7715 318.684C87.1335 311.305 97.0893 306.718 106.953 303.894C112.618 302.272 118.796 300.962 124.685 300.78C126.842 300.714 129.003 300.775 131.157 300.65C131.279 300.643 131.343 300.489 131.416 300.391C131.918 299.72 133.475 296.413 133.357 295.591C133.143 294.083 130.318 295.11 128.827 295.072C124.565 294.962 120.349 295.213 116.143 295.98C99.0479 299.095 83.2572 306.046 72.1349 319.981C68.9896 317.115 66.4167 313.709 63.0745 311.029C54.1049 303.837 43.5223 299.144 32.269 296.888C27.402 295.912 22.6213 295.264 17.6429 295.072C15.5891 294.993 13.004 294.82 10.9123 295.072C10.0881 295.171 12.3338 299.869 12.7244 300.391C12.7977 300.489 12.8614 300.645 12.9833 300.65C15.0095 300.733 17.0393 300.617 19.0667 300.65C24.2335 300.735 29.8719 301.687 34.8577 303.115C49.2105 307.226 63.4708 314.933 72.0054 327.765Z" fill="#fefbf5" fill-rule="nonzero" opacity="1" stroke="none"/>
<path d="M16.7369 307.397C16.0266 307.383 19.469 312.58 20.2316 313.235C20.8221 313.742 21.7856 313.309 22.5615 313.364C24.0336 313.47 25.5058 313.64 26.9622 313.883C32.4451 314.799 37.6253 316.498 42.7532 318.554C49.2441 321.156 56.2582 326.417 60.6152 331.657C61.0514 332.182 65.3481 338.86 65.5337 338.922C65.8143 339.016 68.3119 339.248 68.6401 339.182C69.4483 339.02 68.8646 337.542 68.899 336.717C68.9676 335.064 68.0502 333.958 67.2164 332.565C64.9425 328.767 61.9792 325.391 58.6737 322.446C47.2273 312.248 31.7156 307.673 16.7369 307.397Z" fill="#fefbf5" fill-rule="nonzero" opacity="1" stroke="none"/>
<path d="M78.9949 338.922C80.1896 337.725 81.4309 334.543 82.6191 332.955C85.6346 328.924 93.768 320.787 99.575 319.332C101.772 318.782 104.046 317.592 106.176 316.738C109.378 315.454 112.908 314.817 116.272 314.143C118.717 313.653 121.179 313.612 123.65 313.364C123.746 313.355 123.833 313.295 123.909 313.235C125.543 311.924 126.516 309.509 127.662 307.786C126.532 306.653 124.471 307.493 122.873 307.526C119.89 307.589 116.849 308.176 113.942 308.824C101.409 311.615 90.7385 316.902 81.5836 326.079C79.5013 328.166 76.1385 331.952 75.3707 335.03C75.2185 335.64 75.6325 334.875 75.759 335.679C75.8667 336.362 75.6513 337.071 75.759 337.755C75.8934 338.607 78.3402 338.529 78.9949 338.922Z" fill="#fefbf5" fill-rule="nonzero" opacity="1" stroke="none"/>
<path d="M84.1723 276.52C83.5029 275.849 85.791 270.81 86.3727 269.644C87.8619 266.658 90.6124 263.414 91.4206 260.173C92.4012 256.241 94.4833 252 96.7274 248.626C95.6733 247.217 89.8767 253.876 89.2202 254.594C84.5225 259.731 79.8331 267.938 79.3832 274.703C79.3125 275.766 78.3889 280.951 78.8655 281.19C79.1526 281.334 79.392 280.946 79.5126 280.801C80.9618 279.058 82.7353 277.96 84.1723 276.52Z" fill="#bccac7" fill-rule="nonzero" opacity="1" stroke="none"/>
<path d="M47.2834 248.367C50.1069 251.197 51.3912 256.649 52.8491 260.303C54.1344 263.523 57.0643 266.434 57.8971 269.773C58.3643 271.647 59.1912 274.724 60.0975 276.39C61.0923 278.218 63.5482 279.243 64.7571 281.06C65.8231 280.348 64.7983 274.93 64.4982 273.276C63.1469 265.827 58.9206 259.066 53.6257 253.297C52.9439 252.554 52.2669 251.805 51.5548 251.091C51.0166 250.552 48.2907 247.357 47.2834 248.367Z" fill="#bccac7" fill-rule="nonzero" opacity="1" stroke="none"/>
<path d="M87.9259 336.717C88.5699 337.685 93.8253 335.519 95.0448 335.03C103.221 331.752 110.357 327.128 116.919 321.149C116.206 320.434 110.95 322.08 109.671 322.446C101.341 324.832 93.3388 329.935 87.9259 336.717Z" fill="#bccac7" fill-rule="nonzero" opacity="1" stroke="none"/>
<path d="M27.3505 321.149C31.9136 327.247 42.2777 332.193 49.3544 335.03C50.4326 335.463 56.369 337.6 56.8616 337.106C49.5605 329.788 43.8213 325.235 34.0811 322.446C33.0444 322.149 27.795 320.703 27.3505 321.149Z" fill="#bccac7" fill-rule="nonzero" opacity="1" stroke="none"/>
<path d="M75.5002 335.16C74.6133 336.049 75.1551 337.668 75.2413 338.922C75.2861 339.572 78.802 338.856 78.9949 338.663C78.736 338.403 78.736 338.403 78.4772 338.144C75.5776 339.597 76.4016 336.064 75.5002 335.16Z" fill="#b2b3ad" fill-rule="nonzero" opacity="1" stroke="none"/>
<path d="M74.4647 267.049C74.0821 267.432 73.9415 268.341 74.3353 268.735C74.7347 268.335 74.7375 268.059 74.9824 267.568C74.7236 267.308 74.7236 267.308 74.4647 267.049Z" fill="#b2b3ad" fill-rule="nonzero" opacity="1" stroke="none"/>
</g>
<g opacity="1">
<path d="M37.8795 395.294C37.5729 394.987 37.7532 394.431 37.7501 393.997C37.7313 391.359 37.7274 388.72 37.6854 386.083C37.6691 385.059 36.4713 384.721 35.6791 384.721C34.3162 384.721 34.3911 386.754 34.3848 387.51C34.3636 390.061 34.3201 392.613 34.3201 395.164C34.3201 395.213 34.3632 395.251 34.3848 395.294C34.3201 395.359 34.3201 395.359 34.2554 395.424C28.5281 389.683 19.7934 387.197 11.9926 386.277C9.53751 385.988 7.0974 386.018 4.61485 386.018C4.56657 386.018 4.52852 386.061 4.48542 386.083C4.19199 385.789 4.1208 384.774 4.03239 384.331C3.65289 382.43 3.51401 380.56 3.38522 378.623C3.31067 377.503 2.34716 376.159 1.0554 376.677C-0.231955 377.193 0.0199247 378.695 0.0199247 379.855C0.0199247 381.11 0.166573 382.376 0.343511 383.618C1.27893 390.181 4.07459 396.564 8.30373 401.651C20.0978 415.837 40.6719 418.943 56.0651 408.657C64.2437 403.192 69.377 394.939 71.2736 385.434C71.7845 382.874 71.9208 380.421 71.9208 377.78C71.9208 377.364 71.251 376.768 70.8853 376.677C68.4134 376.058 68.6676 379.173 68.5555 380.634C68.4702 381.746 68.3013 382.846 68.1025 383.942C68.0407 384.282 67.9235 385.937 67.52 386.018C66.293 386.264 65.0178 385.953 63.7664 385.953C62.0153 385.953 60.1617 386.171 58.3949 386.407C50.8015 387.422 43.7441 390.395 37.8795 395.294Z" fill="#294043" fill-rule="nonzero" opacity="1" stroke="none"/>
<path d="M31.3431 384.202C31.0937 383.702 30.4083 383.317 29.984 382.969C28.5878 381.824 27.1275 380.784 25.5832 379.855C20.3815 376.727 14.0236 374.456 11.1513 368.698C11.216 368.633 11.216 368.633 11.2807 368.568C12.2441 369.534 13.4545 370.216 14.5813 370.969C17.4436 372.881 20.5097 374.326 23.4476 376.093C25.6789 377.435 28.009 378.398 29.984 380.18C30.4882 379.843 29.7271 378.401 29.531 377.909C28.7502 375.953 27.0624 374.11 26.554 372.071C24.3786 363.35 16.9461 360.864 8.88619 360.265C8.19773 360.214 7.50473 360.232 6.81524 360.265C6.04549 360.303 2.63463 360.557 2.09088 361.238C1.8443 361.547 2.05036 363.742 2.09088 364.352C2.24827 366.718 2.6723 369.019 3.3205 371.293C5.05402 377.374 9.33999 383.312 15.6168 385.11C18.6562 385.98 21.9197 385.715 25.0008 385.239C26.5288 385.004 28.0615 384.783 29.5957 384.591C30.1037 384.527 30.9532 384.592 31.3431 384.202Z" fill="#294043" fill-rule="nonzero" opacity="1" stroke="none"/>
<path d="M41.9567 380.18C43.2628 379.525 44.486 378.295 45.775 377.52C50.7124 374.551 55.9198 372.278 60.5953 368.763C60.6924 368.828 60.6924 368.828 60.7894 368.893C60.2462 369.437 59.8966 370.281 59.4304 370.904C58.4608 372.199 57.3171 373.399 56.0004 374.342C53.8221 375.901 51.4239 377.057 49.0756 378.234C46.1119 379.719 43.3461 381.893 40.9212 384.137C41.214 384.577 42.651 384.519 43.1863 384.591C45.2636 384.868 47.3143 385.267 49.3992 385.499C60.0199 386.682 67.1606 379.257 69.138 369.347C69.6227 366.917 69.7991 364.571 69.9146 362.082C69.9271 361.81 70.0973 361.482 69.9146 361.238C69.449 360.616 65.7292 360.366 65.0608 360.33C64.5649 360.303 64.0685 360.285 63.5723 360.265C63.5292 360.264 63.4857 360.27 63.4428 360.265C58.6606 359.733 52 362.264 48.5579 365.714C46.8896 367.386 46.4738 370.216 45.4514 372.266C44.4535 374.267 43.1188 376.166 42.4097 378.299C42.2668 378.728 41.6698 379.892 41.9567 380.18Z" fill="#294043" fill-rule="nonzero" opacity="1" stroke="none"/>
<path d="M34.8378 376.353C35.0969 376.093 34.9055 375.856 34.9025 375.509C34.8607 370.688 34.8378 365.866 34.8378 361.044C34.8378 359.892 35.0835 357.295 36.0027 356.373C36.7815 357.154 37.1581 360.696 37.1676 361.628C37.2072 365.455 37.2323 369.282 37.2323 373.109C37.2323 374.316 36.7369 375.078 37.4265 375.769C37.7525 375.442 37.8016 374.77 38.0737 374.407C38.6823 373.593 39.138 372.638 39.7563 371.812C40.9111 370.268 43.024 368.376 43.5099 366.428C43.8747 364.965 44.5571 363.637 44.7396 362.082C45.1743 358.378 44.2894 355.113 42.2803 352.092C41.0153 350.19 39.4796 348.453 37.7501 346.967C37.4873 346.742 36.3795 345.511 36.0027 345.605C35.6303 345.698 35.1913 346.217 34.9025 346.448C33.4155 347.641 32.078 348.982 30.8901 350.47C27.431 354.804 26.092 360.47 28.2366 365.844C29.1736 368.192 31.0616 370.107 32.508 372.136C33.1707 373.066 33.7462 374.034 34.2554 375.055C34.4694 375.484 34.4847 375.999 34.8378 376.353Z" fill="#294043" fill-rule="nonzero" opacity="1" stroke="none"/>
<path d="M36.0027 405.803C37.449 404.643 38.5729 402.578 39.8858 401.262C43.5667 397.572 48.5447 395.279 53.4764 393.867C56.3088 393.056 59.398 392.401 62.3426 392.31C63.421 392.277 64.5015 392.307 65.5785 392.245C65.6395 392.242 65.6713 392.164 65.7079 392.115C65.959 391.78 66.7373 390.127 66.6787 389.715C66.5713 388.961 65.1588 389.475 64.4136 389.456C62.2827 389.401 60.1745 389.527 58.0713 389.91C49.524 391.468 41.6286 394.943 36.0674 401.91C34.4948 400.477 33.2084 398.775 31.5372 397.435C27.0525 393.838 21.7612 391.492 16.1345 390.364C13.701 389.876 11.3106 389.552 8.82147 389.456C7.79454 389.416 6.502 389.33 5.45617 389.456C5.04406 389.505 6.1669 391.854 6.36222 392.115C6.39884 392.164 6.43069 392.243 6.49165 392.245C7.50473 392.287 8.51963 392.229 9.53336 392.245C12.1167 392.288 14.936 392.764 17.4289 393.478C24.6052 395.533 31.7354 399.387 36.0027 405.803Z" fill="#fefbf5" fill-rule="nonzero" opacity="1" stroke="none"/>
<path d="M8.36845 395.618C8.01328 395.612 9.7345 398.21 10.1158 398.537C10.4111 398.791 10.8928 398.574 11.2807 398.602C12.0168 398.655 12.7529 398.74 13.4811 398.862C16.2225 399.32 18.8127 400.169 21.3766 401.197C24.6221 402.498 28.1291 405.128 30.3076 407.749C30.5257 408.011 32.6741 411.35 32.7669 411.381C32.9072 411.428 34.1559 411.544 34.3201 411.511C34.7242 411.43 34.4323 410.691 34.4495 410.278C34.4838 409.452 34.0251 408.899 33.6082 408.203C32.4712 406.303 30.9896 404.615 29.3368 403.143C23.6136 398.044 15.8578 395.757 8.36845 395.618Z" fill="#fefbf5" fill-rule="nonzero" opacity="1" stroke="none"/>
<path d="M39.4975 411.381C40.0948 410.782 40.7154 409.191 41.3095 408.397C42.8173 406.382 46.884 402.314 49.7875 401.586C50.886 401.311 52.023 400.716 53.0881 400.289C54.6889 399.647 56.4541 399.329 58.136 398.991C59.3583 398.746 60.5897 398.726 61.8249 398.602C61.8729 398.597 61.9167 398.568 61.9543 398.537C62.7715 397.882 63.258 396.675 63.8311 395.813C63.2659 395.246 62.2357 395.666 61.4366 395.683C59.9449 395.714 58.4245 396.008 56.9711 396.332C50.7043 397.728 45.3692 400.371 40.7918 404.959C39.7506 406.003 38.0693 407.896 37.6854 409.435C37.6093 409.74 37.8162 409.357 37.8795 409.76C37.9334 410.101 37.8257 410.456 37.8795 410.797C37.9467 411.224 39.1701 411.184 39.4975 411.381Z" fill="#fefbf5" fill-rule="nonzero" opacity="1" stroke="none"/>
<path d="M42.0861 380.18C41.7514 379.844 42.8955 377.325 43.1863 376.742C43.931 375.249 45.3062 373.627 45.7103 372.006C46.2006 370.04 47.2416 367.92 48.3637 366.233C47.8367 365.529 44.9384 368.858 44.6101 369.217C42.2613 371.785 39.9166 375.889 39.6916 379.272C39.6563 379.803 39.1944 382.396 39.4327 382.515C39.5763 382.587 39.696 382.393 39.7563 382.32C40.4809 381.449 41.3676 380.9 42.0861 380.18Z" fill="#bccac7" fill-rule="nonzero" opacity="1" stroke="none"/>
<path d="M23.6417 366.103C25.0535 367.518 25.6956 370.245 26.4246 372.071C27.0672 373.682 28.5321 375.137 28.9485 376.807C29.1822 377.743 29.5956 379.282 30.0487 380.115C30.5461 381.029 31.7741 381.541 32.3786 382.45C32.9116 382.094 32.3991 379.385 32.2491 378.558C31.5735 374.833 29.4603 371.453 26.8129 368.568C26.4719 368.197 26.1335 367.823 25.7774 367.466C25.5083 367.196 24.1454 365.599 23.6417 366.103Z" fill="#bccac7" fill-rule="nonzero" opacity="1" stroke="none"/>
<path d="M43.9629 410.278C44.285 410.763 46.9126 409.68 47.5224 409.435C51.6107 407.796 55.1786 405.484 58.4596 402.494C58.103 402.137 55.4752 402.96 54.8354 403.143C50.6705 404.336 46.6694 406.887 43.9629 410.278Z" fill="#bccac7" fill-rule="nonzero" opacity="1" stroke="none"/>
<path d="M13.6753 402.494C15.9568 405.543 21.1388 408.017 24.6772 409.435C25.2163 409.651 28.1845 410.72 28.4308 410.473C24.7802 406.814 21.9107 404.538 17.0406 403.143C16.5222 402.995 13.8975 402.272 13.6753 402.494Z" fill="#bccac7" fill-rule="nonzero" opacity="1" stroke="none"/>
<path d="M37.7501 409.5C37.3066 409.945 37.5775 410.754 37.6207 411.381C37.643 411.706 39.401 411.348 39.4975 411.251C39.368 411.122 39.368 411.122 39.2386 410.992C37.7888 411.719 38.2008 409.952 37.7501 409.5Z" fill="#b2b3ad" fill-rule="nonzero" opacity="1" stroke="none"/>
<path d="M37.2323 375.444C37.041 375.636 36.9708 376.09 37.1676 376.288C37.3674 376.087 37.3688 375.949 37.4912 375.704C37.3618 375.574 37.3618 375.574 37.2323 375.444Z" fill="#b2b3ad" fill-rule="nonzero" opacity="1" stroke="none"/>
</g>
<g opacity="1">
<path d="M18.9606 439.594C18.8071 439.441 18.8974 439.162 18.8958 438.945C18.8864 437.625 18.8845 436.304 18.8634 434.984C18.8553 434.471 18.2557 434.302 17.8592 434.302C17.177 434.302 17.2145 435.32 17.2113 435.698C17.2007 436.975 17.1789 438.252 17.1789 439.529C17.1789 439.554 17.2005 439.573 17.2113 439.594C17.1789 439.627 17.1789 439.627 17.1465 439.659C14.2798 436.786 9.90759 435.541 6.00291 435.081C4.774 434.936 3.55261 434.951 2.30997 434.951C2.2858 434.951 2.26675 434.973 2.24518 434.984C2.0983 434.836 2.06267 434.329 2.01842 434.107C1.82846 433.155 1.75894 432.219 1.69448 431.25C1.65716 430.689 1.17487 430.016 0.528282 430.276C-0.116105 430.534 0.00997332 431.286 0.00997332 431.867C0.00997332 432.495 0.0833784 433.128 0.171945 433.75C0.640172 437.035 2.03954 440.23 4.15644 442.776C10.06 449.877 20.3584 451.432 28.0634 446.283C32.1572 443.548 34.7267 439.417 35.6761 434.659C35.9318 433.377 36 432.15 36 430.828C36 430.619 35.6647 430.321 35.4817 430.276C34.2444 429.966 34.3716 431.525 34.3155 432.256C34.2728 432.813 34.1883 433.363 34.0887 433.912C34.0578 434.082 33.9991 434.911 33.7972 434.951C33.183 435.074 32.5447 434.919 31.9183 434.919C31.0418 434.919 30.114 435.028 29.2296 435.146C25.4287 435.654 21.8961 437.142 18.9606 439.594Z" fill="#294043" fill-rule="nonzero" opacity="1" stroke="none"/>
<path d="M15.6888 434.042C15.5639 433.792 15.2209 433.599 15.0085 433.425C14.3096 432.852 13.5787 432.331 12.8057 431.867C10.202 430.301 7.01951 429.164 5.58179 426.282C5.61418 426.249 5.61418 426.249 5.64658 426.217C6.1288 426.7 6.73463 427.041 7.29868 427.418C8.73142 428.376 10.2661 429.099 11.7367 429.983C12.8536 430.655 14.0199 431.137 15.0085 432.029C15.2609 431.86 14.8799 431.138 14.7818 430.892C14.391 429.913 13.5461 428.991 13.2916 427.97C12.2027 423.605 8.48237 422.36 4.44799 422.061C4.10338 422.035 3.7565 422.044 3.41137 422.061C3.02607 422.08 1.31877 422.207 1.04659 422.548C0.923168 422.702 1.02631 423.801 1.04659 424.106C1.12537 425.291 1.33762 426.442 1.66208 427.581C2.52979 430.625 4.67514 433.597 7.81699 434.497C9.33835 434.932 10.9719 434.799 12.5142 434.562C13.279 434.444 14.0462 434.333 14.8142 434.237C15.0684 434.205 15.4937 434.238 15.6888 434.042Z" fill="#294043" fill-rule="nonzero" opacity="1" stroke="none"/>
<path d="M21.0015 432.029C21.6552 431.701 22.2675 431.086 22.9127 430.698C25.3841 429.211 27.9907 428.074 30.331 426.314C30.3796 426.347 30.3796 426.347 30.4282 426.379C30.1563 426.652 29.9813 427.074 29.7479 427.386C29.2626 428.034 28.6901 428.635 28.031 429.107C26.9407 429.887 25.7403 430.466 24.5648 431.055C23.0814 431.798 21.6969 432.887 20.4831 434.01C20.6297 434.23 21.349 434.201 21.6169 434.237C22.6567 434.376 23.6832 434.575 24.7268 434.691C30.043 435.283 33.6173 431.567 34.607 426.606C34.8497 425.39 34.938 424.216 34.9958 422.97C35.0021 422.834 35.0873 422.67 34.9958 422.548C34.7627 422.236 32.9008 422.111 32.5662 422.093C32.318 422.08 32.0695 422.071 31.8211 422.061C31.7996 422.06 31.7778 422.063 31.7564 422.061C29.3626 421.794 26.0287 423.061 24.3057 424.788C23.4706 425.625 23.2625 427.042 22.7507 428.068C22.2512 429.069 21.5831 430.02 21.2282 431.087C21.1567 431.302 20.8578 431.885 21.0015 432.029Z" fill="#294043" fill-rule="nonzero" opacity="1" stroke="none"/>
<path d="M17.4381 430.113C17.5678 429.983 17.472 429.865 17.4705 429.691C17.4496 427.278 17.4381 424.864 17.4381 422.45C17.4381 421.874 17.5611 420.574 18.0212 420.113C18.411 420.503 18.5995 422.276 18.6043 422.743C18.6241 424.658 18.6367 426.574 18.6367 428.49C18.6367 429.094 18.3887 429.475 18.7339 429.821C18.8971 429.657 18.9216 429.321 19.0578 429.139C19.3624 428.732 19.5906 428.254 19.9001 427.84C20.4781 427.068 21.5357 426.121 21.7789 425.145C21.9615 424.413 22.3031 423.748 22.3944 422.97C22.612 421.116 22.1691 419.482 21.1634 417.97C20.5302 417.018 19.7615 416.148 18.8958 415.404C18.7643 415.291 18.2098 414.675 18.0212 414.723C17.8348 414.769 17.615 415.029 17.4705 415.145C16.7261 415.742 16.0567 416.413 15.462 417.158C13.7306 419.327 13.0604 422.163 14.1339 424.853C14.6029 426.028 15.5479 426.987 16.2719 428.003C16.6036 428.468 16.8917 428.953 17.1465 429.464C17.2537 429.679 17.2613 429.936 17.4381 430.113Z" fill="#294043" fill-rule="nonzero" opacity="1" stroke="none"/>
<path d="M18.0212 444.854C18.7451 444.274 19.3077 443.24 19.9648 442.582C21.8074 440.735 24.2991 439.587 26.7676 438.88C28.1854 438.474 29.7317 438.146 31.2056 438.101C31.7454 438.084 32.2863 438.099 32.8254 438.068C32.8559 438.067 32.8718 438.028 32.8902 438.003C33.0158 437.835 33.4054 437.008 33.3761 436.802C33.3223 436.425 32.6153 436.682 32.2423 436.672C31.1757 436.645 30.1204 436.708 29.0676 436.899C24.7893 437.679 20.8372 439.419 18.0536 442.906C17.2664 442.189 16.6225 441.337 15.786 440.666C13.5411 438.866 10.8926 437.691 8.07614 437.127C6.85806 436.882 5.66154 436.72 4.41559 436.672C3.90156 436.652 3.25458 436.609 2.73109 436.672C2.52481 436.697 3.08685 437.873 3.18461 438.003C3.20295 438.028 3.21888 438.067 3.2494 438.068C3.7565 438.089 4.26451 438.06 4.77193 438.068C6.06505 438.09 7.4762 438.328 8.72403 438.685C12.3162 439.714 15.8852 441.643 18.0212 444.854Z" fill="#fefbf5" fill-rule="nonzero" opacity="1" stroke="none"/>
<path d="M4.18883 439.757C4.01105 439.753 4.87261 441.054 5.06348 441.218C5.21126 441.345 5.4524 441.236 5.64658 441.25C6.01503 441.277 6.38348 441.319 6.74798 441.38C8.1202 441.609 9.41668 442.035 10.7001 442.549C12.3246 443.2 14.08 444.517 15.1705 445.829C15.2797 445.96 16.355 447.631 16.4015 447.647C16.4717 447.67 17.0968 447.728 17.1789 447.712C17.3812 447.671 17.2351 447.301 17.2437 447.095C17.2609 446.681 17.0313 446.404 16.8226 446.056C16.2535 445.105 15.5119 444.26 14.6846 443.523C11.8198 440.971 7.93763 439.826 4.18883 439.757Z" fill="#fefbf5" fill-rule="nonzero" opacity="1" stroke="none"/>
<path d="M19.7705 447.647C20.0695 447.347 20.3801 446.551 20.6775 446.153C21.4322 445.145 23.4678 443.108 24.9212 442.744C25.471 442.606 26.0401 442.308 26.5733 442.095C27.3746 441.773 28.2582 441.614 29.1 441.445C29.7118 441.322 30.3282 441.312 30.9465 441.25C30.9705 441.248 30.9924 441.233 31.0113 441.218C31.4203 440.89 31.6638 440.285 31.9507 439.854C31.6678 439.571 31.1521 439.781 30.7521 439.789C30.0054 439.805 29.2444 439.952 28.5169 440.114C25.3801 440.813 22.7096 442.136 20.4184 444.432C19.8972 444.955 19.0556 445.902 18.8634 446.673C18.8253 446.825 18.9289 446.634 18.9606 446.835C18.9876 447.006 18.9337 447.184 18.9606 447.355C18.9942 447.568 19.6066 447.548 19.7705 447.647Z" fill="#fefbf5" fill-rule="nonzero" opacity="1" stroke="none"/>
<path d="M21.0662 432.029C20.8987 431.861 21.4714 430.6 21.6169 430.308C21.9897 429.561 22.6781 428.749 22.8803 427.938C23.1257 426.954 23.6468 425.892 24.2085 425.048C23.9447 424.695 22.4939 426.362 22.3296 426.542C21.1539 427.827 19.9803 429.881 19.8677 431.574C19.85 431.84 19.6188 433.138 19.7381 433.198C19.8099 433.234 19.8699 433.137 19.9001 433.1C20.2627 432.664 20.7066 432.389 21.0662 432.029Z" fill="#bccac7" fill-rule="nonzero" opacity="1" stroke="none"/>
<path d="M11.8339 424.983C12.5405 425.691 12.8619 427.056 13.2268 427.97C13.5485 428.776 14.2818 429.505 14.4902 430.34C14.6072 430.809 14.8141 431.58 15.0409 431.996C15.2899 432.454 15.9045 432.711 16.2071 433.165C16.4739 432.987 16.2174 431.631 16.1423 431.217C15.8041 429.353 14.7464 427.661 13.4212 426.217C13.2505 426.031 13.0811 425.844 12.9029 425.665C12.7682 425.53 12.086 424.73 11.8339 424.983Z" fill="#bccac7" fill-rule="nonzero" opacity="1" stroke="none"/>
<path d="M22.0057 447.095C22.1669 447.337 23.4821 446.795 23.7874 446.673C25.8338 445.852 27.6197 444.695 29.262 443.198C29.0835 443.02 27.7682 443.431 27.4479 443.523C25.3632 444.12 23.3604 445.397 22.0057 447.095Z" fill="#bccac7" fill-rule="nonzero" opacity="1" stroke="none"/>
<path d="M6.84516 443.198C7.98719 444.725 10.5811 445.963 12.3522 446.673C12.622 446.781 14.1078 447.316 14.2311 447.192C12.4038 445.361 10.9674 444.221 8.52966 443.523C8.27019 443.449 6.95641 443.087 6.84516 443.198Z" fill="#bccac7" fill-rule="nonzero" opacity="1" stroke="none"/>
<path d="M18.8958 446.705C18.6739 446.928 18.8095 447.333 18.831 447.647C18.8422 447.809 19.7222 447.63 19.7705 447.582C19.7057 447.517 19.7057 447.517 19.6409 447.452C18.9152 447.816 19.1214 446.931 18.8958 446.705Z" fill="#b2b3ad" fill-rule="nonzero" opacity="1" stroke="none"/>
<path d="M18.6367 429.659C18.5409 429.755 18.5057 429.982 18.6043 430.081C18.7043 429.981 18.705 429.911 18.7663 429.789C18.7015 429.724 18.7015 429.724 18.6367 429.659Z" fill="#b2b3ad" fill-rule="nonzero" opacity="1" stroke="none"/>
</g>
<g opacity="1">
<path d="M9.48031 461.755C9.40357 461.678 9.44869 461.539 9.44791 461.431C9.44322 460.77 9.44225 460.11 9.43172 459.45C9.42764 459.194 9.12786 459.109 8.92961 459.109C8.58849 459.109 8.60725 459.618 8.60566 459.807C8.60035 460.446 8.58947 461.084 8.58947 461.723C8.58947 461.735 8.60025 461.744 8.60566 461.755C8.58947 461.771 8.58947 461.771 8.57327 461.788C7.13989 460.351 4.95379 459.729 3.00146 459.499C2.387 459.426 1.7763 459.434 1.15498 459.434C1.1429 459.434 1.13338 459.444 1.12259 459.45C1.04915 459.376 1.03133 459.122 1.00921 459.012C0.914229 458.536 0.87947 458.068 0.847238 457.583C0.828579 457.303 0.587435 456.966 0.264141 457.096C-0.0580526 457.225 0.00498666 457.601 0.00498666 457.891C0.00498666 458.205 0.0416892 458.522 0.0859723 458.833C0.320086 460.476 1.01977 462.073 2.07822 463.346C5.02998 466.897 10.1792 467.674 14.0317 465.1C16.0786 463.732 17.3634 461.666 17.838 459.288C17.9659 458.647 18 458.033 18 457.372C18 457.268 17.8324 457.119 17.7408 457.096C17.1222 456.941 17.1858 457.721 17.1577 458.086C17.1364 458.364 17.0941 458.64 17.0444 458.914C17.0289 458.999 16.9996 459.413 16.8986 459.434C16.5915 459.495 16.2724 459.417 15.9592 459.417C15.5209 459.417 15.057 459.472 14.6148 459.531C12.7144 459.785 10.9481 460.529 9.48031 461.755Z" fill="#294043" fill-rule="nonzero" opacity="1" stroke="none"/>
<path d="M7.8444 458.979C7.78197 458.854 7.61045 458.758 7.50426 458.671C7.15482 458.384 6.78935 458.124 6.40285 457.891C5.10099 457.108 3.50975 456.54 2.79089 455.099C2.80709 455.083 2.80709 455.083 2.82329 455.066C3.0644 455.308 3.36732 455.479 3.64934 455.667C4.36571 456.146 5.13306 456.508 5.86835 456.95C6.42679 457.286 7.00995 457.527 7.50426 457.973C7.63043 457.888 7.43996 457.527 7.39088 457.404C7.19548 456.915 6.77306 456.453 6.64581 455.943C6.10136 453.76 4.24118 453.138 2.22399 452.988C2.05169 452.976 1.87825 452.98 1.70569 452.988C1.51304 452.998 0.659383 453.061 0.523295 453.232C0.461584 453.309 0.513155 453.859 0.523295 454.011C0.562686 454.603 0.66881 455.179 0.83104 455.748C1.2649 457.27 2.33757 458.756 3.9085 459.206C4.66918 459.424 5.48597 459.358 6.25708 459.239C6.63949 459.18 7.02311 459.125 7.40708 459.076C7.53422 459.061 7.74683 459.077 7.8444 458.979Z" fill="#294043" fill-rule="nonzero" opacity="1" stroke="none"/>
<path d="M10.5007 457.973C10.8276 457.809 11.1337 457.501 11.4564 457.307C12.6921 456.564 13.9954 455.995 15.1655 455.115C15.1898 455.131 15.1898 455.131 15.2141 455.148C15.0781 455.284 14.9906 455.495 14.874 455.651C14.6313 455.975 14.3451 456.275 14.0155 456.511C13.4703 456.902 12.8701 457.191 12.2824 457.485C11.5407 457.857 10.8484 458.401 10.2416 458.963C10.3149 459.073 10.6745 459.059 10.8085 459.076C11.3284 459.146 11.8416 459.246 12.3634 459.304C15.0215 459.6 16.8086 457.741 17.3035 455.261C17.4248 454.653 17.469 454.066 17.4979 453.443C17.501 453.375 17.5436 453.293 17.4979 453.232C17.3814 453.076 16.4504 453.014 16.2831 453.005C16.159 452.998 16.0348 452.993 15.9106 452.988C15.8998 452.988 15.8889 452.99 15.8782 452.988C14.6813 452.855 13.0143 453.489 12.1528 454.352C11.7353 454.771 11.6313 455.479 11.3754 455.992C11.1256 456.493 10.7916 456.968 10.6141 457.502C10.5783 457.609 10.4289 457.901 10.5007 457.973Z" fill="#294043" fill-rule="nonzero" opacity="1" stroke="none"/>
<path d="M8.71904 457.015C8.7839 456.95 8.73599 456.89 8.73524 456.804C8.72478 455.597 8.71904 454.39 8.71904 453.183C8.71904 452.895 8.78053 452.245 9.01059 452.014C9.20551 452.21 9.29974 453.096 9.30214 453.329C9.31205 454.287 9.31834 455.245 9.31834 456.203C9.31834 456.505 9.19433 456.696 9.36693 456.869C9.44853 456.787 9.46081 456.619 9.5289 456.528C9.68122 456.324 9.79528 456.085 9.95003 455.878C10.239 455.492 10.7679 455.018 10.8895 454.531C10.9807 454.165 11.1515 453.832 11.1972 453.443C11.306 452.516 11.0845 451.699 10.5817 450.943C10.2651 450.467 9.88077 450.032 9.44791 449.66C9.38215 449.604 9.10489 449.296 9.01059 449.319C8.91739 449.343 8.80751 449.472 8.73524 449.53C8.36306 449.829 8.02833 450.164 7.73102 450.537C6.86531 451.622 6.5302 453.04 7.06694 454.385C7.30144 454.972 7.77394 455.451 8.13595 455.959C8.30181 456.192 8.44583 456.434 8.57327 456.69C8.62685 456.797 8.63067 456.926 8.71904 457.015Z" fill="#294043" fill-rule="nonzero" opacity="1" stroke="none"/>
<path d="M9.01059 464.385C9.37257 464.095 9.65384 463.578 9.98242 463.249C10.9037 462.325 12.1495 461.752 13.3838 461.398C14.0927 461.195 14.8659 461.031 15.6028 461.008C15.8727 461 16.1431 461.008 16.4127 460.992C16.4279 460.991 16.4359 460.972 16.4451 460.96C16.5079 460.876 16.7027 460.462 16.688 460.359C16.6611 460.17 16.3076 460.299 16.1211 460.294C15.5878 460.28 15.0602 460.312 14.5338 460.408C12.3946 460.798 10.4186 461.667 9.02679 463.411C8.6332 463.053 8.31123 462.626 7.89299 462.291C6.77056 461.391 5.44628 460.804 4.03807 460.521C3.42903 460.399 2.83077 460.318 2.2078 460.294C1.95078 460.284 1.62729 460.263 1.36555 460.294C1.2624 460.307 1.54342 460.894 1.59231 460.96C1.60147 460.972 1.60944 460.992 1.6247 460.992C1.87825 461.003 2.13225 460.988 2.38597 460.992C3.03252 461.003 3.7381 461.122 4.36202 461.301C6.15808 461.815 7.94259 462.78 9.01059 464.385Z" fill="#fefbf5" fill-rule="nonzero" opacity="1" stroke="none"/>
<path d="M2.09442 461.836C2.00553 461.835 2.43631 462.485 2.53174 462.567C2.60563 462.63 2.7262 462.576 2.82329 462.583C3.00751 462.596 3.19174 462.618 3.37399 462.648C4.0601 462.763 4.70834 462.975 5.35004 463.233C6.16229 463.558 7.04002 464.217 7.58524 464.872C7.63983 464.938 8.17751 465.774 8.20074 465.781C8.23585 465.793 8.54839 465.822 8.58947 465.814C8.6906 465.794 8.61755 465.609 8.62186 465.505C8.63045 465.299 8.51564 465.16 8.4113 464.986C8.12675 464.511 7.75593 464.088 7.34229 463.72C5.90991 462.443 3.96881 461.871 2.09442 461.836Z" fill="#fefbf5" fill-rule="nonzero" opacity="1" stroke="none"/>
<path d="M9.88524 465.781C10.0347 465.632 10.1901 465.233 10.3388 465.035C10.7161 464.53 11.7339 463.512 12.4606 463.33C12.7355 463.261 13.0201 463.112 13.2866 463.005C13.6873 462.845 14.1291 462.765 14.55 462.681C14.8559 462.619 15.1641 462.614 15.4732 462.583C15.4853 462.582 15.4962 462.575 15.5056 462.567C15.7101 462.403 15.8319 462.101 15.9754 461.885C15.8339 461.743 15.5761 461.848 15.3761 461.853C15.0027 461.86 14.6222 461.934 14.2585 462.015C12.69 462.364 11.3548 463.026 10.2092 464.174C9.9486 464.435 9.5278 464.909 9.43172 465.294C9.41267 465.371 9.46447 465.275 9.48031 465.376C9.49379 465.461 9.46683 465.55 9.48031 465.635C9.49712 465.742 9.80331 465.732 9.88524 465.781Z" fill="#fefbf5" fill-rule="nonzero" opacity="1" stroke="none"/>
<path d="M10.5331 457.973C10.4494 457.889 10.7357 457.258 10.8085 457.112C10.9948 456.738 11.339 456.332 11.4402 455.927C11.5629 455.435 11.8234 454.904 12.1042 454.482C11.9723 454.306 11.247 455.139 11.1648 455.229C10.577 455.872 9.99013 456.899 9.93383 457.745C9.92498 457.878 9.8094 458.527 9.86904 458.557C9.90497 458.575 9.93493 458.526 9.95003 458.508C10.1314 458.29 10.3533 458.153 10.5331 457.973Z" fill="#bccac7" fill-rule="nonzero" opacity="1" stroke="none"/>
<path d="M5.91694 454.45C6.27026 454.804 6.43097 455.486 6.61342 455.943C6.77425 456.346 7.14089 456.71 7.2451 457.128C7.30358 457.363 7.40704 457.748 7.52046 457.956C7.64495 458.185 7.95227 458.313 8.10355 458.541C8.23695 458.452 8.1087 457.774 8.07116 457.567C7.90206 456.634 7.37319 455.788 6.7106 455.066C6.62527 454.974 6.54056 454.88 6.45145 454.79C6.3841 454.723 6.04299 454.323 5.91694 454.45Z" fill="#bccac7" fill-rule="nonzero" opacity="1" stroke="none"/>
<path d="M11.0028 465.505C11.0834 465.627 11.7411 465.356 11.8937 465.294C12.9169 464.884 13.8098 464.306 14.631 463.557C14.5418 463.468 13.8841 463.674 13.724 463.72C12.6816 464.018 11.6802 464.657 11.0028 465.505Z" fill="#bccac7" fill-rule="nonzero" opacity="1" stroke="none"/>
<path d="M3.42258 463.557C3.9936 464.32 5.29053 464.939 6.17609 465.294C6.31102 465.349 7.05388 465.616 7.11553 465.554C6.20188 464.638 5.4837 464.069 4.26483 463.72C4.13509 463.683 3.4782 463.502 3.42258 463.557Z" fill="#bccac7" fill-rule="nonzero" opacity="1" stroke="none"/>
<path d="M9.44791 465.311C9.33693 465.422 9.40473 465.625 9.41552 465.781C9.42112 465.863 9.8611 465.773 9.88524 465.749C9.85284 465.717 9.85284 465.717 9.82045 465.684C9.4576 465.866 9.56071 465.424 9.44791 465.311Z" fill="#b2b3ad" fill-rule="nonzero" opacity="1" stroke="none"/>
<path d="M9.31834 456.787C9.27046 456.835 9.25287 456.949 9.30214 456.998C9.35213 456.948 9.35248 456.914 9.38313 456.852C9.35073 456.82 9.35073 456.82 9.31834 456.787Z" fill="#b2b3ad" fill-rule="nonzero" opacity="1" stroke="none"/>
</g>
</g>
</svg>
