<?xml version="1.0" encoding="UTF-8" standalone="no"?>
<!DOCTYPE svg PUBLIC "-//W3C//DTD SVG 1.1//EN" "http://www.w3.org/Graphics/SVG/1.1/DTD/svg11.dtd">
<!-- Created with Vectornator (http://vectornator.io/) -->
<svg height="100%" stroke-miterlimit="10" style="fill-rule:nonzero;clip-rule:evenodd;stroke-linecap:round;stroke-linejoin:round;" version="1.1" viewBox="0 0 16 16" width="100%" xml:space="preserve" xmlns="http://www.w3.org/2000/svg" xmlns:vectornator="http://vectornator.io" xmlns:xlink="http://www.w3.org/1999/xlink">
<defs/>
<clipPath id="ArtboardFrame">
<rect height="16" width="16" x="0" y="0"/>
</clipPath>
<g clip-path="url(#ArtboardFrame)" id="Layer-1" vectornator:layerName="Layer-1">
<g opacity="1">
<path d="M8.43249 11.3629C8.36421 11.2946 8.40437 11.1712 8.40365 11.0747C8.39949 10.4887 8.39861 9.90266 8.38926 9.31674C8.38564 9.0893 8.11895 9.01414 7.94255 9.01414C7.90226 9.01414 7.86762 9.0221 7.83782 9.03631C7.64322 9.12908 7.65559 9.48812 7.65437 9.63375C7.64965 10.2005 7.63995 10.7673 7.63995 11.3341C7.63995 11.3448 7.64956 11.3533 7.65437 11.3629C7.63995 11.3773 7.63995 11.3773 7.62557 11.3917C6.35038 10.1165 4.40555 9.56429 2.6687 9.35996C2.12206 9.29563 1.57877 9.30232 1.02602 9.30232C1.01528 9.30232 1.0068 9.31192 0.997205 9.31674C0.931872 9.2514 0.916022 9.02609 0.89634 8.92766C0.811841 8.50525 0.780919 8.08991 0.752245 7.65964C0.735644 7.41078 0.521116 7.11231 0.233504 7.22735C-0.0531292 7.34203 0.00295242 7.67575 0.00295242 7.93343C0.00295242 8.21216 0.0356041 8.4934 0.0749996 8.76916C0.283274 10.2271 0.905732 11.645 1.84736 12.775C4.47336 15.9262 9.05422 16.6161 12.4815 14.3312C14.3025 13.1173 15.4455 11.2841 15.8678 9.17265C15.9815 8.60393 15.9985 8.11541 15.9985 7.52861C15.9985 7.48728 15.9921 7.38849 15.9448 7.31003C15.8942 7.22605 15.8203 7.20814 15.7748 7.19907C15.3311 7.11062 15.2875 7.7819 15.2626 8.10633C15.2436 8.35334 15.206 8.5977 15.1617 8.84122C15.148 8.91678 15.1219 9.28437 15.032 9.30232C14.7588 9.35696 14.4749 9.2879 14.1963 9.2879C13.8064 9.2879 13.3937 9.33632 13.0003 9.38877C11.3096 9.6142 9.73823 10.2747 8.43249 11.3629Z" fill="#294043" fill-rule="nonzero" opacity="1" stroke="none"/>
<path d="M6.97496 8.89669C6.91944 8.78563 6.76685 8.70022 6.67236 8.62291C6.36151 8.36857 6.03637 8.13753 5.69252 7.93127C4.53434 7.23635 3.11874 6.73187 2.47921 5.45284C2.49363 5.43842 2.38338 5.3431 2.51792 5.38285C2.73242 5.59738 2.99025 5.86308 3.24115 6.03034C3.53131 6.22379 3.75778 6.42352 4.05977 6.59045C4.42107 6.79016 4.80368 6.97878 5.15998 7.19257C5.6568 7.49063 6.23262 7.60753 6.67236 8.0033C6.78461 7.92845 6.61516 7.60812 6.5715 7.49897C6.45799 7.21523 6.37454 6.79328 6.3294 6.70139C6.26335 6.56692 6.07318 6.29922 5.98096 6.05913C5.29355 4.26944 3.76942 3.71255 1.97489 3.57959C1.8216 3.56824 1.6673 3.57212 1.51378 3.57959C1.34239 3.58797 0.582958 3.64443 0.461892 3.79574C0.40699 3.86439 0.452872 4.35192 0.461892 4.48741C0.496933 5.0131 0.591346 5.52402 0.735672 6.02922C1.12164 7.38015 2.07592 8.69912 3.47346 9.09842C4.15021 9.29177 4.87684 9.23279 5.56285 9.12723C5.90304 9.07491 6.24432 9.02586 6.58592 8.98314C6.69901 8.969 6.88817 8.98349 6.97496 8.89669Z" fill="#bccac7" fill-rule="nonzero" opacity="1" stroke="none"/>
<path d="M9.33811 8.0033C9.48353 7.93061 9.62431 7.82597 9.76463 7.71797C9.90494 7.60998 10.0448 7.49863 10.1883 7.41252C10.7379 7.08272 11.3552 6.86143 11.9126 6.55515C12.47 6.24887 12.9675 5.85761 13.4881 5.46725L13.5097 5.48166L13.5313 5.49606C13.4708 5.55653 13.4211 5.6336 13.3735 5.71286C13.3631 5.73031 13.3527 5.74787 13.3423 5.76538C13.3057 5.82738 13.2692 5.88878 13.2287 5.94274C13.1207 6.08667 13.0031 6.22524 12.8758 6.35401C12.7485 6.48277 12.6115 6.60173 12.465 6.70644C12.2225 6.87964 11.9677 7.03043 11.7083 7.17059C11.4488 7.31075 11.1846 7.4403 10.9231 7.57103C10.5932 7.73598 10.2743 7.93921 9.97037 8.1635C9.66644 8.38778 9.37752 8.63312 9.10757 8.88228C9.14016 8.93118 9.23645 8.95242 9.33948 8.96343C9.44252 8.97443 9.5523 8.9752 9.6119 8.98314C9.84315 9.01398 10.0729 9.05152 10.3029 9.08779C10.5329 9.12407 10.7631 9.15908 10.9952 9.18487C12.1776 9.31625 13.1662 8.96958 13.9143 8.31491C14.6624 7.66025 15.17 6.69757 15.3901 5.59692C15.4441 5.32709 15.4808 5.06185 15.5074 4.79496C15.5339 4.52807 15.5501 4.25952 15.563 3.98305C15.5644 3.95286 15.5746 3.91959 15.5793 3.88709C15.584 3.85459 15.5833 3.82286 15.563 3.79574C15.5112 3.72664 15.2782 3.67821 15.0396 3.64606C14.801 3.61391 14.5567 3.59803 14.4823 3.59401C14.4271 3.59102 14.3718 3.58852 14.3166 3.58622C14.2614 3.58391 14.2061 3.5818 14.1509 3.57959C14.1461 3.57941 14.1413 3.57967 14.1364 3.57985C14.1316 3.58003 14.1268 3.58012 14.122 3.57959C13.5897 3.52045 12.9527 3.63145 12.3531 3.85303C11.7534 4.07462 11.1911 4.4068 10.8079 4.79C10.6222 4.97572 10.4164 5.24317 10.3184 5.50367C10.2204 5.76417 10.0671 5.98007 9.95325 6.2077C9.84215 6.42991 9.75162 6.60526 9.62982 6.82552C9.50801 7.04579 9.46697 7.35209 9.38803 7.58889C9.37213 7.63663 9.36616 7.70471 9.33694 7.78926C9.30771 7.8738 9.30616 7.97135 9.33811 8.0033Z" fill="#bccac7" fill-rule="nonzero" opacity="1" stroke="none"/>
<path d="M7.75307 7.15315C7.81078 7.09545 7.76815 7.04287 7.76749 6.96581C7.75817 5.89473 7.75307 4.82363 7.75307 3.75252C7.75307 3.49665 7.80777 2.91971 8.01244 2.71503C8.11581 2.81841 8.18735 3.13978 8.22873 3.42634C8.25677 3.62048 8.27096 3.79863 8.27182 3.88219C8.28064 4.73233 8.28623 5.58251 8.28623 6.43268C8.28623 6.70075 8.17589 6.86992 8.32946 7.02345C8.40205 6.95086 8.41296 6.80161 8.47355 6.72086C8.60906 6.54021 8.71052 6.32806 8.8482 6.14447C9.10532 5.80166 9.57574 5.38128 9.68396 4.94851C9.76515 4.62362 9.91709 4.32859 9.95772 3.98305C10.0545 3.16032 9.85748 2.43503 9.41017 1.76401C9.12853 1.34153 8.78659 0.955727 8.40149 0.625664C8.343 0.575519 8.09633 0.302085 8.01244 0.323065C7.92953 0.343786 7.83179 0.458946 7.76749 0.510388C7.43637 0.775265 7.13859 1.07314 6.87409 1.40377C6.10395 2.3665 5.8058 3.62504 6.28332 4.81881C6.49193 5.34034 6.91228 5.76569 7.23433 6.21653C7.38189 6.42311 7.51003 6.63819 7.6234 6.86495C7.67107 6.96031 7.67445 7.07453 7.75307 7.15315Z" fill="#bccac7" fill-rule="nonzero" opacity="1" stroke="none"/>
<path d="M8.01244 13.6951C8.33446 13.4374 8.5847 12.9787 8.87701 12.6864C9.69659 11.8668 10.805 11.3574 11.903 11.0437C12.5336 10.8635 13.2215 10.7181 13.8771 10.6979C14.1172 10.6905 14.3578 10.6973 14.5976 10.6835C14.6111 10.6827 14.6182 10.6655 14.6264 10.6547C14.6823 10.5801 14.8556 10.2129 14.8425 10.1215C14.8186 9.95404 14.6062 10.0106 14.4402 10.0063C13.9658 9.99416 13.3944 10.0796 12.9261 10.1647C11.023 10.5108 9.26505 11.2827 8.02686 12.8305C7.6767 12.5121 7.39027 12.1339 7.01818 11.8362C6.01963 11.0374 4.84153 10.5161 3.58874 10.2656C3.04692 10.1572 2.51469 10.0852 1.96047 10.0639C1.73182 10.0551 1.44404 10.0359 1.21118 10.0639C1.11942 10.0749 1.36943 10.5967 1.41292 10.6547C1.42107 10.6655 1.42816 10.6829 1.44173 10.6835C1.6673 10.6927 1.89327 10.6798 2.11898 10.6835C2.69418 10.6929 3.32189 10.7986 3.87692 10.9572C5.47478 11.4138 7.06231 12.2699 8.01244 13.6951Z" fill="#fefbf5" fill-rule="nonzero" opacity="1" stroke="none"/>
<path d="M1.85961 11.4328C1.78053 11.4313 2.1327 11.9261 2.19689 12.0176C2.24435 12.0853 2.42166 12.0894 2.50803 12.0956C2.67193 12.1073 2.83582 12.1262 2.99796 12.1532C3.60835 12.255 4.18505 12.4436 4.7559 12.672C5.47853 12.961 6.25936 13.5453 6.74442 14.1273C6.79296 14.1856 7.26051 14.8358 7.28118 14.8427C7.29813 14.8483 7.37239 14.9107 7.45953 14.9423C7.53306 14.969 7.62107 14.9664 7.63779 14.9631C7.72777 14.9451 7.69129 14.8232 7.69514 14.7315C7.70277 14.5479 7.57211 14.3829 7.47928 14.2282C7.22614 13.8063 6.89627 13.4313 6.52828 13.1043C5.254 11.9716 3.52713 11.4635 1.85961 11.4328Z" fill="#fefbf5" fill-rule="nonzero" opacity="1" stroke="none"/>
<path d="M8.79309 14.8757C8.92607 14.7427 9.06175 14.4478 9.19402 14.2714C9.52974 13.8238 9.81595 13.4612 10.3797 13.034C10.5005 12.9424 11.0026 12.6005 11.3346 12.5122C11.6927 12.4169 11.8207 12.3865 11.9201 12.3641C12.3236 12.2727 12.5101 12.2557 12.9188 12.2002C13.1938 12.1628 13.4868 12.1231 13.7618 12.0956C13.7725 12.0945 13.7823 12.0879 13.7906 12.0812C13.9099 11.9858 13.9703 11.9029 14.0492 11.7565C14.0907 11.6794 14.2315 11.4868 14.2439 11.4064C14.1951 11.3576 14.0515 11.3831 13.9596 11.3875C13.8144 11.3945 13.7214 11.4141 13.6329 11.4214C13.4381 11.4374 13.0047 11.5194 12.6811 11.5912C11.2858 11.9013 10.0979 12.4886 9.07874 13.5077C8.84692 13.7395 8.47258 14.1601 8.3871 14.502C8.37015 14.5697 8.31561 14.7419 8.32971 14.8312C8.34169 14.9072 8.38436 14.9421 8.50584 14.9676C8.59967 14.9873 8.6628 14.9471 8.79309 14.8757Z" fill="#fefbf5" fill-rule="nonzero" opacity="1" stroke="none"/>
<path d="M9.36694 8.0033C9.30086 7.93721 9.3843 7.71189 9.45838 7.49682C9.52464 7.30446 9.63313 7.04207 9.71512 6.84918C9.80849 6.62953 9.82044 6.56761 9.95295 6.30152C10.0801 6.04615 10.1554 5.96703 10.2821 5.74128C10.3784 5.56971 10.4457 5.48018 10.6034 5.1878C10.6911 5.02512 10.7778 4.90619 10.9088 4.70961C10.7492 4.70043 10.002 5.48836 9.92891 5.56812C9.40591 6.13862 8.88389 7.05016 8.83378 7.80157C8.8259 7.91957 8.7231 8.49552 8.77614 8.52204C8.80811 8.53802 8.83475 8.49496 8.8482 8.47882C9.00952 8.28525 9.20697 8.16327 9.36694 8.0033Z" fill="#294049" fill-rule="nonzero" opacity="1" stroke="none"/>
<path d="M5.1901 4.81219C5.50442 5.12651 5.86371 5.9092 5.97389 6.14235C6.08445 6.37632 6.20312 6.64827 6.29816 6.83764C6.30279 6.84685 6.45807 7.21882 6.50602 7.36833C6.57417 7.58082 6.58589 7.80391 6.68678 7.98891C6.79753 8.19195 7.07094 8.3058 7.20552 8.50762C7.32419 8.42853 7.21009 7.82674 7.17669 7.64306C7.02625 6.81572 6.55577 6.06475 5.96631 5.424C5.8904 5.34149 5.81503 5.25833 5.73574 5.17905C5.67585 5.11915 5.31169 4.80772 5.1901 4.81219Z" fill="#294049" fill-rule="nonzero" opacity="1" stroke="none"/>
<path d="M9.78482 14.6893C9.85651 14.7968 10.4416 14.5563 10.5773 14.502C11.4876 14.1379 12.282 13.6243 13.0125 12.9602C12.9331 12.8808 12.348 13.0636 12.2056 13.1043C11.2783 13.3692 10.3874 13.936 9.78482 14.6893Z" fill="#bccac7" fill-rule="nonzero" opacity="1" stroke="none"/>
<path d="M3.04118 12.9602C3.54918 13.6375 4.70298 14.1868 5.49079 14.502C5.61083 14.55 6.27169 14.7874 6.32655 14.7325C5.51375 13.9197 4.87481 13.4141 3.79047 13.1043C3.67506 13.0713 3.09066 12.9107 3.04118 12.9602Z" fill="#bccac7" fill-rule="nonzero" opacity="1" stroke="none"/>
<path d="M8.28623 6.95142C8.24364 6.99402 8.22797 7.09492 8.27182 7.13874C8.31629 7.09426 8.3166 7.06358 8.34388 7.00907C8.31504 6.98023 8.31504 6.98023 8.28623 6.95142Z" fill="#b2b3ad" fill-rule="nonzero" opacity="1" stroke="none"/>
<path d="M7.66961 9.66856C7.06395 9.042 6.48056 8.37254 5.70632 7.95513C4.92244 7.53252 3.85759 7.06491 3.19726 6.41338C2.8306 6.05161 2.67247 5.8392 2.39601 5.53439C2.2972 5.42546 2.15746 5.31122 2.17746 5.2343C2.18208 5.21655 2.31261 5.23533 2.44778 5.30434C2.58295 5.37334 2.72481 5.49416 2.72481 5.49416C2.81192 5.56251 3.27734 6.04245 3.95158 6.44864C4.13814 6.56104 4.37205 6.74126 5.2084 7.15988C5.67442 7.39314 6.14803 7.62025 6.43377 7.80353C6.74836 8.00531 7.05103 8.24939 7.34895 8.49582C7.55962 8.67008 7.76792 8.8455 7.97638 9.00797C7.92725 9.03506 7.85349 9.03523 7.82166 9.06084C7.64355 9.20416 7.70035 9.31932 7.66961 9.66856Z" fill="#294049" fill-rule="nonzero" opacity="1" stroke="none"/>
<path d="M13.5357 5.43292C13.7308 5.33694 13.5448 5.56392 13.4871 5.64211C13.4271 5.72353 13.3213 5.88475 13.2342 5.98456C13.1472 6.08436 13.0847 6.16824 12.983 6.26701C12.8683 6.37846 12.8366 6.41831 12.6787 6.53859C12.5476 6.6385 12.5415 6.65312 12.376 6.76948C12.1868 6.90253 12.1799 6.89865 12.0063 7.00385C11.8834 7.07834 11.8269 7.10685 11.7514 7.15115C11.576 7.25405 11.4154 7.31727 11.2172 7.41911C11.0738 7.49279 10.9194 7.5603 10.819 7.62153C10.7201 7.68194 10.4975 7.79977 10.3612 7.89331C9.65111 8.38052 8.97958 9.08862 8.3096 9.62965C8.30904 9.61103 8.38714 9.45681 8.38668 9.44069C8.38448 9.36326 8.38176 9.31155 8.36231 9.25459C8.32333 9.14047 8.29287 9.12293 8.27402 9.10593C8.2465 9.0811 8.19948 9.06245 8.1204 9.03481C8.76876 8.53691 9.39743 7.91537 10.0544 7.49357C10.0825 7.47554 10.148 7.43254 10.148 7.43254C10.148 7.43254 10.2961 7.3384 10.3722 7.29317C10.7555 7.06532 11.4195 6.8112 11.8056 6.59499C12.3612 6.28386 12.6576 6.02071 13.1168 5.72664C13.1168 5.72664 13.3591 5.55364 13.3857 5.53538C13.4124 5.51713 13.5357 5.43292 13.5357 5.43292Z" fill="#294049" fill-rule="nonzero" opacity="1" stroke="none"/>
<path d="M8.04075 2.38449C8.13055 2.40537 8.20922 2.65707 8.24231 2.93648C8.28913 3.33191 8.28617 4.10481 8.29317 4.75187C8.29654 5.06282 8.30027 5.37739 8.30423 5.69434L8.33119 7.26758L8.3571 9.23037C8.33309 9.16271 8.16372 9.11667 8.03099 9.11452C7.89827 9.11237 7.73214 9.15818 7.6903 9.22668C7.68844 8.25206 7.71842 7.20982 7.71808 6.23519C7.71783 5.54109 7.71109 4.84691 7.72191 4.15289C7.7253 3.9359 7.73725 3.58815 7.76291 3.26339C7.77509 3.10913 7.79768 2.90203 7.8298 2.77626C7.86897 2.6229 7.91117 2.39059 8.04075 2.38449Z" fill="#294049" fill-rule="nonzero" opacity="1" stroke="none"/>
<path d="M7.50518 8.94585C7.50518 8.94585 5.96039 9.11672 5.16089 9.18903C4.48787 9.2499 4.12025 9.28467 3.33076 9.06145C2.54128 8.83822 2.04128 8.23186 2.04128 8.23186C2.04128 8.23186 1.62731 7.85627 1.33035 7.35557C1.03339 6.85487 0.892299 6.54081 0.732084 6.04399C0.635777 5.74534 0.55588 5.33145 0.516376 5.08327C0.435582 4.5757 0.443603 4.5613 0.433371 4.23124C0.423139 3.90118 0.464594 3.66414 0.518725 3.90961C0.608047 4.31467 0.664688 4.67399 0.804596 5.12655C1.00045 5.76009 1.06704 5.98016 1.31197 6.54603C1.41356 6.78074 1.7224 7.35917 2.49316 7.95932C2.85125 8.23815 2.98689 8.39541 3.66085 8.60356C4.33481 8.81171 4.42876 8.7714 5.1102 8.84516C5.54941 8.89271 5.94864 8.87669 6.22633 8.89424C6.66245 8.9218 7.50518 8.94585 7.50518 8.94585Z" fill="#294043" fill-rule="nonzero" opacity="1" stroke="none"/>
<path d="M11.083 12.991" fill="#bccac7" fill-rule="nonzero" opacity="1" stroke="none"/>
<path d="M4.08191 8.71398" fill="#bccac7" fill-rule="nonzero" opacity="1" stroke="none"/>
<path d="M2.72999 8.05375" fill="#bccac7" fill-rule="nonzero" opacity="1" stroke="none"/>
<path d="M8.87707 8.83097C9.37067 9.03372 9.82422 9.1678 10.9999 9.24162C12.0288 9.30624 12.8544 9.13935 13.7918 8.49914C14.4247 8.06682 14.7365 7.41936 14.7365 7.41936C14.7365 7.41936 15.0322 7.00966 15.1799 6.53549C15.5617 5.30965 15.5233 5.27663 15.5741 4.56321C15.6272 3.81721 15.6033 3.90204 15.5737 3.8264C15.5442 3.75075 15.4539 4.12995 15.348 4.61131C15.2013 5.2781 15.1236 5.60922 15.0059 5.98472C14.886 6.36735 14.8007 6.60272 14.4163 7.18647C14.2162 7.4904 13.9833 7.78864 13.3714 8.20074C13.0158 8.44023 12.735 8.60088 12.2288 8.71712C11.5417 8.8749 11.1528 8.93338 10.3433 8.92414" fill="#294043" fill-rule="nonzero" opacity="1" stroke="none"/>
<path d="M8.29897 7.06377C8.3537 6.97348 8.71057 6.37769 8.77114 6.31031C9.20445 5.82829 9.32659 5.80993 9.59649 5.25962C9.68153 5.08624 9.77659 4.85199 9.7768 4.64517C9.77689 4.55476 9.65862 4.79888 9.46572 5.1227C9.3103 5.38361 8.97184 5.62459 8.57423 6.29263C8.43036 6.53437 8.34249 6.7636 8.32747 6.79604C8.23912 6.98693 8.17834 7.26276 8.29897 7.06377Z" fill="#294043" fill-rule="nonzero" opacity="1" stroke="none"/>
<path d="M7.73767 7.10588C7.69885 7.11933 7.608 6.81448 7.4148 6.50871C7.22161 6.20295 7.25422 6.23064 6.88149 5.77755C6.5977 5.43259 6.30941 4.94076 6.21502 4.66145C6.14129 4.44327 6.37261 4.77924 6.57084 5.00427C6.672 5.11911 7.04998 5.55916 7.18346 5.75817C7.47113 6.18707 7.48393 6.24707 7.57007 6.45488C7.7384 6.86101 7.77648 7.09242 7.73767 7.10588Z" fill="#294043" fill-rule="nonzero" opacity="1" stroke="none"/>
<path d="M8.71246 7.33251" fill="#294043" fill-rule="nonzero" opacity="1" stroke="none"/>
</g>
</g>
</svg>
