<?xml version="1.0" encoding="UTF-8" standalone="no"?>
<!DOCTYPE svg PUBLIC "-//W3C//DTD SVG 1.1//EN" "http://www.w3.org/Graphics/SVG/1.1/DTD/svg11.dtd">
<!-- Created with Vectornator (http://vectornator.io/) -->
<svg height="100%" stroke-miterlimit="10" style="fill-rule:nonzero;clip-rule:evenodd;stroke-linecap:round;stroke-linejoin:round;" version="1.1" viewBox="0 0 256 256" width="100%" xml:space="preserve" xmlns="http://www.w3.org/2000/svg" xmlns:vectornator="http://vectornator.io" xmlns:xlink="http://www.w3.org/1999/xlink">
<defs/>
<clipPath id="ArtboardFrame">
<rect height="256" width="256" x="0" y="0"/>
</clipPath>
<g clip-path="url(#ArtboardFrame)" id="Layer-1" vectornator:layerName="Layer-1">
<path d="M0 128C0 57.3076 57.3076 5.68434e-14 128 5.68434e-14C198.692 5.68434e-14 256 57.3076 256 128C256 198.692 198.692 256 128 256C57.3076 256 0 198.692 0 128Z" fill="#3c8374" fill-rule="nonzero" opacity="1" stroke="none"/>
<g opacity="1">
<path d="M134.244 180.714C133.262 179.732 133.84 177.956 133.829 176.568C133.769 168.136 133.757 159.704 133.622 151.274C133.57 148.001 129.733 146.92 127.195 146.92C126.615 146.92 126.117 147.034 125.688 147.239C122.888 148.574 123.066 153.739 123.048 155.835C122.98 163.99 122.841 172.145 122.841 180.3C122.841 180.454 122.979 180.576 123.048 180.714C122.841 180.921 122.841 180.921 122.634 181.128C104.286 162.781 76.303 154.835 51.3128 151.895C43.4476 150.97 35.6305 151.066 27.6774 151.066C27.5227 151.066 27.4008 151.204 27.2627 151.274C26.3227 150.333 26.0946 147.092 25.8114 145.675C24.5957 139.597 24.1507 133.621 23.7382 127.43C23.4993 123.85 20.4126 119.555 16.2743 121.211C12.1501 122.861 12.9571 127.662 12.9571 131.37C12.9571 135.38 13.4269 139.427 13.9937 143.395C16.9904 164.371 25.9466 184.774 39.4951 201.032C77.2787 246.372 143.19 256.299 192.503 223.424C218.704 205.957 235.15 179.581 241.226 149.2C242.862 141.017 243.107 133.988 243.107 125.545C243.107 124.951 243.014 123.529 242.334 122.4C241.606 121.192 240.543 120.934 239.888 120.804C233.504 119.531 232.877 129.19 232.518 133.857C232.245 137.412 231.703 140.928 231.066 144.431C230.869 145.519 230.493 150.808 229.201 151.066C225.269 151.852 221.184 150.859 217.176 150.859C211.566 150.859 205.628 151.555 199.967 152.31C175.641 155.554 153.032 165.057 134.244 180.714Z" fill="#294043" fill-rule="nonzero" opacity="1" stroke="none"/>
<path d="M113.273 145.23C112.474 143.632 110.278 142.403 108.919 141.29C104.447 137.631 99.7681 134.307 94.8207 131.339C78.1564 121.34 57.7881 114.081 48.5864 95.6781C48.7938 95.4709 47.2075 94.0995 49.1434 94.6714C52.2296 97.7581 55.9393 101.581 59.5492 103.988C63.7245 106.771 66.983 109.645 71.3278 112.047C76.5265 114.92 82.0318 117.634 87.1581 120.71C94.3068 124.999 102.592 126.681 108.919 132.375C110.534 131.298 108.096 126.689 107.468 125.119C105.835 121.036 104.634 114.965 103.984 113.643C103.034 111.708 100.298 107.856 98.9709 104.402C89.0803 78.651 67.1503 70.6385 41.3299 68.7253C39.1244 68.5621 36.9043 68.6178 34.6954 68.7253C32.2294 68.8458 21.3024 69.6583 19.5604 71.8354C18.7705 72.8233 19.4307 79.838 19.5604 81.7872C20.0646 89.3509 21.4231 96.7024 23.4997 103.972C29.0532 123.409 42.7837 142.387 62.8918 148.132C72.6291 150.914 83.0844 150.065 92.9548 148.547C97.8495 147.794 102.76 147.088 107.675 146.474C109.303 146.27 112.024 146.479 113.273 145.23Z" fill="#bccac7" fill-rule="nonzero" opacity="1" stroke="none"/>
<path d="M147.275 132.375C149.367 131.33 151.393 129.824 153.412 128.27C155.43 126.716 157.443 125.114 159.507 123.875C167.416 119.13 176.297 115.946 184.317 111.539C192.337 107.132 199.496 101.502 206.985 95.8859L207.297 96.0932L207.607 96.3C206.737 97.1705 206.022 98.2793 205.338 99.4195C205.187 99.6704 205.038 99.9231 204.889 100.175C204.361 101.067 203.836 101.951 203.254 102.727C201.7 104.798 200.008 106.792 198.176 108.645C196.344 110.497 194.374 112.209 192.265 113.716C188.776 116.208 185.111 118.377 181.377 120.394C177.644 122.411 173.843 124.274 170.081 126.156C165.334 128.529 160.745 131.453 156.372 134.68C151.999 137.907 147.842 141.437 143.958 145.022C144.427 145.726 145.812 146.032 147.294 146.19C148.777 146.348 150.356 146.359 151.214 146.474C154.542 146.917 157.848 147.458 161.157 147.98C164.466 148.501 167.778 149.005 171.118 149.376C188.13 151.266 202.355 146.279 213.119 136.859C223.883 127.439 231.186 113.588 234.353 97.7514C235.129 93.8688 235.659 90.0528 236.04 86.2125C236.422 82.3726 236.655 78.5084 236.841 74.5305C236.861 74.0962 237.007 73.6173 237.075 73.1497C237.143 72.6821 237.133 72.2257 236.841 71.8354C236.095 70.8413 232.743 70.1443 229.31 69.6817C225.876 69.219 222.362 68.9906 221.291 68.933C220.497 68.8899 219.702 68.8539 218.907 68.8206C218.112 68.7873 217.317 68.7572 216.523 68.7253C216.453 68.7226 216.384 68.7266 216.315 68.7289C216.246 68.7316 216.176 68.7329 216.108 68.7253C208.448 67.8746 199.283 69.4717 190.655 72.6596C182.027 75.8479 173.936 80.6276 168.423 86.1414C165.75 88.8131 162.79 92.6616 161.38 96.4097C159.969 100.158 157.763 103.264 156.126 106.539C154.527 109.737 153.225 112.26 151.472 115.429C149.719 118.598 149.129 123.006 147.993 126.412C147.764 127.099 147.678 128.079 147.258 129.295C146.837 130.512 146.815 131.915 147.275 132.375Z" fill="#bccac7" fill-rule="nonzero" opacity="1" stroke="none"/>
<path d="M124.469 120.143C125.299 119.313 124.685 118.556 124.676 117.448C124.542 102.036 124.469 86.6248 124.469 71.2136C124.469 67.532 125.256 59.2307 128.201 56.2858C129.688 57.7731 130.717 62.3972 131.313 66.5203C131.716 69.3134 131.92 71.8768 131.933 73.0791C132.059 85.3114 132.14 97.5441 132.14 109.776C132.14 113.634 130.552 116.068 132.762 118.277C133.806 117.232 133.963 115.085 134.835 113.923C136.785 111.324 138.245 108.271 140.226 105.63C143.925 100.697 150.694 94.6485 152.251 88.422C153.419 83.7471 155.605 79.5021 156.19 74.5305C157.582 62.6926 154.747 52.257 148.311 42.6021C144.259 36.5233 139.339 30.9723 133.798 26.2232C132.957 25.5017 129.407 21.5674 128.201 21.8693C127.008 22.1674 125.601 23.8244 124.676 24.5645C119.912 28.3757 115.627 32.6616 111.821 37.4189C100.741 51.2709 96.4507 69.3791 103.321 86.5555C106.323 94.0595 112.371 100.18 117.005 106.667C119.128 109.639 120.971 112.734 122.603 115.996C123.289 117.368 123.337 119.012 124.469 120.143Z" fill="#bccac7" fill-rule="nonzero" opacity="1" stroke="none"/>
<path d="M128.201 214.27C132.834 210.564 136.434 203.963 140.64 199.757C152.433 187.965 168.38 180.636 184.179 176.122C193.253 173.529 203.15 171.436 212.583 171.146C216.037 171.039 219.499 171.137 222.95 170.938C223.145 170.927 223.247 170.68 223.364 170.524C224.169 169.451 226.662 164.167 226.474 162.853C226.13 160.443 223.073 161.257 220.686 161.196C213.859 161.02 205.637 162.25 198.899 163.474C171.517 168.454 146.223 179.561 128.408 201.83C123.37 197.25 119.248 191.808 113.895 187.525C99.5271 176.031 82.5763 168.531 64.5505 164.926C56.7548 163.367 49.0968 162.33 41.1226 162.023C37.8327 161.897 33.6919 161.621 30.3415 162.023C29.0212 162.182 32.6184 169.69 33.2441 170.524C33.3614 170.68 33.4635 170.931 33.6587 170.938C36.9043 171.07 40.1556 170.885 43.4032 170.938C51.6793 171.074 60.7111 172.596 68.697 174.878C91.6877 181.446 114.53 193.764 128.201 214.27Z" fill="#fefbf5" fill-rule="nonzero" opacity="1" stroke="none"/>
<path d="M39.6713 181.72C38.5335 181.698 43.6006 188.818 44.5243 190.135C45.2071 191.109 47.7584 191.168 49.0011 191.257C51.3592 191.425 53.7173 191.697 56.0503 192.086C64.8329 193.549 73.1304 196.264 81.3443 199.549C91.7417 203.709 102.977 212.115 109.956 220.49C110.654 221.328 117.382 230.684 117.679 230.783C117.922 230.864 118.991 231.762 120.245 232.216C121.303 232.6 122.569 232.563 122.81 232.515C124.104 232.256 123.58 230.502 123.635 229.183C123.745 226.541 121.865 224.167 120.529 221.941C116.887 215.871 112.141 210.476 106.846 205.77C88.511 189.472 63.6643 182.162 39.6713 181.72Z" fill="#fefbf5" fill-rule="nonzero" opacity="1" stroke="none"/>
<path d="M139.432 231.258C141.346 229.344 143.298 225.101 145.201 222.563C150.032 216.123 154.15 210.906 162.262 204.758C164 203.441 171.223 198.522 176.001 197.251C181.154 195.88 182.995 195.443 184.425 195.12C190.23 193.805 192.915 193.561 198.795 192.761C202.752 192.223 206.967 191.652 210.925 191.257C211.078 191.241 211.219 191.146 211.339 191.049C213.055 189.677 213.924 188.484 215.06 186.377C215.657 185.269 217.682 182.497 217.861 181.341C217.158 180.638 215.093 181.006 213.77 181.069C211.681 181.169 210.343 181.451 209.07 181.555C206.266 181.787 200.031 182.966 195.375 184C175.298 188.461 158.207 196.91 143.543 211.575C140.207 214.91 134.821 220.962 133.591 225.88C133.347 226.855 132.563 229.333 132.765 230.618C132.938 231.711 133.552 232.213 135.3 232.58C136.65 232.864 137.558 232.285 139.432 231.258Z" fill="#fefbf5" fill-rule="nonzero" opacity="1" stroke="none"/>
<path d="M147.69 132.375C146.739 131.424 147.939 128.182 149.005 125.088C149.958 122.32 151.52 118.545 152.699 115.77C154.043 112.609 154.215 111.718 156.121 107.889C157.951 104.215 159.034 103.077 160.857 99.8287C162.242 97.3598 163.21 96.0716 165.48 91.8648C166.742 89.524 167.989 87.8131 169.875 84.9845C167.577 84.8523 156.827 96.1894 155.775 97.3368C148.25 105.546 140.739 118.661 140.018 129.473C139.905 131.17 138.426 139.458 139.189 139.839C139.649 140.069 140.032 139.45 140.226 139.217C142.547 136.432 145.388 134.677 147.69 132.375Z" fill="#294049" fill-rule="nonzero" opacity="1" stroke="none"/>
<path d="M87.5915 86.4607C92.114 90.9831 97.2838 102.245 98.8688 105.599C100.46 108.966 102.167 112.878 103.535 115.603C103.601 115.736 105.835 121.088 106.526 123.239C107.506 126.296 107.675 129.506 109.126 132.168C110.72 135.09 114.654 136.728 116.59 139.632C118.297 138.494 116.656 129.835 116.175 127.192C114.011 115.288 107.241 104.483 98.76 95.2631C97.6678 94.0761 96.5833 92.8796 95.4426 91.7389C94.5806 90.877 89.3411 86.3964 87.5915 86.4607Z" fill="#294049" fill-rule="nonzero" opacity="1" stroke="none"/>
<path d="M153.702 228.575C154.734 230.123 163.152 226.662 165.105 225.88C178.203 220.642 189.632 213.252 200.143 203.696C199.001 202.554 190.583 205.184 188.533 205.77C175.19 209.582 162.372 217.738 153.702 228.575Z" fill="#bccac7" fill-rule="nonzero" opacity="1" stroke="none"/>
<path d="M56.6722 203.696C63.9813 213.442 80.5826 221.346 91.9179 225.88C93.645 226.571 103.154 229.987 103.943 229.198C92.2484 217.503 83.0552 210.227 67.4533 205.77C65.7928 205.295 57.3842 202.985 56.6722 203.696Z" fill="#bccac7" fill-rule="nonzero" opacity="1" stroke="none"/>
<path d="M132.14 117.24C131.527 117.853 131.301 119.305 131.933 119.935C132.572 119.296 132.577 118.854 132.969 118.07C132.554 117.655 132.554 117.655 132.14 117.24Z" fill="#b2b3ad" fill-rule="nonzero" opacity="1" stroke="none"/>
<path d="M123.268 156.336C114.553 147.32 106.159 137.688 95.019 131.682C83.7404 125.602 68.4192 118.873 58.9179 109.499C53.6423 104.294 51.367 101.237 47.3892 96.8517C45.9676 95.2843 43.9569 93.6409 44.2447 92.5338C44.3111 92.2785 46.1893 92.5487 48.1342 93.5415C50.079 94.5343 52.1202 96.273 52.1202 96.273C53.3734 97.2564 60.0704 104.162 69.7712 110.006C72.4555 111.624 75.821 114.217 87.855 120.24C94.5604 123.596 101.375 126.864 105.486 129.501C110.013 132.404 114.367 135.916 118.654 139.462C121.685 141.969 124.682 144.493 127.682 146.831C126.975 147.221 125.913 147.223 125.456 147.591C122.893 149.654 123.71 151.311 123.268 156.336Z" fill="#294049" fill-rule="nonzero" opacity="1" stroke="none"/>
<path d="M207.671 95.3917C210.479 94.0109 207.802 97.2766 206.972 98.4016C206.109 99.5729 204.586 101.893 203.334 103.329C202.081 104.765 201.182 105.972 199.719 107.393C198.068 108.996 197.613 109.57 195.341 111.3C193.454 112.738 193.366 112.948 190.985 114.623C188.262 116.537 188.163 116.481 185.666 117.995C183.897 119.067 183.085 119.477 181.998 120.114C179.475 121.595 177.164 122.505 174.312 123.97C172.249 125.03 170.026 126.001 168.583 126.882C167.159 127.751 163.957 129.447 161.995 130.793C151.778 137.803 142.116 147.991 132.476 155.776C132.468 155.508 133.592 153.289 133.585 153.057C133.554 151.943 133.514 151.199 133.234 150.379C132.674 148.737 132.235 148.485 131.964 148.24C131.568 147.883 130.892 147.615 129.754 147.217C139.083 140.053 148.128 131.11 157.581 125.041C157.985 124.782 158.928 124.163 158.928 124.163C158.928 124.163 161.059 122.809 162.153 122.158C167.669 118.879 177.222 115.223 182.778 112.112C190.772 107.635 195.037 103.849 201.643 99.6178C201.643 99.6178 205.13 97.1287 205.513 96.8661C205.896 96.6035 207.671 95.3917 207.671 95.3917Z" fill="#294049" fill-rule="nonzero" opacity="1" stroke="none"/>
<path d="M128.608 51.5298C129.9 51.8303 131.032 55.4518 131.508 59.472C132.182 65.1615 132.139 76.2823 132.24 85.5924C132.288 90.0667 132.342 94.5927 132.399 99.1529L132.787 121.79L133.16 150.031C132.814 149.057 130.377 148.395 128.467 148.364C126.558 148.333 124.167 148.992 123.565 149.978C123.539 135.955 123.97 120.958 123.965 106.935C123.962 96.9484 123.864 86.9602 124.02 76.9743C124.069 73.852 124.241 68.8485 124.61 64.1759C124.785 61.9562 125.11 58.9763 125.573 57.1667C126.136 54.9601 126.743 51.6175 128.608 51.5298Z" fill="#294049" fill-rule="nonzero" opacity="1" stroke="none"/>
<path d="M120.902 145.937C120.902 145.937 98.675 148.395 87.1711 149.436C77.4878 150.312 72.1983 150.812 60.8388 147.6C49.4794 144.388 42.2853 135.664 42.2853 135.664C42.2853 135.664 36.3288 130.26 32.0561 123.055C27.7833 115.851 25.7533 111.333 23.4481 104.184C22.0624 99.8867 20.9128 93.9318 20.3444 90.3608C19.1819 83.0578 19.2973 82.8505 19.15 78.1015C19.0028 73.3525 19.5993 69.942 20.3782 73.4739C21.6634 79.302 22.4783 84.4719 24.4914 90.9835C27.3095 100.099 28.2675 103.266 31.7917 111.408C33.2534 114.785 37.6971 123.107 48.787 131.742C53.9394 135.754 55.8911 138.017 65.5883 141.012C75.2855 144.007 76.6371 143.427 86.4418 144.488C92.7614 145.172 98.5059 144.942 102.501 145.194C108.776 145.591 120.902 145.937 120.902 145.937Z" fill="#294043" fill-rule="nonzero" opacity="1" stroke="none"/>
<path d="" fill="#bccac7" fill-rule="nonzero" opacity="1" stroke="none"/>
<path d="" fill="#bccac7" fill-rule="nonzero" opacity="1" stroke="none"/>
<path d="" fill="#bccac7" fill-rule="nonzero" opacity="1" stroke="none"/>
<path d="M140.641 144.284C147.743 147.201 154.269 149.131 171.184 150.193C185.989 151.122 197.869 148.721 211.355 139.509C220.462 133.289 224.949 123.973 224.949 123.973C224.949 123.973 229.203 118.078 231.328 111.256C236.822 93.6179 236.27 93.1431 237.001 82.878C237.765 72.1443 237.42 73.3651 236.995 72.2765C236.57 71.1879 235.271 76.6442 233.747 83.57C231.637 93.1642 230.518 97.9281 228.825 103.331C227.099 108.837 225.872 112.223 220.341 120.622C217.462 124.996 214.112 129.286 205.307 135.216C200.19 138.662 196.15 140.973 188.866 142.646C178.98 144.916 173.384 145.757 161.738 145.625" fill="#294043" fill-rule="nonzero" opacity="1" stroke="none"/>
<path d="M132.323 118.857C133.111 117.558 138.245 108.985 139.117 108.016C145.351 101.08 147.109 100.816 150.993 92.8981C152.216 90.4035 153.584 87.033 153.587 84.0574C153.588 82.7566 151.886 86.2687 149.111 90.9282C146.874 94.6822 142.005 98.1493 136.284 107.762C134.214 111.24 132.949 114.538 132.733 115.005C131.462 117.751 130.587 121.72 132.323 118.857Z" fill="#294043" fill-rule="nonzero" opacity="1" stroke="none"/>
<path d="M124.247 119.463C123.689 119.656 122.381 115.27 119.601 110.87C116.822 106.471 117.291 106.87 111.928 100.35C107.845 95.3868 103.697 88.3104 102.339 84.2916C101.277 81.1523 104.606 85.9863 107.458 89.2241C108.914 90.8765 114.352 97.2082 116.273 100.072C120.412 106.243 120.596 107.106 121.836 110.096C124.257 115.94 124.805 119.269 124.247 119.463Z" fill="#294043" fill-rule="nonzero" opacity="1" stroke="none"/>
<path d="" fill="#294043" fill-rule="nonzero" opacity="1" stroke="none"/>
</g>
<path d="M130.676 175.222C130.676 174.475 130.676 173.869 130.676 173.869C130.676 173.869 130.676 174.475 130.676 175.222C130.676 175.969 130.676 176.575 130.676 176.575C130.676 176.575 130.676 175.969 130.676 175.222Z" fill="#294043" fill-rule="nonzero" opacity="1" stroke="none"/>
</g>
</svg>
