<?xml version="1.0" encoding="UTF-8" standalone="no"?>
<!DOCTYPE svg PUBLIC "-//W3C//DTD SVG 1.1//EN" "http://www.w3.org/Graphics/SVG/1.1/DTD/svg11.dtd">
<!-- Created with Vectornator (http://vectornator.io/) -->
<svg height="100%" stroke-miterlimit="10" style="fill-rule:nonzero;clip-rule:evenodd;stroke-linecap:round;stroke-linejoin:round;" version="1.1" viewBox="0 0 64 64" width="100%" xml:space="preserve" xmlns="http://www.w3.org/2000/svg" xmlns:vectornator="http://vectornator.io" xmlns:xlink="http://www.w3.org/1999/xlink">
<defs/>
<clipPath id="ArtboardFrame">
<rect height="64" width="64" x="0" y="0"/>
</clipPath>
<g clip-path="url(#ArtboardFrame)" id="Layer-1" vectornator:layerName="Layer-1">
<g opacity="1">
<path d="M33.7344 45.4515C33.4613 45.1784 33.6219 44.6849 33.6191 44.2988C33.6024 41.9548 33.5989 39.6106 33.5615 37.2669C33.547 36.3572 32.4802 36.0566 31.7746 36.0566C31.6135 36.0566 31.4749 36.0884 31.3557 36.1452C30.5773 36.5163 30.6268 37.9525 30.6219 38.535C30.603 40.8021 30.5643 43.0691 30.5643 45.3363C30.5643 45.3792 30.6027 45.4131 30.6219 45.4515C30.5643 45.5092 30.5643 45.5092 30.5067 45.5667C25.406 40.4661 17.6267 38.2571 10.6793 37.4398C8.49271 37.1825 6.31954 37.2093 4.10854 37.2093C4.06556 37.2093 4.03166 37.2477 3.99327 37.2669C3.73194 37.0056 3.66854 36.1044 3.58981 35.7107C3.25182 34.021 3.12813 32.3596 3.01343 30.6386C2.94703 29.6431 2.08891 28.4493 0.938467 28.9094C-0.208065 29.3681 0.0162613 30.703 0.0162613 31.7337C0.0162613 32.8487 0.146868 33.9736 0.30445 35.0766C1.13755 40.9082 3.62738 46.5802 7.39391 51.1001C17.8979 63.7046 36.2213 66.4644 49.9306 57.3248C57.2145 52.4691 61.7863 45.1365 63.4755 36.6906C63.9305 34.4157 63.9985 32.4616 63.9985 30.1144C63.9985 29.9491 63.9727 29.5539 63.7836 29.2401C63.5812 28.9042 63.2856 28.8326 63.1037 28.7963C61.3287 28.4425 61.1545 31.1276 61.0547 32.4253C60.9788 33.4134 60.8283 34.3908 60.6512 35.3649C60.5963 35.6671 60.4919 37.1375 60.1326 37.2093C59.0397 37.4278 57.904 37.1516 56.7895 37.1516C55.23 37.1516 53.5791 37.3453 52.0056 37.5551C45.2428 38.4568 38.9574 41.0989 33.7344 45.4515Z" fill="#294043" fill-rule="nonzero" opacity="1" stroke="none"/>
<path d="M27.9043 35.5868C27.6822 35.1425 27.0718 34.8009 26.6939 34.4916C25.4505 33.4743 24.1499 32.5501 22.7745 31.7251C18.1418 28.9454 12.4794 26.9275 9.92131 21.8113C9.97895 21.7537 9.53799 21.3724 10.0761 21.5314C10.9341 22.3895 11.9654 23.4523 12.9691 24.1214C14.1297 24.8951 15.0356 25.6941 16.2435 26.3618C17.6887 27.1606 19.2192 27.9151 20.6444 28.7703C22.6316 29.9625 24.9349 30.4301 26.6939 32.0132C27.1429 31.7138 26.4651 30.4325 26.2904 29.9959C25.8364 28.8609 25.5026 27.1731 25.322 26.8056C25.0578 26.2677 24.2972 25.1969 23.9283 24.2365C21.1786 17.0777 15.0821 14.8502 7.90399 14.3184C7.29083 14.273 6.67365 14.2885 6.05957 14.3184C5.37403 14.3519 2.33628 14.5777 1.85202 15.183C1.63241 15.4576 1.81594 17.4077 1.85202 17.9496C1.99219 20.0524 2.36984 22.0961 2.94714 24.1169C4.49102 29.5206 8.30814 34.7965 13.8983 36.3937C16.6053 37.1671 19.5118 36.9311 22.2558 36.5089C23.6166 36.2996 24.9817 36.1035 26.3481 35.9326C26.8005 35.876 27.5571 35.9339 27.9043 35.5868Z" fill="#bccac7" fill-rule="nonzero" opacity="1" stroke="none"/>
<path d="M37.3569 32.0132C37.9386 31.7224 38.5017 31.3039 39.063 30.8719C39.6242 30.4399 40.1835 29.9945 40.7576 29.6501C42.9562 28.3309 45.4252 27.4457 47.6548 26.2206C49.8844 24.9955 51.8746 23.4304 53.9567 21.869L54.0431 21.9266L54.1296 21.9842C53.8876 22.2261 53.6888 22.5344 53.4986 22.8514C53.4567 22.9212 53.4153 22.9915 53.3738 23.0615C53.2272 23.3095 53.0811 23.5551 52.9192 23.771C52.4874 24.3467 52.0168 24.901 51.5076 25.416C50.9985 25.9311 50.4506 26.4069 49.8643 26.8258C48.8943 27.5186 47.8754 28.1217 46.8375 28.6824C45.7996 29.243 44.7428 29.7612 43.697 30.2841C42.3773 30.9439 41.1016 31.7568 39.8859 32.654C38.6702 33.5511 37.5145 34.5325 36.4347 35.5291C36.5651 35.7247 36.9502 35.8097 37.3624 35.8537C37.7745 35.8977 38.2137 35.9008 38.452 35.9326C39.3771 36.0559 40.2962 36.2061 41.2161 36.3512C42.1361 36.4963 43.0569 36.6363 43.9853 36.7395C48.7147 37.265 52.6694 35.8783 55.6618 33.2597C58.6542 30.641 60.6843 26.7903 61.5649 22.3877C61.7807 21.3084 61.9278 20.2474 62.0339 19.1798C62.14 18.1123 62.205 17.0381 62.2564 15.9322C62.2621 15.8114 62.3027 15.6783 62.3217 15.5483C62.3406 15.4183 62.3378 15.2914 62.2564 15.183C62.0491 14.9065 61.1173 14.7129 60.1628 14.5842C59.2083 14.4556 58.2313 14.3921 57.9336 14.376C57.7128 14.3641 57.4919 14.3541 57.2709 14.3449C57.0499 14.3356 56.8289 14.3272 56.608 14.3184C56.5888 14.3176 56.5695 14.3187 56.5502 14.3194C56.531 14.3201 56.5117 14.3205 56.4926 14.3184C54.3631 14.0818 51.8154 14.5258 49.4168 15.4121C47.0182 16.2985 44.7688 17.6272 43.236 19.16C42.4931 19.9029 41.6702 20.9727 41.278 22.0147C40.8859 23.0567 40.2727 23.9203 39.8174 24.8308C39.3731 25.7197 39.0109 26.421 38.5237 27.3021C38.0365 28.1831 37.8723 29.4083 37.5566 30.3556C37.493 30.5465 37.4691 30.8188 37.3522 31.157C37.2353 31.4952 37.2291 31.8854 37.3569 32.0132Z" fill="#bccac7" fill-rule="nonzero" opacity="1" stroke="none"/>
<path d="M31.0167 28.6126C31.2476 28.3818 31.077 28.1715 31.0744 27.8632C31.0371 23.5789 31.0167 19.2945 31.0167 15.0101C31.0167 13.9866 31.2356 11.6788 32.0542 10.8601C32.4677 11.2736 32.7539 12.5591 32.9194 13.7054C33.0315 14.4819 33.0883 15.1945 33.0917 15.5288C33.127 18.9293 33.1494 22.33 33.1494 25.7307C33.1494 26.803 32.708 27.4797 33.3223 28.0938C33.6127 27.8034 33.6563 27.2064 33.8986 26.8834C34.4407 26.1608 34.8466 25.3122 35.3973 24.5779C36.4257 23.2066 38.3074 21.5251 38.7403 19.794C39.0651 18.4945 39.6728 17.3144 39.8353 15.9322C40.2225 12.6413 39.4344 9.74012 37.6451 7.05604C36.5186 5.3661 35.1508 3.82291 33.6104 2.50266C33.3765 2.30208 32.3898 1.20834 32.0542 1.29226C31.7226 1.37514 31.3316 1.83579 31.0744 2.04155C29.7499 3.10106 28.5588 4.29255 27.5008 5.6151C24.4203 9.46599 23.2277 14.5001 25.1377 19.2752C25.9722 21.3613 27.6536 23.0628 28.9418 24.8661C29.532 25.6924 30.0446 26.5528 30.4981 27.4598C30.6887 27.8412 30.7022 28.2981 31.0167 28.6126Z" fill="#bccac7" fill-rule="nonzero" opacity="1" stroke="none"/>
<path d="M32.0542 54.7802C33.3423 53.7497 34.3433 51.9147 35.5125 50.7455C38.7908 47.4671 43.2243 45.4297 47.6164 44.1748C50.139 43.4541 52.8903 42.8722 55.5128 42.7915C56.4731 42.762 57.4356 42.7891 58.3947 42.7338C58.449 42.7307 58.4774 42.662 58.5099 42.6186C58.7336 42.3204 59.4268 40.8514 59.3745 40.486C59.2788 39.8162 58.4291 40.0424 57.7654 40.0253C55.8676 39.9766 53.5819 40.3183 51.7087 40.6589C44.0964 42.043 37.0646 45.131 32.1119 51.3218C30.7112 50.0485 29.5655 48.5355 28.0772 47.3449C24.083 44.1495 19.3706 42.0645 14.3594 41.0623C12.1921 40.629 10.0632 40.3407 7.84635 40.2554C6.93175 40.2202 5.78061 40.1436 4.84918 40.2554C4.48214 40.2994 5.48216 42.3867 5.65611 42.6186C5.68873 42.662 5.71709 42.7317 5.77139 42.7338C6.67365 42.7706 7.57752 42.7191 8.48036 42.7338C10.7812 42.7715 13.292 43.1946 15.5121 43.829C21.9036 45.655 28.2537 49.0795 32.0542 54.7802Z" fill="#fefbf5" fill-rule="nonzero" opacity="1" stroke="none"/>
<path d="M7.44289 45.7311C7.12657 45.7252 8.53525 47.7043 8.79203 48.0705C8.98185 48.3413 9.6911 48.3578 10.0366 48.3824C10.6922 48.4292 11.3477 48.5048 11.9963 48.613C14.4379 49.0198 16.7446 49.7746 19.028 50.6878C21.9186 51.8442 25.0419 54.1811 26.9821 56.5093C27.1763 56.7423 29.0465 59.3432 29.1292 59.3707C29.197 59.3933 29.494 59.6429 29.8426 59.7692C30.1367 59.8759 30.4887 59.8657 30.5556 59.8523C30.9155 59.7804 30.7696 59.2927 30.785 58.926C30.8155 58.1915 30.2929 57.5316 29.9216 56.9127C28.909 55.2252 27.5895 53.7253 26.1176 52.417C21.0204 47.8862 14.113 45.8539 7.44289 45.7311Z" fill="#fefbf5" fill-rule="nonzero" opacity="1" stroke="none"/>
<path d="M35.1768 59.5027C35.7087 58.9708 36.2515 57.7912 36.7805 57.0856C38.1234 55.2953 39.2683 53.8448 41.5233 52.1358C42.0066 51.7696 44.0147 50.4022 45.3429 50.0488C46.7753 49.6678 47.2873 49.5462 47.6847 49.4562C49.2987 49.0909 50.045 49.0229 51.6797 48.8006C52.7797 48.6511 53.9517 48.4924 55.0517 48.3824C55.0945 48.3781 55.1335 48.3516 55.167 48.3247C55.6439 47.9433 55.8857 47.6117 56.2014 47.0258C56.3674 46.7177 56.9304 45.9471 56.98 45.6257C56.7848 45.4304 56.2105 45.5326 55.8427 45.5502C55.2619 45.578 54.8901 45.6562 54.5361 45.6854C53.7567 45.7497 52.0233 46.0775 50.7289 46.365C45.1476 47.6053 40.3962 49.9542 36.3194 54.0308C35.3921 54.9581 33.8948 56.6405 33.5529 58.0079C33.485 58.2787 33.2669 58.9677 33.3233 59.325C33.3712 59.6287 33.5419 59.7684 34.0278 59.8705C34.4031 59.9493 34.6557 59.7884 35.1768 59.5027Z" fill="#fefbf5" fill-rule="nonzero" opacity="1" stroke="none"/>
<path d="M37.4722 32.0132C37.2079 31.7488 37.5417 30.8475 37.838 29.9873C38.103 29.2178 38.537 28.1683 38.8649 27.3967C39.2384 26.5181 39.2862 26.2705 39.8162 25.2061C40.3249 24.1846 40.626 23.8681 41.1327 22.9651C41.5179 22.2789 41.7871 21.9207 42.418 20.7512C42.769 20.1005 43.1156 19.6248 43.6398 18.8384C43.0011 18.8017 40.0125 21.9535 39.7201 22.2725C37.6281 24.5545 35.54 28.2006 35.3396 31.2063C35.3081 31.6783 34.8968 33.9821 35.109 34.0882C35.2369 34.1521 35.3435 33.9798 35.3973 33.9153C36.0425 33.141 36.8323 32.6531 37.4722 32.0132Z" fill="#294049" fill-rule="nonzero" opacity="1" stroke="none"/>
<path d="M20.7648 19.2488C22.0221 20.5061 23.4593 23.6368 23.9 24.5694C24.3423 25.5053 24.8169 26.5931 25.1971 27.3506C25.2156 27.3874 25.8367 28.8753 26.0285 29.4733C26.3011 30.3233 26.348 31.2157 26.7516 31.9556C27.1946 32.7678 28.2882 33.2232 28.8266 34.0305C29.3012 33.7141 28.8448 31.307 28.7112 30.5722C28.1095 27.2629 26.2275 24.259 23.8697 21.696C23.5661 21.366 23.2646 21.0333 22.9474 20.7162C22.7078 20.4766 21.2512 19.2309 20.7648 19.2488Z" fill="#294049" fill-rule="nonzero" opacity="1" stroke="none"/>
<path d="M39.1437 58.7571C39.4305 59.1872 41.7707 58.2251 42.3137 58.0079C45.9549 56.5514 49.1324 54.4971 52.0546 51.8406C51.7369 51.523 49.3966 52.2542 48.8268 52.417C45.1175 53.4769 41.5541 55.7441 39.1437 58.7571Z" fill="#bccac7" fill-rule="nonzero" opacity="1" stroke="none"/>
<path d="M12.1692 51.8406C14.2012 54.5499 18.8164 56.7473 21.9676 58.0079C22.4478 58.1999 25.0912 59.1495 25.3106 58.93C22.0594 55.6788 19.5037 53.6563 15.1663 52.417C14.7047 52.2851 12.3671 51.6427 12.1692 51.8406Z" fill="#bccac7" fill-rule="nonzero" opacity="1" stroke="none"/>
<path d="M33.1494 27.8057C32.979 27.9761 32.9163 28.3797 33.0917 28.5549C33.2696 28.377 33.2709 28.2543 33.38 28.0363C33.2646 27.9209 33.2646 27.9209 33.1494 27.8057Z" fill="#b2b3ad" fill-rule="nonzero" opacity="1" stroke="none"/>
<path d="M30.6829 38.6743C28.2603 36.168 25.9267 33.4902 22.8297 31.8205C19.6942 30.1301 15.4348 28.2596 12.7935 25.6535C11.3268 24.2064 10.6943 23.3568 9.58847 22.1376C9.19326 21.7018 8.6343 21.2449 8.71431 20.9372C8.73277 20.8662 9.2549 20.9413 9.79558 21.2173C10.3363 21.4934 10.9037 21.9766 10.9037 21.9766C11.2521 22.25 13.1138 24.1698 15.8108 25.7946C16.557 26.2442 17.4926 26.965 20.8381 28.6395C22.7021 29.5726 24.5966 30.481 25.7395 31.2141C26.9979 32.0212 28.2086 32.9976 29.4002 33.9833C30.2429 34.6803 31.0761 35.382 31.91 36.0319C31.7135 36.1402 31.4184 36.1409 31.2911 36.2434C30.5787 36.8167 30.8059 37.2773 30.6829 38.6743Z" fill="#294049" fill-rule="nonzero" opacity="1" stroke="none"/>
<path d="M54.1473 21.7317C54.9278 21.3478 54.1836 22.2557 53.953 22.5684C53.7128 22.8941 53.2896 23.539 52.9414 23.9382C52.5932 24.3375 52.3432 24.6729 51.9365 25.068C51.4775 25.5138 51.351 25.6732 50.7194 26.1543C50.1948 26.554 50.1703 26.6125 49.5084 27.0779C48.7516 27.6101 48.7239 27.5946 48.0296 28.0154C47.5381 28.3133 47.3121 28.4274 47.0102 28.6046C46.3086 29.0162 45.6662 29.2691 44.8734 29.6764C44.2998 29.9712 43.6819 30.2412 43.2806 30.4861C42.8847 30.7278 41.9946 31.1991 41.4492 31.5733C38.6089 33.5221 35.9228 36.3545 33.2428 38.5186C33.2406 38.4441 33.553 37.8272 33.5512 37.7628C33.5424 37.453 33.5315 37.2462 33.4537 37.0183C33.2978 36.5619 33.1759 36.4917 33.1005 36.4237C32.9904 36.3244 32.8024 36.2498 32.4861 36.1392C35.0795 34.1476 37.5942 31.6615 40.222 29.9743C40.3344 29.9022 40.5965 29.7302 40.5965 29.7302C40.5965 29.7302 41.1888 29.3536 41.4931 29.1727C43.0266 28.2613 45.6824 27.2448 47.2268 26.3799C49.4493 25.1354 50.6349 24.0828 52.4716 22.9066C52.4716 22.9066 53.4407 22.2145 53.5473 22.1415C53.6539 22.0685 54.1473 21.7317 54.1473 21.7317Z" fill="#294049" fill-rule="nonzero" opacity="1" stroke="none"/>
<path d="M32.1675 9.53796C32.5267 9.62149 32.8413 10.6283 32.9737 11.7459C33.161 13.3276 33.1491 16.4192 33.1772 19.0075C33.1906 20.2513 33.2055 21.5095 33.2214 22.7774L33.3292 29.0703L33.4329 36.9215C33.3368 36.6508 32.6593 36.4667 32.1284 36.4581C31.5975 36.4495 30.933 36.6327 30.7657 36.9067C30.7582 33.0082 30.8781 28.8393 30.8768 24.9408C30.8758 22.1644 30.8488 19.3876 30.8921 16.6116C30.9056 15.7436 30.9534 14.3526 31.0561 13.0536C31.1048 12.4365 31.1952 11.6081 31.3237 11.105C31.4803 10.4916 31.6491 9.56234 32.1675 9.53796Z" fill="#294049" fill-rule="nonzero" opacity="1" stroke="none"/>
<path d="M30.0252 35.7834C30.0252 35.7834 23.846 36.4669 20.648 36.7561C17.9559 36.9996 16.4854 37.1387 13.3275 36.2458C10.1696 35.3529 8.16958 32.9274 8.16958 32.9274C8.16958 32.9274 6.51367 31.4251 5.32583 29.4223C4.13799 27.4195 3.57365 26.1633 2.93279 24.1759C2.54756 22.9813 2.22797 21.3258 2.06995 20.3331C1.74678 18.3028 1.77886 18.2452 1.73794 16.925C1.69701 15.6047 1.86283 14.6566 2.07935 15.6384C2.43664 17.2587 2.6632 18.696 3.22283 20.5062C4.00627 23.0404 4.27262 23.9206 5.25233 26.1841C5.65869 27.123 6.89405 29.4367 9.97708 31.8373C11.4094 32.9526 11.952 33.5817 14.6479 34.4143C17.3437 35.2469 17.7195 35.0856 20.4452 35.3807C22.2021 35.5708 23.799 35.5067 24.9098 35.5769C26.6543 35.6872 30.0252 35.7834 30.0252 35.7834Z" fill="#294043" fill-rule="nonzero" opacity="1" stroke="none"/>
<path d="M44.3366 51.9639" fill="#bccac7" fill-rule="nonzero" opacity="1" stroke="none"/>
<path d="M16.3321 34.8559" fill="#bccac7" fill-rule="nonzero" opacity="1" stroke="none"/>
<path d="M10.9244 32.215" fill="#bccac7" fill-rule="nonzero" opacity="1" stroke="none"/>
<path d="M35.5127 35.3239C37.4871 36.1349 39.3013 36.6712 44.0039 36.9665C48.1197 37.225 51.4221 36.5574 55.1715 33.9965C57.7032 32.2673 58.9505 29.6774 58.9505 29.6774C58.9505 29.6774 60.1332 28.0386 60.724 26.142C62.2514 21.2386 62.0978 21.1065 62.3009 18.2528C62.5134 15.2688 62.4175 15.6082 62.2993 15.3056C62.1811 15.003 61.82 16.5198 61.3964 18.4453C60.8098 21.1124 60.4989 22.4369 60.0281 23.9389C59.5484 25.4694 59.2072 26.4109 57.6696 28.7459C56.8691 29.9616 55.9377 31.1545 53.4899 32.803C52.0675 33.7609 50.9443 34.4035 48.9195 34.8685C46.1712 35.4996 44.6155 35.7335 41.3778 35.6966" fill="#294043" fill-rule="nonzero" opacity="1" stroke="none"/>
<path d="M33.2003 28.2551C33.4193 27.8939 34.8467 25.5108 35.089 25.2412C36.8222 23.3132 37.3108 23.2397 38.3904 21.0385C38.7306 20.3449 39.1108 19.408 39.1117 18.5807C39.112 18.219 38.6389 19.1955 37.8673 20.4908C37.2457 21.5344 35.8918 22.4984 34.3014 25.1705C33.7259 26.1375 33.3744 27.0544 33.3143 27.1842C32.9609 27.9477 32.7178 29.051 33.2003 28.2551Z" fill="#294043" fill-rule="nonzero" opacity="1" stroke="none"/>
<path d="M30.9551 28.4235C30.7999 28.4773 30.4365 27.2579 29.6637 26.0348C28.8909 24.8118 29.0213 24.9225 27.5304 23.1102C26.3953 21.7304 25.2421 19.763 24.8645 18.6458C24.5696 17.7731 25.4949 19.117 26.2878 20.0171C26.6925 20.4764 28.2044 22.2366 28.7383 23.0327C29.889 24.7483 29.9402 24.9883 30.2847 25.8195C30.9581 27.444 31.1104 28.3697 30.9551 28.4235Z" fill="#294043" fill-rule="nonzero" opacity="1" stroke="none"/>
<path d="M34.8543 29.33" fill="#294043" fill-rule="nonzero" opacity="1" stroke="none"/>
</g>
</g>
</svg>
